<?xml version="1.0" encoding="utf-8"?>
<!-- Generator: Adobe Illustrator 28.0.0, SVG Export Plug-In . SVG Version: 6.00 Build 0)  -->
<svg version="1.1" id="katman_1" xmlns="http://www.w3.org/2000/svg" xmlns:xlink="http://www.w3.org/1999/xlink" x="0px" y="0px"
	 viewBox="0 0 140 140" style="enable-background:new 0 0 140 140;" xml:space="preserve">
<style type="text/css">
	.st0{fill:url(#SVGID_1_);}
	.st1{fill:url(#SVGID_00000034081884463352551820000009101827555643334843_);}
	.st2{fill-rule:evenodd;clip-rule:evenodd;fill:url(#SVGID_00000101801580764600529160000016908704684230842774_);}
	.st3{fill-rule:evenodd;clip-rule:evenodd;fill:url(#SVGID_00000072274822988668234000000015861098268746142367_);}
	.st4{fill-rule:evenodd;clip-rule:evenodd;fill:url(#SVGID_00000017485019727559465210000011421312784206390667_);}
	.st5{fill-rule:evenodd;clip-rule:evenodd;fill:url(#SVGID_00000056409146917544994930000018241064362060362687_);}
	.st6{fill-rule:evenodd;clip-rule:evenodd;fill:url(#SVGID_00000012468195860971981900000000281651848674865334_);}
	.st7{fill-rule:evenodd;clip-rule:evenodd;fill:url(#SVGID_00000176003393104330319280000001033301677022375315_);}
	.st8{fill-rule:evenodd;clip-rule:evenodd;fill:#ED9023;}
	
		.st9{fill-rule:evenodd;clip-rule:evenodd;fill:none;stroke:url(#SVGID_00000002355079403552550960000013685814168367377554_);stroke-width:0.15;stroke-miterlimit:10;}
	.st10{fill-rule:evenodd;clip-rule:evenodd;fill:url(#SVGID_00000048470328903895998910000001869974777720561037_);}
	
		.st11{fill-rule:evenodd;clip-rule:evenodd;fill:none;stroke:url(#SVGID_00000158749451380703963710000016814201372527908498_);stroke-width:0.15;stroke-miterlimit:10;}
	.st12{fill-rule:evenodd;clip-rule:evenodd;fill:url(#SVGID_00000078757412282985252510000016756830745435679639_);}
	
		.st13{fill-rule:evenodd;clip-rule:evenodd;fill:none;stroke:url(#SVGID_00000008128535656941832840000002763964703603284383_);stroke-width:0.15;stroke-miterlimit:10;}
	.st14{fill-rule:evenodd;clip-rule:evenodd;fill:url(#SVGID_00000041986012482949423780000004849808173026089399_);}
	
		.st15{fill-rule:evenodd;clip-rule:evenodd;fill:none;stroke:url(#SVGID_00000007414457865779662860000005447778580384472497_);stroke-width:0.15;stroke-miterlimit:10;}
	.st16{fill-rule:evenodd;clip-rule:evenodd;fill:url(#SVGID_00000051376731528432255240000013887861017265624222_);}
	
		.st17{fill-rule:evenodd;clip-rule:evenodd;fill:none;stroke:url(#SVGID_00000096745494044915344630000009299909112127204796_);stroke-width:0.15;stroke-miterlimit:10;}
	.st18{fill-rule:evenodd;clip-rule:evenodd;fill:url(#SVGID_00000061470054399111929220000002319343126531284392_);}
	
		.st19{fill-rule:evenodd;clip-rule:evenodd;fill:none;stroke:url(#SVGID_00000155842781660973519770000017246516785450189721_);stroke-width:0.15;stroke-miterlimit:10;}
	.st20{fill-rule:evenodd;clip-rule:evenodd;fill:url(#SVGID_00000022552379158043424300000014872377348766722741_);}
	
		.st21{fill-rule:evenodd;clip-rule:evenodd;fill:none;stroke:url(#SVGID_00000074428372839932821930000016642998528516143772_);stroke-width:0.15;stroke-miterlimit:10;}
	.st22{fill:url(#SVGID_00000109006628471512592780000010448584107665969290_);}
	.st23{fill:url(#SVGID_00000092450091372454438810000009585596200672816285_);}
	.st24{fill:url(#SVGID_00000150078161432253895340000009984685998210949557_);}
	.st25{fill:url(#SVGID_00000141436092634753650310000012500670714655421584_);}
	.st26{fill:url(#SVGID_00000047778278824302623670000011503789635584043696_);}
	.st27{fill:url(#SVGID_00000105408399327229701290000003069516795764398997_);}
	.st28{fill:url(#SVGID_00000133494464039995109330000017670332915078610581_);}
	.st29{fill:url(#SVGID_00000151514572443204906440000016225104012300270239_);}
	.st30{fill:url(#SVGID_00000043444917184093017690000007930084477519478430_);}
	.st31{fill:url(#SVGID_00000009573318247237483700000006914449473462836641_);}
	.st32{fill:url(#SVGID_00000099628067439330616740000000214849987338327965_);}
	.st33{fill-rule:evenodd;clip-rule:evenodd;fill:url(#SVGID_00000065794242541041905400000002579840351620896394_);}
	.st34{fill-rule:evenodd;clip-rule:evenodd;fill:url(#SVGID_00000042003094704339988160000012751757718394046859_);}
	.st35{fill-rule:evenodd;clip-rule:evenodd;fill:url(#SVGID_00000080178569585041807430000007441005432015991701_);}
	.st36{fill-rule:evenodd;clip-rule:evenodd;fill:url(#SVGID_00000009549348095322924590000000442237932460727942_);}
	.st37{fill-rule:evenodd;clip-rule:evenodd;fill:url(#SVGID_00000036238218693415107620000003444799682799923638_);}
	.st38{fill-rule:evenodd;clip-rule:evenodd;fill:url(#SVGID_00000005230741092681544690000001649838462934657184_);}
	.st39{fill-rule:evenodd;clip-rule:evenodd;fill:url(#SVGID_00000138574338266633640720000003773325434216359045_);}
	.st40{fill-rule:evenodd;clip-rule:evenodd;fill:url(#SVGID_00000001658052546558641380000011221364093735924371_);}
	.st41{fill:url(#SVGID_00000070078476730581288930000007523730417600358062_);}
	.st42{fill:url(#SVGID_00000013187226041723385680000014250912992044610944_);}
	.st43{fill:url(#SVGID_00000052791565738036260860000007528743218343529624_);}
	.st44{fill:url(#SVGID_00000103968288705275160750000010364568050308554683_);}
	.st45{fill:url(#SVGID_00000176735178357854243520000009359727999425771427_);}
	.st46{fill:url(#SVGID_00000155863275857717147110000017849268779236571558_);}
	.st47{fill:url(#SVGID_00000077309743572098096820000009099496891019390622_);}
	.st48{fill:url(#SVGID_00000026136821134404470380000014802982483705174171_);}
	.st49{fill:url(#SVGID_00000098938891850798688600000001889181516122643352_);}
	.st50{fill:url(#SVGID_00000173853904654067419890000009773229290270859679_);}
	.st51{fill:url(#SVGID_00000143586154409886423840000001001807792876934792_);}
	.st52{fill:url(#SVGID_00000116953191443098791710000014346740051966945413_);}
	.st53{fill:url(#SVGID_00000156585298769147160140000000299977289923555735_);}
	.st54{fill:url(#SVGID_00000000221469310504432990000006920256093611525545_);}
	.st55{fill:url(#SVGID_00000176727457153991425370000010669892300365407398_);}
	.st56{fill:url(#SVGID_00000183232050296137662740000010966350782725346189_);}
	.st57{fill:url(#SVGID_00000176021297104628001880000005562077143903838357_);}
	.st58{fill:url(#SVGID_00000149371543512049801590000008464087658154494376_);}
	.st59{fill:url(#SVGID_00000161596472321052734070000006761828910322354105_);}
	.st60{fill:url(#SVGID_00000015326407011631848570000009097854142794152868_);}
</style>
<g>
	
		<radialGradient id="SVGID_1_" cx="-455.4128" cy="1035.9036" r="1.0001" gradientTransform="matrix(9.6481 68.9116 68.9116 -9.6481 -66922.3047 41447.3203)" gradientUnits="userSpaceOnUse">
		<stop  offset="0.87" style="stop-color:#FCFCFC"/>
		<stop  offset="0.92" style="stop-color:#F0F0F0"/>
		<stop  offset="0.96" style="stop-color:#ECECEC"/>
		<stop  offset="1" style="stop-color:#DFDEDE"/>
	</radialGradient>
	<path class="st0" d="M69.6,139.2c38.4,0,69.6-31.2,69.6-69.6C139.2,31.2,108,0,69.6,0C31.2,0,0,31.2,0,69.6
		C0,108,31.2,139.2,69.6,139.2z"/>
	
		<radialGradient id="SVGID_00000008131403941100529700000015525321716804172212_" cx="-479.4397" cy="1027.2324" r="1" gradientTransform="matrix(-12.557 -89.6887 -89.6887 12.557 86163.7266 -55816.3672)" gradientUnits="userSpaceOnUse">
		<stop  offset="0.82" style="stop-color:#FFFFFF;stop-opacity:0"/>
		<stop  offset="1" style="stop-color:#FFFFFF"/>
	</radialGradient>
	<path style="fill:url(#SVGID_00000008131403941100529700000015525321716804172212_);" d="M69.6,139.2c38.4,0,69.6-31.2,69.6-69.6
		C139.2,31.2,108,0,69.6,0C31.2,0,0,31.2,0,69.6C0,108,31.2,139.2,69.6,139.2z"/>
	<g>
		<g>
			
				<radialGradient id="SVGID_00000124873229273356943700000000427949999320898715_" cx="54.5789" cy="95.3208" r="60.5043" gradientTransform="matrix(1 0 0 -1 0 142)" gradientUnits="userSpaceOnUse">
				<stop  offset="1.000000e-02" style="stop-color:#474846"/>
				<stop  offset="0.48" style="stop-color:#363736"/>
				<stop  offset="1" style="stop-color:#232323"/>
			</radialGradient>
			<path style="fill-rule:evenodd;clip-rule:evenodd;fill:url(#SVGID_00000124873229273356943700000000427949999320898715_);" d="
				M88.6,56.5c-0.1-2.5-1-6.2-2.6-8.9c-0.8-1.4-2.1-3.6-5.6-6c-1.8-1.3-4.3-2.3-6.1-2.7c-1.8-0.4-2.2-0.5-4.6-0.6
				c-2.3-0.1-5.8,0.3-9.4,2.2c-3.6,1.9-7.1,5.5-8.6,9.9c-1.4,4.1-2.1,9.5,1,15.1c1.7,3,3.1,4.5,4.3,5.9c1.2,1.3,1.9,2.1,2.7,3.8
				c0.9,1.8,1,3.2,1,7.1c0,0.3,0,0.5,0.3,0.5c0.4,0,10,0,10.2,0c0.2,0,0.1,0.1-0.1,0.1c-0.2,0.1-9.9,2.1-10.1,2.1
				c-0.2,0.1-0.2,0.2-0.2,0.4c0,0.2,0,1.9,0,2.1c0,0.2,0.1,0.2,0.3,0.2c0.3,0,2.6-0.5,15-3.1c2-0.4,2-0.4,2-0.4s0.2-0.1,0.2-0.3
				c0-0.4,0-2.1,0-2.6c0.1-3.1,0.1-5.5,2.3-8.2c0.7-0.8,1.8-2.1,2.4-2.8c0.7-0.7,3.1-3.7,4.2-6.5C88.3,61.2,88.7,59.7,88.6,56.5
				L88.6,56.5z M85.4,63.8c-1.4,2.9-2.9,4.5-5.1,7.2c-2.2,2.7-2.7,4-3.2,5.5c-0.5,1.5-0.4,3.8-0.4,3.9c0,0.1,0,0.2-0.2,0.3
				s-13.7,0-13.8,0c-0.1,0-0.2,0-0.2-0.1c0-0.1,0-1.3-0.2-2.8c-0.2-1.5-0.8-2.8-1.6-4.2c-0.8-1.4-2-2.7-2.7-3.6
				c-0.7-0.8-1.5-1.8-2.7-3.6c-1.9-2.9-2.7-5.2-2.9-8.2c-0.2-3.3,0.5-5.8,1.2-7.6c0.8-2.1,2.2-4.3,4.6-6.4c2.8-2.4,4.9-3,6.7-3.6
				c2.6-0.8,6-0.9,9.5,0c3.5,0.9,6.2,2.6,8.5,5.3c2.6,3,3.6,6.3,4,9.2C87.1,58.1,86.8,60.9,85.4,63.8L85.4,63.8z"/>
			
				<radialGradient id="SVGID_00000138559824304225585400000010342445567635950761_" cx="70.2072" cy="53.6198" r="10.4307" gradientTransform="matrix(1 0 0 -1 0 142)" gradientUnits="userSpaceOnUse">
				<stop  offset="1.000000e-02" style="stop-color:#474846"/>
				<stop  offset="0.48" style="stop-color:#363736"/>
				<stop  offset="1" style="stop-color:#232323"/>
			</radialGradient>
			<path style="fill-rule:evenodd;clip-rule:evenodd;fill:url(#SVGID_00000138559824304225585400000010342445567635950761_);" d="
				M61,88.6c-0.1,0-0.3,0-0.3,0.4c0,0.4,0,2,0,2.2c0,0.2,0.1,0.2,0.3,0.2c0.3-0.1,16.9-3.5,17.1-3.5c0.2,0,0.2-0.2,0.2-0.4v-2.2
				c0-0.2,0-0.2-0.2-0.2C77.8,85.1,61.1,88.5,61,88.6L61,88.6L61,88.6z"/>
			
				<radialGradient id="SVGID_00000025427761294944942870000015487217998416486298_" cx="69.2906" cy="49.2181" r="15.3731" gradientTransform="matrix(1 0 0 -1 0 142)" gradientUnits="userSpaceOnUse">
				<stop  offset="1.000000e-02" style="stop-color:#474846"/>
				<stop  offset="0.48" style="stop-color:#363736"/>
				<stop  offset="1" style="stop-color:#232323"/>
			</radialGradient>
			<path style="fill-rule:evenodd;clip-rule:evenodd;fill:url(#SVGID_00000025427761294944942870000015487217998416486298_);" d="
				M64.3,91.5c-0.1,0-0.3,0.1-0.2,0.3c0.1,0.2,1.2,2.1,1.3,2.2c0.1,0.1,0.2,0.2,0.5,0.2c0.2,0,7.3,0,7.5,0c0.2,0,0.2-0.1,0.3-0.2
				c0.1-0.1,1-1.8,1.1-1.9c0.1-0.1,0.2-0.2,0.4-0.2s2.8-0.6,3-0.6c0.2-0.1,0.2-0.2,0.2-0.4c0-0.2,0-2,0-2.1c0-0.1,0-0.2-0.2-0.2
				S64.4,91.5,64.3,91.5L64.3,91.5L64.3,91.5z"/>
		</g>
		
			<radialGradient id="SVGID_00000134958536988017476630000014934409799032293271_" cx="69.5867" cy="91.2944" r="22.8922" gradientTransform="matrix(1 0 0 -1 0 142)" gradientUnits="userSpaceOnUse">
			<stop  offset="0" style="stop-color:#FFF6E1"/>
			<stop  offset="0.375" style="stop-color:#FFD900"/>
			<stop  offset="1" style="stop-color:#FF8900"/>
		</radialGradient>
		<path style="fill-rule:evenodd;clip-rule:evenodd;fill:url(#SVGID_00000134958536988017476630000014934409799032293271_);" d="
			M85.4,57.2c-0.1,2.6-0.8,4.6-1.7,6.3c-0.9,1.7-2.5,4-4.3,5.9c-1.9,2.1-2.9,3.2-3.7,5.2c-0.8,2-0.7,3.8-0.7,4s0,0.4-0.3,0.5
			c-0.3,0-2.3,0-4.9,0c-2.6,0-5,0-5.4,0c-0.4,0-0.4-0.4-0.4-0.6c0-0.1,0-0.3-0.1-1.1c-0.1-0.9-0.2-1.9-1.1-3.8
			c-0.9-1.9-2.9-3.9-3.9-5c-2-2.2-3.2-4.2-3.8-5.4c-0.6-1.2-1.5-3.4-1.6-6c-0.1-2.6,0.3-4.3,0.8-5.7c0.5-1.5,1.7-3.5,2.8-4.8
			c1.6-1.9,3.2-2.9,4.7-3.8c2.7-1.5,5.5-1.9,7.1-1.9c1.8,0,4-0.1,7.4,1.5c3.5,1.6,5.4,3.9,6.7,5.9C84.9,51.5,85.5,54.5,85.4,57.2
			L85.4,57.2z"/>
		
			<radialGradient id="SVGID_00000117656525268420175710000012086697703493516701_" cx="69.0154" cy="54.0149" r="26.0099" gradientUnits="userSpaceOnUse">
			<stop  offset="1.000000e-02" style="stop-color:#474846"/>
			<stop  offset="0.48" style="stop-color:#363736"/>
			<stop  offset="1" style="stop-color:#232323"/>
		</radialGradient>
		<path style="fill-rule:evenodd;clip-rule:evenodd;fill:url(#SVGID_00000117656525268420175710000012086697703493516701_);" d="
			M75.4,57.5c-1.1-0.2-2.1-0.1-2.9,0.1c-1.1-0.7-2-1.1-2.8-1.1c-0.1,0-0.2,0-0.3,0c-0.7,0-1.7,0.4-2.8,1.1c-0.9-0.2-1.8-0.3-2.9-0.1
			c-1.1,0.3-1.9,0.8-2,1.4c0,0,0,0.2,0.4,0.5c0.3,0.2,1.1,2.1,1.1,2.1l2.8,6l1.4,3.5c0,0-0.3,0.5-0.3,1.3v6.9h0.7v-7.4
			c0-0.2,0.2-0.4,0.4-0.4h1.1v-8.6c0-0.1-0.1-0.2-0.2-0.2l-0.6-0.1c-0.2,0-0.3-0.2-0.3-0.3c0-0.2,0.1-0.3,0.3-0.3h2.1
			c0.2,0,0.3,0.1,0.3,0.3c0,0.2-0.1,0.3-0.3,0.3l-0.6,0.1c-0.1,0-0.2,0.1-0.2,0.2v8.6h1.1c0.2,0,0.4,0.2,0.4,0.4v7.4H72v-6.9
			c0-0.8-0.3-1.3-0.3-1.3l1.4-3.5l2.8-6c0,0,0.8-1.9,1.1-2.1c0.3-0.2,0.4-0.5,0.4-0.5C77.3,58.2,76.5,57.8,75.4,57.5L75.4,57.5z
			 M68.4,62.9c0.1,0,0.1,0.1,0.1,0.2v7.6h-0.4l-5.2-11.5c0-0.1,0-0.2,0-0.2c0.6-0.6,2-0.4,3.4-0.1c0.1,0,0.1,0.1,0.1,0.1l1.3,3l0,0
			c-0.2,0.2-0.1,0.6,0.1,0.8C68,62.7,68.2,62.9,68.4,62.9L68.4,62.9z M70.9,61.3c0,0.1-0.2,0.2-0.3,0.1c-0.3-0.1-0.7-0.1-1.1-0.1
			c-0.4,0-0.8,0-1.1,0.1c-0.1,0-0.2,0-0.3-0.1l-1.1-2.8c0.9-0.7,1.7-0.8,2.5-0.8c0.8,0,1.6,0.2,2.5,0.8L70.9,61.3z M76.2,59.1
			L71,70.6h-0.4v-7.6c0-0.1,0.1-0.1,0.1-0.2c0.3-0.1,0.5-0.2,0.7-0.4c0.1-0.2,0.1-0.5,0-0.7v0l1.3-3c0-0.1,0.1-0.1,0.1-0.1
			c1.4-0.2,2.7-0.5,3.4,0.1C76.2,58.9,76.2,59,76.2,59.1L76.2,59.1z"/>
		<g>
			<g>
				
					<linearGradient id="SVGID_00000005981964596186375880000010506932811997900965_" gradientUnits="userSpaceOnUse" x1="97.5398" y1="88.1749" x2="97.5398" y2="81.5092" gradientTransform="matrix(1 0 0 -1 0 142)">
					<stop  offset="0.2178" style="stop-color:#F39C00"/>
					<stop  offset="0.4763" style="stop-color:#FFD644"/>
					<stop  offset="0.8386" style="stop-color:#BB5B19"/>
					<stop  offset="1" style="stop-color:#B15A1B"/>
				</linearGradient>
				<path style="fill-rule:evenodd;clip-rule:evenodd;fill:url(#SVGID_00000005981964596186375880000010506932811997900965_);" d="
					M104.8,57.1c-0.4,0.1-5.8,1.3-7.6,1.7c-1.8,0.4-5.7,1.3-6.5,1.5c-0.2,0-0.4,0.1-0.6,0c0.6-0.7,1-1.9,1-3.1c0-1.3-0.4-2.4-1-3.1
					c0.1,0,0.1,0,0.3,0c0.4,0.1,2.8,0.6,4.5,0.9c1.7,0.4,9.8,2,9.9,2.1C104.8,57,105.2,57,104.8,57.1z"/>
				<path class="st8" d="M91.1,57.1c0,1.3-0.4,2.4-1,3.1C90,60.2,90,60.2,90,60c0-0.6,0-2.5,0.1-2.9c0-0.4-0.1-2.5-0.1-2.7
					c0-0.1,0-0.4,0.1-0.5C90.7,54.7,91.1,55.9,91.1,57.1z"/>
				
					<radialGradient id="SVGID_00000070087596837370601830000006256282213422435992_" cx="90.6064" cy="57.1457" r="2.2809" gradientUnits="userSpaceOnUse">
					<stop  offset="0" style="stop-color:#FFFF00"/>
					<stop  offset="1" style="stop-color:#FFFF00;stop-opacity:0"/>
				</radialGradient>
				
					<path style="fill-rule:evenodd;clip-rule:evenodd;fill:none;stroke:url(#SVGID_00000070087596837370601830000006256282213422435992_);stroke-width:0.15;stroke-miterlimit:10;" d="
					M90.1,60.3c0.6-0.7,1-1.9,1-3.1c0-1.3-0.4-2.4-1-3.1"/>
			</g>
			<g>
				
					<linearGradient id="SVGID_00000020373632104756436660000014368578249563983490_" gradientUnits="userSpaceOnUse" x1="34.811" y1="88.1749" x2="34.811" y2="81.5092" gradientTransform="matrix(-1 0 0 -1 76.3931 142)">
					<stop  offset="0.2178" style="stop-color:#F39C00"/>
					<stop  offset="0.4763" style="stop-color:#FFD644"/>
					<stop  offset="0.8386" style="stop-color:#BB5B19"/>
					<stop  offset="1" style="stop-color:#B15A1B"/>
				</linearGradient>
				<path style="fill-rule:evenodd;clip-rule:evenodd;fill:url(#SVGID_00000020373632104756436660000014368578249563983490_);" d="
					M34.3,57.1c0.4,0.1,5.8,1.3,7.6,1.7c1.8,0.4,5.7,1.3,6.5,1.5c0.2,0,0.4,0.1,0.6,0c-0.6-0.7-1-1.9-1-3.1c0-1.3,0.4-2.4,1-3.1
					c-0.1,0-0.1,0-0.3,0c-0.4,0.1-2.8,0.6-4.5,0.9c-1.7,0.4-9.8,2-9.9,2.1C34.3,57,33.9,57,34.3,57.1z"/>
				<path class="st8" d="M48,57.1c0,1.3,0.4,2.4,1,3.1c0.1,0,0.1-0.1,0.1-0.2c0-0.6,0-2.5-0.1-2.9c0-0.4,0.1-2.5,0.1-2.7
					c0-0.1,0-0.4-0.1-0.5C48.4,54.7,48,55.9,48,57.1z"/>
				
					<radialGradient id="SVGID_00000145044899121588163390000009183255142002731423_" cx="27.8776" cy="57.1457" r="2.2809" gradientTransform="matrix(-1 0 0 1 76.3931 0)" gradientUnits="userSpaceOnUse">
					<stop  offset="0" style="stop-color:#FFFF00"/>
					<stop  offset="1" style="stop-color:#FFFF00;stop-opacity:0"/>
				</radialGradient>
				
					<path style="fill-rule:evenodd;clip-rule:evenodd;fill:none;stroke:url(#SVGID_00000145044899121588163390000009183255142002731423_);stroke-width:0.15;stroke-miterlimit:10;" d="
					M49,60.3c-0.6-0.7-1-1.9-1-3.1c0-1.3,0.4-2.4,1-3.1"/>
			</g>
		</g>
		<g>
			<g>
				
					<linearGradient id="SVGID_00000004541075854622492870000017569858905928540836_" gradientUnits="userSpaceOnUse" x1="97.5398" y1="88.1749" x2="97.5398" y2="81.5092" gradientTransform="matrix(0.7071 -0.7071 -0.7071 -0.7071 80.3778 166.3326)">
					<stop  offset="0.2178" style="stop-color:#F39C00"/>
					<stop  offset="0.4763" style="stop-color:#FFD644"/>
					<stop  offset="0.8386" style="stop-color:#BB5B19"/>
					<stop  offset="1" style="stop-color:#B15A1B"/>
				</linearGradient>
				<path style="fill-rule:evenodd;clip-rule:evenodd;fill:url(#SVGID_00000004541075854622492870000017569858905928540836_);" d="
					M94.4,32.2c-0.2,0.3-3.2,5-4.2,6.5c-1,1.6-3.1,5-3.5,5.6c-0.1,0.1-0.2,0.4-0.4,0.4c-0.1-0.9-0.6-2-1.5-2.9s-2-1.4-2.9-1.5
					c0-0.1,0.1-0.1,0.2-0.2c0.4-0.3,2.4-1.6,3.8-2.5c1.4-0.9,8.4-5.5,8.5-5.5C94.4,32.1,94.7,31.9,94.4,32.2z"/>
				<path class="st8" d="M84.8,41.9c0.9,0.9,1.4,2,1.5,2.9c-0.1,0-0.2,0-0.3-0.1c-0.4-0.4-1.7-1.8-2-2.1c-0.3-0.3-1.8-1.7-1.9-1.8
					c-0.1-0.1-0.3-0.2-0.2-0.4C82.8,40.5,83.9,41,84.8,41.9z"/>
				
					<radialGradient id="SVGID_00000176741891675189236410000004396621172052110984_" cx="90.6064" cy="57.1457" r="2.2809" gradientTransform="matrix(0.7071 -0.7071 0.7071 0.7071 -20.0314 65.9234)" gradientUnits="userSpaceOnUse">
					<stop  offset="0" style="stop-color:#FFFF00"/>
					<stop  offset="1" style="stop-color:#FFFF00;stop-opacity:0"/>
				</radialGradient>
				
					<path style="fill-rule:evenodd;clip-rule:evenodd;fill:none;stroke:url(#SVGID_00000176741891675189236410000004396621172052110984_);stroke-width:0.15;stroke-miterlimit:10;" d="
					M86.3,44.8c-0.1-0.9-0.6-2-1.5-2.9s-2-1.4-2.9-1.5"/>
			</g>
			<g>
				
					<linearGradient id="SVGID_00000055708995418632703750000012905208582173366657_" gradientUnits="userSpaceOnUse" x1="34.811" y1="88.1749" x2="34.811" y2="81.5092" gradientTransform="matrix(-0.7071 0.7071 -0.7071 -0.7071 134.3958 112.3145)">
					<stop  offset="0.2178" style="stop-color:#F39C00"/>
					<stop  offset="0.4763" style="stop-color:#FFD644"/>
					<stop  offset="0.8386" style="stop-color:#BB5B19"/>
					<stop  offset="1" style="stop-color:#B15A1B"/>
				</linearGradient>
				<path style="fill-rule:evenodd;clip-rule:evenodd;fill:url(#SVGID_00000055708995418632703750000012905208582173366657_);" d="
					M44.6,82c0.3-0.2,5-3.2,6.5-4.2c1.6-1,5-3.1,5.6-3.5c0.1-0.1,0.4-0.2,0.4-0.4c-0.9-0.1-2-0.6-2.9-1.5s-1.4-2-1.5-2.9
					c-0.1,0-0.1,0.1-0.2,0.2C52.3,70,51,72,50.1,73.4c-0.9,1.4-5.5,8.4-5.5,8.5C44.5,82,44.3,82.3,44.6,82z"/>
				<path class="st8" d="M54.3,72.4c0.9,0.9,2,1.4,2.9,1.5c0-0.1,0-0.2-0.1-0.3c-0.4-0.4-1.8-1.7-2.1-2c-0.3-0.3-1.7-1.8-1.8-1.9
					c-0.1-0.1-0.2-0.3-0.4-0.2C52.9,70.4,53.4,71.5,54.3,72.4z"/>
				
					<radialGradient id="SVGID_00000005231761944228967500000008518433422994204083_" cx="27.8776" cy="57.1457" r="2.2809" gradientTransform="matrix(-0.7071 0.7071 0.7071 0.7071 33.9866 11.9054)" gradientUnits="userSpaceOnUse">
					<stop  offset="0" style="stop-color:#FFFF00"/>
					<stop  offset="1" style="stop-color:#FFFF00;stop-opacity:0"/>
				</radialGradient>
				
					<path style="fill-rule:evenodd;clip-rule:evenodd;fill:none;stroke:url(#SVGID_00000005231761944228967500000008518433422994204083_);stroke-width:0.15;stroke-miterlimit:10;" d="
					M57.2,73.9c-0.9-0.1-2-0.6-2.9-1.5s-1.4-2-1.5-2.9"/>
			</g>
		</g>
		<g>
			<g>
				
					<linearGradient id="SVGID_00000060719959559772251170000004352782293882356645_" gradientUnits="userSpaceOnUse" x1="97.5398" y1="88.1749" x2="97.5398" y2="81.5092" gradientTransform="matrix(-0.7071 -0.7071 -0.7071 0.7071 178.7518 46.1715)">
					<stop  offset="0.2178" style="stop-color:#F39C00"/>
					<stop  offset="0.4763" style="stop-color:#FFD644"/>
					<stop  offset="0.8386" style="stop-color:#BB5B19"/>
					<stop  offset="1" style="stop-color:#B15A1B"/>
				</linearGradient>
				<path style="fill-rule:evenodd;clip-rule:evenodd;fill:url(#SVGID_00000060719959559772251170000004352782293882356645_);" d="
					M44.6,32.1c0.3,0.2,5,3.2,6.5,4.2c1.6,1,5,3.1,5.6,3.5c0.1,0.1,0.4,0.2,0.4,0.4c-0.9,0.1-2,0.6-2.9,1.5s-1.4,2-1.5,2.9
					c-0.1,0-0.1-0.1-0.2-0.2c-0.3-0.4-1.6-2.4-2.5-3.8c-0.9-1.4-5.5-8.4-5.5-8.5C44.5,32.2,44.3,31.9,44.6,32.1z"/>
				<path class="st8" d="M54.3,41.8c0.9-0.9,2-1.4,2.9-1.5c0,0.1,0,0.2-0.1,0.3c-0.4,0.4-1.8,1.7-2.1,2c-0.3,0.3-1.7,1.8-1.8,1.9
					c-0.1,0.1-0.2,0.3-0.4,0.2C52.9,43.7,53.4,42.7,54.3,41.8z"/>
				
					<radialGradient id="SVGID_00000147189204041154621130000004146188507522315683_" cx="90.6064" cy="57.1457" r="2.2809" gradientTransform="matrix(-0.7071 -0.7071 0.7071 -0.7071 78.3426 146.5807)" gradientUnits="userSpaceOnUse">
					<stop  offset="0" style="stop-color:#FFFF00"/>
					<stop  offset="1" style="stop-color:#FFFF00;stop-opacity:0"/>
				</radialGradient>
				
					<path style="fill-rule:evenodd;clip-rule:evenodd;fill:none;stroke:url(#SVGID_00000147189204041154621130000004146188507522315683_);stroke-width:0.15;stroke-miterlimit:10;" d="
					M57.2,40.2c-0.9,0.1-2,0.6-2.9,1.5s-1.4,2-1.5,2.9"/>
			</g>
			<g>
				
					<linearGradient id="SVGID_00000112628162984323639330000000054624849987838651_" gradientUnits="userSpaceOnUse" x1="34.811" y1="88.1749" x2="34.811" y2="81.5092" gradientTransform="matrix(0.7071 0.7071 -0.7071 0.7071 124.7337 -7.8465)">
					<stop  offset="0.2178" style="stop-color:#F39C00"/>
					<stop  offset="0.4763" style="stop-color:#FFD644"/>
					<stop  offset="0.8386" style="stop-color:#BB5B19"/>
					<stop  offset="1" style="stop-color:#B15A1B"/>
				</linearGradient>
				<path style="fill-rule:evenodd;clip-rule:evenodd;fill:url(#SVGID_00000112628162984323639330000000054624849987838651_);" d="
					M94.4,81.9c-0.2-0.3-3.2-5-4.2-6.5c-1-1.6-3.1-5-3.5-5.6c-0.1-0.1-0.2-0.4-0.4-0.4c-0.1,0.9-0.6,2-1.5,2.9
					c-0.9,0.9-2,1.4-2.9,1.5c0,0.1,0.1,0.1,0.2,0.2c0.4,0.3,2.4,1.6,3.8,2.5c1.4,0.9,8.4,5.5,8.5,5.5C94.4,82,94.7,82.3,94.4,81.9z"
					/>
				<path class="st8" d="M84.8,72.2c0.9-0.9,1.4-2,1.5-2.9c-0.1,0-0.2,0-0.3,0.1c-0.4,0.4-1.7,1.8-2,2.1c-0.3,0.3-1.8,1.7-1.9,1.8
					c-0.1,0.1-0.3,0.2-0.2,0.4C82.8,73.6,83.9,73.1,84.8,72.2z"/>
				
					<radialGradient id="SVGID_00000061465251336912633500000003596336697149917076_" cx="27.8776" cy="57.1457" r="2.2809" gradientTransform="matrix(0.7071 0.7071 0.7071 -0.7071 24.3245 92.5627)" gradientUnits="userSpaceOnUse">
					<stop  offset="0" style="stop-color:#FFFF00"/>
					<stop  offset="1" style="stop-color:#FFFF00;stop-opacity:0"/>
				</radialGradient>
				
					<path style="fill-rule:evenodd;clip-rule:evenodd;fill:none;stroke:url(#SVGID_00000061465251336912633500000003596336697149917076_);stroke-width:0.15;stroke-miterlimit:10;" d="
					M86.3,69.3c-0.1,0.9-0.6,2-1.5,2.9c-0.9,0.9-2,1.4-2.9,1.5"/>
			</g>
		</g>
		<g>
			<g>
				
					<linearGradient id="SVGID_00000120518833471375196040000016852785327873947813_" gradientUnits="userSpaceOnUse" x1="97.5398" y1="88.1749" x2="97.5398" y2="81.5092" gradientTransform="matrix(0 -1 -1 0 154.4509 126.626)">
					<stop  offset="0.2178" style="stop-color:#F39C00"/>
					<stop  offset="0.4763" style="stop-color:#FFD644"/>
					<stop  offset="0.8386" style="stop-color:#BB5B19"/>
					<stop  offset="1" style="stop-color:#B15A1B"/>
				</linearGradient>
				<path style="fill-rule:evenodd;clip-rule:evenodd;fill:url(#SVGID_00000120518833471375196040000016852785327873947813_);" d="
					M69.6,21.8c0.1,0.4,1.3,5.8,1.7,7.6c0.4,1.8,1.3,5.7,1.5,6.5c0,0.2,0.1,0.4,0,0.6c-0.7-0.6-1.9-1-3.1-1s-2.4,0.4-3.1,1
					c0-0.1,0-0.1,0-0.3c0.1-0.4,0.6-2.8,0.9-4.5c0.4-1.7,2-9.8,2.1-9.9C69.4,21.8,69.5,21.4,69.6,21.8z"/>
				<path class="st8" d="M69.6,35.5c1.3,0,2.4,0.4,3.1,1c0,0.1-0.1,0.1-0.2,0.1c-0.6,0-2.5,0-2.9-0.1c-0.4,0-2.5,0.1-2.7,0.1
					c-0.1,0-0.4,0-0.5-0.1C67.2,35.9,68.3,35.5,69.6,35.5z"/>
				
					<radialGradient id="SVGID_00000032611302007818994530000004022178368436329361_" cx="90.6064" cy="57.1457" r="2.2809" gradientTransform="matrix(0 -1 1 0 12.4509 126.626)" gradientUnits="userSpaceOnUse">
					<stop  offset="0" style="stop-color:#FFFF00"/>
					<stop  offset="1" style="stop-color:#FFFF00;stop-opacity:0"/>
				</radialGradient>
				
					<path style="fill-rule:evenodd;clip-rule:evenodd;fill:none;stroke:url(#SVGID_00000032611302007818994530000004022178368436329361_);stroke-width:0.15;stroke-miterlimit:10;" d="
					M72.7,36.5c-0.7-0.6-1.9-1-3.1-1s-2.4,0.4-3.1,1"/>
			</g>
		</g>
	</g>
</g>
<g>
	<g>
		
			<radialGradient id="SVGID_00000097498019737231508190000007418453748216005257_" cx="783.7904" cy="41.2736" r="80.5187" gradientUnits="userSpaceOnUse">
			<stop  offset="1.000000e-02" style="stop-color:#474846"/>
			<stop  offset="0.48" style="stop-color:#363736"/>
			<stop  offset="1" style="stop-color:#232323"/>
		</radialGradient>
		<path style="fill:url(#SVGID_00000097498019737231508190000007418453748216005257_);" d="M782.9-47c0.5,0,1,0,1.4,0
			c8.5,0.2,10.2,0.6,16.4,2.1c6.1,1.4,15.1,4.9,21.4,9.4c12.3,8.8,16.8,16.3,19.7,21.3c5.9,10,8.9,23.3,9.2,31.5
			c0.4,11.7-1.1,16.9-4.6,25.8c-4,10.2-13.3,21.1-15.1,23.2c-0.6,0.7-1.4,1.6-2.2,2.5c-2.2,2.5-5,5.6-6.7,7.8
			c-8.3,10.4-8.5,20-8.7,31.1c0,0.9,0,2.6,0,4.4c0,1.7,0,3.6,0,4.6c-0.9,0.2-2.8,0.6-6.7,1.4c-23.6,4.9-37.1,7.7-44.9,9.4
			c-4.6,1-7.2,1.5-8.6,1.8c0-1.9,0-5,0-5.7c2.1-0.5,8.9-1.9,15.5-3.3c16.6-3.5,20.4-4.3,20.8-4.4c2.1-0.7,2-2.3,2-2.6
			c-0.1-0.9-0.9-1.8-2.2-1.8c-0.1,0-0.1,0-0.2,0c-0.2,0-1.7,0-9.4,0c-8.1,0-19.2,0-24.5,0l-2,0c0-14.5-0.5-19.7-3.8-26.4
			c-3.2-6.6-5.7-9.4-9.9-14l-0.4-0.4l-0.6-0.7c-4.2-4.7-9-10-14.7-20.3c-9-16.3-10.2-34.4-3.5-53.6c5.1-14.7,16.5-27.8,30.4-35.1
			C764.3-46,776.7-47,782.9-47 M783.7,107.3c5.8,0,24.8,0,25.4,0c1-0.1,1.6-0.5,2-0.9c0.5-0.6,0.7-1.3,0.6-2.2
			c0-0.1-0.3-7.9,1.5-13.4c1.8-5.6,3.5-9.9,11.3-19.4c1.1-1.4,2.2-2.7,3.2-3.9c6.5-7.8,11.1-13.4,15.8-22.7
			c5-10.1,6.7-20.5,5.2-32.6c-1.6-13.4-6.7-25-15.1-34.6c-8.6-10.1-19.1-16.7-32-20.1c-6-1.6-12.2-2.4-18.4-2.4
			c-6.2,0-12.2,0.8-17.5,2.4c-6.5,2-14.6,4.4-25.2,13.4c-7.9,6.8-13.7,14.8-17.3,23.9c-2.3,6-5.3,15.4-4.4,28.4
			c0.8,11.2,3.9,20.2,11,31c4.3,6.6,7.3,10,10.1,13.3l0.5,0.6c2.6,2.9,6.6,7.4,9.2,12c3.2,5.6,4.8,10,5.6,14.6
			c0.4,2.2,0.8,5.7,0.7,9.8l0,0.2c0,0.5,0.2,2.3,2.5,2.5l0.1,0C758.6,107.3,758.9,107.3,783.7,107.3 M782.9-49
			c-8.3,0-20.3,1.7-32.8,8.2c-13.3,6.9-25.7,20.1-31.3,36.2c-5.1,14.8-7.6,34.7,3.7,55.2c6.1,11,11.2,16.5,15.5,21.4
			c4.3,4.9,6.8,7.5,10,14c3.2,6.5,3.6,11.5,3.6,25.8c0,1-0.1,1.8,1,1.8c1.1,0,16.9,0,27.5,0c5.3,0,9.3,0,9.5,0c0,0,0.1,0,0.1,0
			c0.5,0,0.3,0.3-0.3,0.5c-0.6,0.2-36,7.6-36.9,7.8c-0.9,0.2-0.8,0.9-0.8,1.6c0,0.7,0,6.8,0,7.6c0,0.5,0.3,0.6,0.6,0.6
			c0.1,0,0.3,0,0.5,0c1-0.2,9.4-2,54.8-11.4c7.4-1.5,7.5-1.5,7.5-1.5s0.8-0.2,0.8-1.2c0.1-1.3,0-7.6,0-9.6
			c0.2-11.3,0.5-20.2,8.3-29.9c2.4-3,6.5-7.6,8.9-10.3c2.4-2.7,11.4-13.5,15.4-23.7c3.7-9.4,5.2-14.6,4.8-26.6v0
			c-0.3-9-3.6-22.5-9.5-32.4c-3-5-7.7-13-20.3-21.9c-6.5-4.7-15.7-8.2-22.1-9.7c-6.4-1.5-8.2-1.9-16.8-2.1
			C783.9-49,783.4-49,782.9-49L782.9-49z M783.7,105.3c-12.4,0-24.8,0-25.1,0c-0.4,0-0.7,0-0.7-0.5c0-0.4,0.1-4.9-0.7-10.3
			c-0.9-5.4-2.9-10.2-5.8-15.3c-2.9-5.1-7.3-10-10-12.9s-5.6-6.4-10-13.1c-6.8-10.4-9.9-18.9-10.7-30C719.9,11,722.6,1.9,725-4.4
			c2.9-7.5,8.1-15.7,16.7-23.1c10.1-8.6,17.8-11,24.5-13.1c4.9-1.5,10.7-2.4,16.9-2.4c5.7,0,11.8,0.7,17.9,2.4
			c12.8,3.4,22.7,9.8,31,19.5c9.5,10.9,13.3,22.9,14.6,33.6c1.3,10.7,0.3,20.9-5,31.5l0,0c-5.3,10.6-10.6,16.4-18.8,26.2
			c-8.1,9.9-9.9,14.4-11.6,20c-1.8,5.6-1.6,13.7-1.5,14.1c0,0.4,0,0.9-0.7,0.9C808.6,105.3,796.1,105.3,783.7,105.3L783.7,105.3z"/>
	</g>
	<g>
		
			<radialGradient id="SVGID_00000157267579397212132770000008874921507346325383_" cx="783.5988" cy="132.9211" r="24.1102" gradientUnits="userSpaceOnUse">
			<stop  offset="1.000000e-02" style="stop-color:#474846"/>
			<stop  offset="0.48" style="stop-color:#363736"/>
			<stop  offset="1" style="stop-color:#232323"/>
		</radialGradient>
		<path style="fill:url(#SVGID_00000157267579397212132770000008874921507346325383_);" d="M813.7,123.8v5.9
			c-1.3,0.3-4.1,0.8-7.7,1.6c-14.3,2.9-45.8,9.4-52.6,10.8c0-1.8,0-4.7,0-6C758.1,135.1,804.6,125.7,813.7,123.8 M815.3,121.5
			c-0.1,0-0.2,0-0.4,0c-1,0.2-61.7,12.6-62.2,12.7v0c-0.5,0.1-1.2,0.1-1.2,1.4c0,1.4,0,7.4,0,8c0,0.5,0.1,0.8,0.7,0.8
			c0.1,0,0.2,0,0.4,0c1.1-0.2,61.6-12.7,62.4-12.8c0.8-0.2,0.7-0.7,0.7-1.3v-8.1C815.7,121.7,815.6,121.5,815.3,121.5L815.3,121.5z"
			/>
	</g>
	<g>
		
			<radialGradient id="SVGID_00000097462628199724567410000000915006685246784644_" cx="789.7877" cy="144.9346" r="19.6795" gradientUnits="userSpaceOnUse">
			<stop  offset="1.000000e-02" style="stop-color:#474846"/>
			<stop  offset="0.48" style="stop-color:#363736"/>
			<stop  offset="1" style="stop-color:#232323"/>
		</radialGradient>
		<path style="fill:url(#SVGID_00000097462628199724567410000000915006685246784644_);" d="M813.7,137.2c0,1,0,2.6,0,5l0,0.6
			c-2.4,0.5-9.2,1.9-10.1,2c-1.3,0.2-2.2,0.8-2.8,1.7c-0.1,0.2-0.5,0.8-1.4,2.5c-0.7,1.2-1.8,3.2-2.3,3.9c-0.6,0-2.3,0-6.8,0
			c-6.3,0-14.9,0-18.5,0l-1.6,0c0,0-0.1,0-0.1,0c-0.2-0.4-0.7-1.1-1.3-2.2c-0.7-1.2-1.6-2.8-2.3-4c4.5-0.9,19.8-4,45.6-9.2
			L813.7,137.2 M815.2,134.8c-0.1,0-0.1,0-0.2,0c-0.6,0.1-49.9,10.1-50.3,10.2l0,0c-0.4,0.1-1.1,0.4-0.7,1.2
			c0.4,0.8,4.4,7.6,4.6,8.1c0.3,0.5,0.9,0.7,1.7,0.7c0.5,0,12.2,0,20.1,0c4,0,7,0,7.2,0c0.7-0.1,0.8-0.3,1.1-0.6
			c0.2-0.3,3.7-6.4,3.9-6.8c0.2-0.4,0.6-0.7,1.4-0.8c0.9-0.1,10.3-2,11-2.2c0.7-0.2,0.7-0.8,0.7-1.4s0-7.4,0-7.7
			C815.7,135.1,815.6,134.8,815.2,134.8L815.2,134.8z"/>
	</g>
</g>
<g>
	<g>
		
			<radialGradient id="SVGID_00000132061570174854480820000006447806594281938073_" cx="45.2856" cy="28.3155" r="2.6367" gradientTransform="matrix(1 0 0 -1 0 142)" gradientUnits="userSpaceOnUse">
			<stop  offset="1.000000e-02" style="stop-color:#474846"/>
			<stop  offset="0.48" style="stop-color:#363736"/>
			<stop  offset="1" style="stop-color:#232323"/>
		</radialGradient>
		<path style="fill:url(#SVGID_00000132061570174854480820000006447806594281938073_);" d="M44.3,117.3v-5h2v5H44.3z M44.3,111.7
			v-1.6h2v1.6H44.3z"/>
		
			<radialGradient id="SVGID_00000124144589076840555600000008631156470685615507_" cx="50.0126" cy="28.3086" r="3.275" gradientTransform="matrix(1 0 0 -1 0 142)" gradientUnits="userSpaceOnUse">
			<stop  offset="1.000000e-02" style="stop-color:#474846"/>
			<stop  offset="0.48" style="stop-color:#363736"/>
			<stop  offset="1" style="stop-color:#232323"/>
		</radialGradient>
		<path style="fill:url(#SVGID_00000124144589076840555600000008631156470685615507_);" d="M48.2,115c0.3,0.3,0.6,0.6,0.9,0.7
			c0.3,0.2,0.6,0.2,0.9,0.2c0.3,0,0.5-0.1,0.7-0.2c0.2-0.1,0.3-0.3,0.3-0.5c0-0.2-0.1-0.4-0.2-0.6c-0.2-0.1-0.5-0.3-1-0.4
			c-0.7-0.2-1.2-0.4-1.5-0.7c-0.3-0.3-0.4-0.7-0.4-1.3c0-0.7,0.2-1.2,0.7-1.7c0.5-0.4,1.1-0.7,1.8-0.7c0.4,0,0.8,0.1,1.1,0.2
			c0.4,0.1,0.7,0.3,1,0.5l-0.6,1.4c-0.2-0.2-0.5-0.3-0.7-0.4c-0.2-0.1-0.5-0.1-0.7-0.1c-0.2,0-0.4,0.1-0.6,0.2
			c-0.1,0.1-0.2,0.3-0.2,0.4c0,0.2,0.1,0.3,0.2,0.4c0.1,0.1,0.4,0.2,0.8,0.3c0,0,0,0,0,0c0,0,0,0,0,0c0.8,0.2,1.3,0.5,1.6,0.7
			c0.2,0.2,0.3,0.4,0.4,0.6c0.1,0.2,0.1,0.5,0.1,0.8c0,0.8-0.3,1.4-0.8,1.8c-0.5,0.5-1.2,0.7-2,0.7c-0.5,0-1-0.1-1.4-0.2
			c-0.4-0.2-0.8-0.4-1.2-0.8L48.2,115L48.2,115z"/>
		
			<radialGradient id="SVGID_00000007389783787300554110000016465218046595949213_" cx="55.8426" cy="28.3155" r="3.1436" gradientTransform="matrix(1 0 0 -1 0 142)" gradientUnits="userSpaceOnUse">
			<stop  offset="1.000000e-02" style="stop-color:#474846"/>
			<stop  offset="0.48" style="stop-color:#363736"/>
			<stop  offset="1" style="stop-color:#232323"/>
		</radialGradient>
		<path style="fill:url(#SVGID_00000007389783787300554110000016465218046595949213_);" d="M54.9,117.3v-5.5h-1.6v-1.7h5.2v1.7h-1.6
			v5.5H54.9L54.9,117.3z"/>
		
			<radialGradient id="SVGID_00000167374165163515318520000015399374637544691586_" cx="62.3354" cy="28.3182" r="3.6733" gradientTransform="matrix(1 0 0 -1 0 142)" gradientUnits="userSpaceOnUse">
			<stop  offset="1.000000e-02" style="stop-color:#474846"/>
			<stop  offset="0.48" style="stop-color:#363736"/>
			<stop  offset="1" style="stop-color:#232323"/>
		</radialGradient>
		<path style="fill:url(#SVGID_00000167374165163515318520000015399374637544691586_);" d="M61.4,114.6h2l-0.7-2.4
			c0,0,0-0.2-0.1-0.4c-0.1-0.2-0.1-0.4-0.2-0.6c0,0.2-0.1,0.3-0.1,0.5c-0.1,0.2-0.1,0.3-0.1,0.5L61.4,114.6L61.4,114.6z M58.6,117.3
			l2.5-7.2h2.5l2.5,7.2h-2l-0.4-1.3h-2.8l-0.4,1.3H58.6L58.6,117.3z"/>
		
			<radialGradient id="SVGID_00000116922413387243171490000006447798522310743729_" cx="70.3375" cy="28.3155" r="3.5737" gradientTransform="matrix(1 0 0 -1 0 142)" gradientUnits="userSpaceOnUse">
			<stop  offset="1.000000e-02" style="stop-color:#474846"/>
			<stop  offset="0.48" style="stop-color:#363736"/>
			<stop  offset="1" style="stop-color:#232323"/>
		</radialGradient>
		<path style="fill:url(#SVGID_00000116922413387243171490000006447798522310743729_);" d="M66.8,117.3v-7.2h1.9l2.7,3.7
			c0.1,0.1,0.2,0.3,0.3,0.5c0.1,0.3,0.3,0.5,0.4,0.8c0-0.4-0.1-0.6-0.1-0.8c0-0.2,0-0.4,0-0.6v-3.5h1.9v7.2H72l-2.7-3.7
			c0-0.1-0.1-0.2-0.3-0.5c-0.1-0.2-0.3-0.5-0.4-0.8c0,0.3,0.1,0.5,0.1,0.8c0,0.3,0,0.5,0,0.6v3.5L66.8,117.3L66.8,117.3z"/>
		
			<radialGradient id="SVGID_00000010998171208816203970000013518132915935554971_" cx="78.304" cy="28.3113" r="3.2458" gradientTransform="matrix(1 0 0 -1 0 142)" gradientUnits="userSpaceOnUse">
			<stop  offset="1.000000e-02" style="stop-color:#474846"/>
			<stop  offset="0.48" style="stop-color:#363736"/>
			<stop  offset="1" style="stop-color:#232323"/>
		</radialGradient>
		<path style="fill:url(#SVGID_00000010998171208816203970000013518132915935554971_);" d="M77.3,113h0.4c0.5,0,0.8-0.1,1-0.2
			c0.2-0.1,0.3-0.3,0.3-0.6c0-0.3-0.1-0.5-0.3-0.6c-0.2-0.1-0.5-0.2-1-0.2h-0.4L77.3,113L77.3,113z M75.5,117.3v-7.2h2
			c0.8,0,1.4,0,1.7,0.1c0.3,0,0.6,0.1,0.8,0.3c0.3,0.2,0.5,0.3,0.6,0.6c0.1,0.2,0.2,0.5,0.2,0.9c0,0.4-0.1,0.7-0.3,1
			c-0.2,0.2-0.5,0.4-1,0.5c0.5,0,0.9,0.2,1.2,0.5c0.3,0.3,0.4,0.7,0.4,1.3c0,0.4-0.1,0.7-0.2,1c-0.2,0.3-0.4,0.5-0.7,0.7
			c-0.2,0.1-0.5,0.2-0.9,0.3c-0.4,0.1-1,0.1-1.8,0.1L75.5,117.3L75.5,117.3z M77.3,115.8H78c0.5,0,0.8-0.1,1-0.2
			c0.2-0.1,0.3-0.3,0.3-0.6c0-0.3-0.1-0.5-0.3-0.6c-0.2-0.1-0.5-0.2-1-0.2h-0.7V115.8z"/>
		
			<radialGradient id="SVGID_00000054955142949033950390000006846216204387732615_" cx="85.5377" cy="28.2208" r="3.4704" gradientTransform="matrix(1 0 0 -1 0 142)" gradientUnits="userSpaceOnUse">
			<stop  offset="1.000000e-02" style="stop-color:#474846"/>
			<stop  offset="0.48" style="stop-color:#363736"/>
			<stop  offset="1" style="stop-color:#232323"/>
		</radialGradient>
		<path style="fill:url(#SVGID_00000054955142949033950390000006846216204387732615_);" d="M82.3,110.1h2v3.5c0,0.5,0,0.9,0,1.1
			c0,0.2,0.1,0.4,0.1,0.6c0.1,0.2,0.2,0.3,0.4,0.4c0.2,0.1,0.4,0.2,0.7,0.2c0.3,0,0.5,0,0.7-0.2c0.2-0.1,0.3-0.2,0.4-0.4
			c0.1-0.1,0.1-0.3,0.1-0.6c0-0.2,0-0.6,0-1.1v-3.5h2v3.8c0,0.8,0,1.4-0.1,1.7c-0.1,0.4-0.3,0.7-0.5,1c-0.3,0.3-0.6,0.5-1,0.7
			c-0.4,0.1-0.9,0.2-1.6,0.2s-1.2-0.1-1.6-0.2c-0.4-0.1-0.8-0.4-1-0.7c-0.2-0.3-0.4-0.6-0.5-1c-0.1-0.4-0.2-1-0.2-1.7L82.3,110.1
			L82.3,110.1z"/>
		
			<radialGradient id="SVGID_00000096765294378617679330000015892969183926261138_" cx="92.5149" cy="28.3155" r="2.987" gradientTransform="matrix(1 0 0 -1 0 142)" gradientUnits="userSpaceOnUse">
			<stop  offset="1.000000e-02" style="stop-color:#474846"/>
			<stop  offset="0.48" style="stop-color:#363736"/>
			<stop  offset="1" style="stop-color:#232323"/>
		</radialGradient>
		<path style="fill:url(#SVGID_00000096765294378617679330000015892969183926261138_);" d="M90.3,117.3v-7.2h2v5.5h2.5v1.7H90.3
			L90.3,117.3z"/>
	</g>
	<g>
		
			<radialGradient id="SVGID_00000167374561496210811880000005684355439898028939_" cx="47.6525" cy="38.7927" r="4.1542" gradientTransform="matrix(1 0 0 -1 0 142)" gradientUnits="userSpaceOnUse">
			<stop  offset="1.000000e-02" style="stop-color:#474846"/>
			<stop  offset="0.48" style="stop-color:#363736"/>
			<stop  offset="1" style="stop-color:#232323"/>
		</radialGradient>
		<path style="fill-rule:evenodd;clip-rule:evenodd;fill:url(#SVGID_00000167374561496210811880000005684355439898028939_);" d="
			M48.7,99c0-0.1-0.1-0.1-0.2-0.1h-1.6c-0.1,0-0.2,0-0.3,0.1c0,0.1-2.9,8.3-3,8.4s0,0.1,0.1,0.1h1.8c0.1,0,0.2-0.1,0.2-0.2
			c0-0.1,0.4-1.4,0.4-1.4c0,0,0.1-0.1,0.2-0.1H49c0.1,0,0.1,0.1,0.1,0.2c0,0.1,0.4,1.3,0.5,1.4c0,0.1,0.1,0.1,0.2,0.1h1.8
			c0.1,0,0.1,0,0.1-0.2C51.6,107.3,48.8,99.2,48.7,99L48.7,99z M48.5,104.2h-1.6c-0.1,0-0.2,0-0.1-0.1c0-0.1,0.8-2.7,0.8-2.8
			c0-0.1,0-0.2,0.1-0.2c0.1,0,0.1,0.1,0.1,0.2c0,0.1,0.7,2.5,0.7,2.6C48.6,104.1,48.6,104.2,48.5,104.2L48.5,104.2z"/>
		
			<radialGradient id="SVGID_00000024700062014122714490000002497458915947973026_" cx="55.9393" cy="38.8101" r="3.9824" gradientTransform="matrix(1 0 0 -1 0 142)" gradientUnits="userSpaceOnUse">
			<stop  offset="1.000000e-02" style="stop-color:#474846"/>
			<stop  offset="0.48" style="stop-color:#363736"/>
			<stop  offset="1" style="stop-color:#232323"/>
		</radialGradient>
		<path style="fill-rule:evenodd;clip-rule:evenodd;fill:url(#SVGID_00000024700062014122714490000002497458915947973026_);" d="
			M59.4,98.9c-0.1,0-1.7,0-1.9,0c-0.1,0-0.3,0-0.4,0.1c-0.1,0.1-2.7,3.8-2.8,3.9c-0.1,0.1-0.1,0-0.1-0.1s0-3.8,0-3.8
			c0-0.1,0-0.2-0.2-0.2s-1.5,0-1.6,0c-0.1,0-0.2,0-0.2,0.1c0,0.1,0,8.4,0,8.4c0,0.1,0.1,0.1,0.2,0.1c0.1,0,1.6,0,1.7,0
			c0.1,0,0.1-0.1,0.1-0.2c0-0.1,0-3.8,0-3.9c0,0,0.1-0.1,0.1,0c0.1,0.1,2.5,3.8,2.6,3.9c0.1,0.1,0.1,0.1,0.3,0.1h2.1
			c0.1,0,0.1-0.1,0-0.2c0-0.1-2.6-4-2.7-4.1c-0.1-0.1-0.1-0.2,0-0.3c0.1-0.2,2.7-3.8,2.8-3.9C59.6,98.9,59.6,98.9,59.4,98.9
			L59.4,98.9z"/>
		
			<radialGradient id="SVGID_00000109742003353058596020000003231434890734389683_" cx="67.4957" cy="38.793" r="3.8005" gradientTransform="matrix(1 0 0 -1 0 142)" gradientUnits="userSpaceOnUse">
			<stop  offset="1.000000e-02" style="stop-color:#474846"/>
			<stop  offset="0.48" style="stop-color:#363736"/>
			<stop  offset="1" style="stop-color:#232323"/>
		</radialGradient>
		<path style="fill-rule:evenodd;clip-rule:evenodd;fill:url(#SVGID_00000109742003353058596020000003231434890734389683_);" d="
			M70.7,101.9c0.1-1.1-0.2-1.6-0.4-1.8c-0.1-0.2-0.7-1-1.8-1.1c-0.3,0-1-0.1-1.5-0.1h-2.4c-0.1,0-0.3,0-0.3,0.2v8.2
			c0,0.1,0,0.2,0.2,0.2c0.1,0,1.6,0,1.7,0s0.2-0.1,0.2-0.2c0-0.1,0-2.8,0-2.9c0-0.1,0-0.1,0.2-0.1h0.9c0.1,0,1.2-0.1,1.9-0.4
			C69.9,103.7,70.6,103,70.7,101.9L70.7,101.9z M68.7,102.1c-0.3,0.6-1,0.5-1.2,0.5h-1.1c0,0-0.1,0-0.1-0.1v-1.8c0,0,0-0.1,0.1-0.1
			s0.9,0,1.3,0c0.4,0,0.6,0.1,0.8,0.3S68.9,101.6,68.7,102.1L68.7,102.1z"/>
		
			<radialGradient id="SVGID_00000080185591831383141840000008411509189995084162_" cx="73.6388" cy="38.7901" r="4.157" gradientTransform="matrix(1 0 0 -1 0 142)" gradientUnits="userSpaceOnUse">
			<stop  offset="1.000000e-02" style="stop-color:#474846"/>
			<stop  offset="0.48" style="stop-color:#363736"/>
			<stop  offset="1" style="stop-color:#232323"/>
		</radialGradient>
		<path style="fill-rule:evenodd;clip-rule:evenodd;fill:url(#SVGID_00000080185591831383141840000008411509189995084162_);" d="
			M74.7,99c-0.1-0.2-0.1-0.1-0.3-0.1s-1.6,0-1.7,0s-0.1,0-0.2,0.1c0,0.1-2.9,8.2-2.9,8.3c-0.1,0.2,0,0.2,0.1,0.2s1.7,0,1.8,0
			c0.1,0,0.2-0.1,0.2-0.2s0.4-1.3,0.4-1.4c0-0.1,0.1-0.1,0.2-0.1h2.5c0.1,0,0.2,0,0.2,0.1c0,0.1,0.4,1.4,0.5,1.5s0.1,0.1,0.3,0.1
			c0.2,0,1.6,0,1.7,0c0.1,0,0.1-0.1,0.1-0.2C77.6,107.3,74.8,99.2,74.7,99L74.7,99z M74.4,104.2h-1.5c0,0-0.2,0-0.1-0.1
			c0-0.1,0.8-2.7,0.8-2.8c0-0.2,0.1-0.1,0.1,0c0,0.1,0.8,2.6,0.8,2.7C74.6,104.2,74.5,104.2,74.4,104.2z"/>
		
			<radialGradient id="SVGID_00000109020072885268391800000010656645135666775961_" cx="81.615" cy="38.7902" r="3.832" gradientTransform="matrix(1 0 0 -1 0 142)" gradientUnits="userSpaceOnUse">
			<stop  offset="1.000000e-02" style="stop-color:#474846"/>
			<stop  offset="0.48" style="stop-color:#363736"/>
			<stop  offset="1" style="stop-color:#232323"/>
		</radialGradient>
		<path style="fill-rule:evenodd;clip-rule:evenodd;fill:url(#SVGID_00000109020072885268391800000010656645135666775961_);" d="
			M83.5,104.2c-0.1-0.2,0-0.2,0.1-0.3c0.1-0.1,1.1-0.9,1.2-1.9c0.1-1.1-0.3-2.1-1.2-2.6c-0.8-0.5-2.6-0.4-2.9-0.4h-2.2
			c-0.1,0-0.2,0-0.2,0.2v8.3c0,0.1,0.1,0.1,0.1,0.1h1.7c0.1,0,0.2,0,0.2-0.2v-2.9c0-0.1,0-0.1,0.1-0.1h1c0.1,0,0.1,0,0.2,0.1
			c0,0.1,1.2,2.9,1.2,3c0,0.1,0.1,0.1,0.2,0.1c0.1,0,1.7,0,1.7,0c0.1,0,0.1,0,0.1-0.2S83.5,104.3,83.5,104.2L83.5,104.2z
			 M82.6,102.3c-0.3,0.3-0.8,0.3-1,0.3h-1.2c-0.1,0-0.1,0-0.1-0.1v-1.7c0-0.1,0-0.1,0.1-0.1h1c0.6,0,0.9,0,1.2,0.3
			S82.9,101.9,82.6,102.3L82.6,102.3z"/>
		
			<radialGradient id="SVGID_00000165230741272009837750000008166371399563770752_" cx="88.4876" cy="38.7927" r="3.7928" gradientTransform="matrix(1 0 0 -1 0 142)" gradientUnits="userSpaceOnUse">
			<stop  offset="1.000000e-02" style="stop-color:#474846"/>
			<stop  offset="0.48" style="stop-color:#363736"/>
			<stop  offset="1" style="stop-color:#232323"/>
		</radialGradient>
		<path style="fill-rule:evenodd;clip-rule:evenodd;fill:url(#SVGID_00000165230741272009837750000008166371399563770752_);" d="
			M91.5,98.9h-6.1c-0.1,0-0.2,0-0.2,0.2c0,0.1,0,1.4,0,1.5c0,0.1,0.1,0.1,0.2,0.1h1.9c0.1,0,0.1,0,0.1,0.1c0,0.1,0,6.5,0,6.6
			s0.1,0.1,0.2,0.1c0.1,0,1.6,0,1.6,0c0.1,0,0.1,0,0.1-0.2v-6.6c0-0.1,0-0.1,0.1-0.1h1.9c0.1,0,0.2-0.1,0.2-0.2v-1.4
			C91.7,99,91.6,98.9,91.5,98.9L91.5,98.9z"/>
		
			<radialGradient id="SVGID_00000083055544861778978120000003383716222417475775_" cx="93.2146" cy="42.2574" r="0.8954" gradientTransform="matrix(1 0 0 -1 0 142)" gradientUnits="userSpaceOnUse">
			<stop  offset="1.000000e-02" style="stop-color:#474846"/>
			<stop  offset="0.48" style="stop-color:#363736"/>
			<stop  offset="1" style="stop-color:#232323"/>
		</radialGradient>
		<path style="fill-rule:evenodd;clip-rule:evenodd;fill:url(#SVGID_00000083055544861778978120000003383716222417475775_);" d="
			M94,98.9h-1.5c-0.1,0-0.2,0-0.2,0.1v1.5c0,0,0,0.1,0.1,0.1H94c0.1,0,0.1-0.1,0.1-0.2V99C94.1,98.9,94.1,98.9,94,98.9L94,98.9z"/>
		
			<radialGradient id="SVGID_00000078739527277771587900000006417068647438887073_" cx="93.2145" cy="37.6031" r="2.303" gradientTransform="matrix(1 0 0 -1 0 142)" gradientUnits="userSpaceOnUse">
			<stop  offset="1.000000e-02" style="stop-color:#474846"/>
			<stop  offset="0.48" style="stop-color:#363736"/>
			<stop  offset="1" style="stop-color:#232323"/>
		</radialGradient>
		<path style="fill-rule:evenodd;clip-rule:evenodd;fill:url(#SVGID_00000078739527277771587900000006417068647438887073_);" d="
			M94,101.3c-0.1,0-1.5,0-1.5,0s-0.2,0-0.2,0.1c0,0.1,0,5.9,0,6s0,0.1,0.1,0.1H94c0.1,0,0.1-0.1,0.1-0.2v-5.9
			C94.1,101.3,94.1,101.3,94,101.3L94,101.3z"/>
	</g>
</g>
<g>
	<g>
		<g>
			
				<linearGradient id="SVGID_00000047050686902708899140000017157407766627270057_" gradientUnits="userSpaceOnUse" x1="44.2854" y1="113.6845" x2="46.2859" y2="113.6845">
				<stop  offset="3.847671e-03" style="stop-color:#000000"/>
				<stop  offset="1" style="stop-color:#FFFFFF;stop-opacity:0.2"/>
			</linearGradient>
			<path style="fill:url(#SVGID_00000047050686902708899140000017157407766627270057_);" d="M46.1,110.3v1.2h-1.6v-1.2H46.1
				 M46.1,112.5v4.6h-1.6v-4.6H46.1 M46.3,110.1h-2v1.6h2V110.1L46.3,110.1z M46.3,112.3h-2v5h2V112.3L46.3,112.3z"/>
		</g>
		<g>
			
				<linearGradient id="SVGID_00000119805735349206158460000003702092123178818691_" gradientUnits="userSpaceOnUse" x1="47.3287" y1="113.6914" x2="52.6964" y2="113.6914">
				<stop  offset="3.847671e-03" style="stop-color:#000000"/>
				<stop  offset="1" style="stop-color:#FFFFFF;stop-opacity:0.2"/>
			</linearGradient>
			<path style="fill:url(#SVGID_00000119805735349206158460000003702092123178818691_);" d="M50.2,110.1c0.4,0,0.8,0.1,1.1,0.2
				c0.3,0.1,0.6,0.2,0.8,0.4l-0.4,1c-0.2-0.1-0.4-0.2-0.5-0.3c-0.3-0.1-0.5-0.2-0.8-0.2c-0.3,0-0.5,0.1-0.7,0.2
				c-0.2,0.1-0.3,0.3-0.3,0.6c0,0.2,0.1,0.4,0.3,0.6c0.2,0.1,0.4,0.2,0.8,0.3c0,0,0.1,0,0.1,0c1,0.3,1.3,0.5,1.5,0.7
				c0.1,0.1,0.3,0.3,0.3,0.6c0.1,0.2,0.1,0.5,0.1,0.8c0,0.7-0.2,1.3-0.7,1.7c-0.5,0.4-1.1,0.6-1.9,0.6c-0.5,0-0.9-0.1-1.3-0.2
				c-0.3-0.1-0.7-0.4-1-0.7l0.7-1.1c0.3,0.3,0.5,0.4,0.7,0.6c0.3,0.2,0.6,0.3,1,0.3c0.3,0,0.6-0.1,0.8-0.3c0.2-0.2,0.3-0.4,0.3-0.7
				c0-0.3-0.1-0.5-0.3-0.7c-0.2-0.1-0.5-0.3-1.1-0.4c-0.7-0.2-1.1-0.4-1.4-0.7c-0.3-0.3-0.4-0.6-0.4-1.1c0-0.6,0.2-1.1,0.6-1.5
				C48.9,110.3,49.5,110.1,50.2,110.1 M50.2,109.9c-0.7,0-1.3,0.2-1.8,0.7c-0.5,0.4-0.7,1-0.7,1.7c0,0.5,0.1,0.9,0.4,1.3
				c0.3,0.3,0.8,0.5,1.5,0.7c0.5,0.1,0.9,0.3,1,0.4c0.1,0.1,0.2,0.3,0.2,0.6c0,0.2-0.1,0.4-0.3,0.5c-0.2,0.1-0.4,0.2-0.7,0.2
				c-0.3,0-0.6-0.1-0.9-0.2c-0.3-0.2-0.6-0.4-0.9-0.7l-0.9,1.5c0.4,0.4,0.8,0.6,1.2,0.8c0.4,0.2,0.9,0.2,1.4,0.2
				c0.8,0,1.5-0.2,2-0.7c0.5-0.5,0.8-1.1,0.8-1.8c0-0.3,0-0.6-0.1-0.8c-0.1-0.3-0.2-0.5-0.4-0.6c-0.3-0.3-0.8-0.5-1.6-0.7
				c0,0,0,0,0,0c0,0,0,0,0,0c-0.4-0.1-0.6-0.2-0.8-0.3c-0.1-0.1-0.2-0.3-0.2-0.4c0-0.2,0.1-0.3,0.2-0.4c0.2-0.1,0.4-0.2,0.6-0.2
				c0.2,0,0.5,0,0.7,0.1c0.2,0.1,0.5,0.2,0.7,0.4l0.6-1.4c-0.3-0.2-0.7-0.4-1-0.5C51,110,50.6,109.9,50.2,109.9L50.2,109.9z
				 M48.2,115C48.2,115,48.2,115,48.2,115L48.2,115L48.2,115L48.2,115z"/>
		</g>
		<g>
			
				<linearGradient id="SVGID_00000106867157458026081090000014929126644699414925_" gradientUnits="userSpaceOnUse" x1="53.2233" y1="113.6845" x2="58.462" y2="113.6845">
				<stop  offset="3.847671e-03" style="stop-color:#000000"/>
				<stop  offset="1" style="stop-color:#FFFFFF;stop-opacity:0.2"/>
			</linearGradient>
			<path style="fill:url(#SVGID_00000106867157458026081090000014929126644699414925_);" d="M58.3,110.3v1.3h-1.4
				c-0.1,0-0.2,0.1-0.2,0.2v5.3h-1.6v-5.3c0-0.1-0.1-0.2-0.2-0.2h-1.4v-1.3H58.3 M58.5,110.1h-5.2v1.7h1.6v5.5h0h2v-5.5h1.6V110.1
				L58.5,110.1z"/>
		</g>
		<g>
			
				<linearGradient id="SVGID_00000063591020822801176650000008922106373575921068_" gradientUnits="userSpaceOnUse" x1="58.5827" y1="113.6818" x2="66.0881" y2="113.6818">
				<stop  offset="3.847671e-03" style="stop-color:#000000"/>
				<stop  offset="1" style="stop-color:#FFFFFF;stop-opacity:0.2"/>
			</linearGradient>
			<path style="fill:url(#SVGID_00000063591020822801176650000008922106373575921068_);" d="M63.4,110.3l2.4,6.8h-1.5l-0.3-1.1
				c0-0.1-0.1-0.1-0.2-0.1h-2.8c-0.1,0-0.2,0.1-0.2,0.1l-0.3,1.1h-1.5l2.4-6.8H63.4 M61.4,114.8h2c0.1,0,0.1,0,0.2-0.1
				c0-0.1,0-0.1,0-0.2l-0.7-2.4c0,0,0-0.1-0.1-0.3c-0.1-0.2-0.1-0.4-0.2-0.6c0-0.1-0.1-0.1-0.2-0.2c0,0,0,0,0,0
				c-0.1,0-0.2,0.1-0.2,0.1c0,0.2-0.1,0.3-0.1,0.5c-0.1,0.2-0.1,0.3-0.1,0.5l-0.7,2.4c0,0,0,0,0,0.1v0
				C61.2,114.7,61.2,114.8,61.4,114.8 M63.6,110.1h-2.5l-2.5,7.2h0h2l0.4-1.3h2.8l0.4,1.3h2L63.6,110.1L63.6,110.1z M61.4,114.6
				L61.4,114.6l0.7-2.4c0-0.1,0.1-0.3,0.1-0.5c0-0.2,0.1-0.3,0.1-0.5c0,0.2,0.1,0.4,0.2,0.6c0,0.2,0.1,0.3,0.1,0.4l0.7,2.4H61.4
				L61.4,114.6z"/>
		</g>
		<g>
			
				<linearGradient id="SVGID_00000058555562429624517160000009059999015698426540_" gradientUnits="userSpaceOnUse" x1="66.7824" y1="113.6846" x2="73.8927" y2="113.6846">
				<stop  offset="3.847671e-03" style="stop-color:#000000"/>
				<stop  offset="1" style="stop-color:#FFFFFF;stop-opacity:0.2"/>
			</linearGradient>
			<path style="fill:url(#SVGID_00000058555562429624517160000009059999015698426540_);" d="M73.7,110.3v6.8h-1.6l-2.7-3.6
				c0,0-0.1-0.1-0.3-0.4c-0.1-0.2-0.3-0.5-0.4-0.8c0-0.1-0.1-0.1-0.2-0.1c0,0,0,0-0.1,0c-0.1,0-0.2,0.1-0.1,0.2
				c0,0.3,0.1,0.5,0.1,0.8c0,0.3,0,0.5,0,0.6v3.3H67v-6.8h1.6l2.7,3.6c0.1,0.1,0.1,0.2,0.3,0.4c0.1,0.3,0.3,0.5,0.4,0.8
				c0,0.1,0.1,0.1,0.2,0.1c0,0,0,0,0.1,0c0.1,0,0.2-0.1,0.1-0.2c0-0.4-0.1-0.6-0.1-0.8c0-0.2,0-0.4,0-0.6v-3.3H73.7 M73.9,110.1H72
				v3.5c0,0.2,0,0.4,0,0.6c0,0.2,0,0.4,0.1,0.8c-0.1-0.3-0.3-0.5-0.4-0.8c-0.1-0.2-0.2-0.4-0.3-0.5l-2.7-3.7h-1.9v7.2l0,0h1.9v-3.5
				c0-0.1,0-0.3,0-0.6c0-0.3-0.1-0.5-0.1-0.8c0.1,0.3,0.3,0.6,0.4,0.8c0.1,0.3,0.2,0.4,0.3,0.5l2.7,3.7h1.9V110.1L73.9,110.1z"/>
		</g>
		<g>
			
				<linearGradient id="SVGID_00000078022333272942825600000017251208665348554372_" gradientUnits="userSpaceOnUse" x1="75.4514" y1="113.6887" x2="81.1566" y2="113.6887">
				<stop  offset="3.847671e-03" style="stop-color:#000000"/>
				<stop  offset="1" style="stop-color:#FFFFFF;stop-opacity:0.2"/>
			</linearGradient>
			<path style="fill:url(#SVGID_00000078022333272942825600000017251208665348554372_);" d="M77.4,110.3c0.8,0,1.4,0,1.7,0.1
				c0.3,0,0.6,0.1,0.8,0.2c0.2,0.1,0.4,0.3,0.5,0.5c0.1,0.2,0.2,0.5,0.2,0.8c0,0.4-0.1,0.6-0.3,0.8c-0.2,0.2-0.5,0.4-0.9,0.5
				c-0.1,0-0.2,0.1-0.1,0.2c0,0.1,0.1,0.2,0.2,0.2c0.5,0,0.8,0.2,1.1,0.5c0.3,0.3,0.4,0.7,0.4,1.2c0,0.3-0.1,0.7-0.2,0.9
				c-0.1,0.3-0.3,0.5-0.6,0.6c-0.2,0.1-0.5,0.2-0.8,0.3c-0.4,0.1-1,0.1-1.8,0.1h-1.8v-6.8H77.4 M77.3,113.2h0.4
				c0.5,0,0.9-0.1,1.1-0.2c0.2-0.1,0.4-0.3,0.4-0.7c0-0.4-0.2-0.6-0.3-0.7c-0.2-0.1-0.6-0.2-1.1-0.2h-0.4c-0.1,0-0.2,0.1-0.2,0.2
				v1.5C77.1,113.1,77.2,113.2,77.3,113.2 M77.3,116H78c0.5,0,0.9-0.1,1.1-0.2c0.2-0.1,0.4-0.3,0.4-0.7c0-0.4-0.1-0.6-0.4-0.8
				c-0.2-0.1-0.6-0.2-1.1-0.2h-0.7c-0.1,0-0.2,0.1-0.2,0.2v1.6C77.1,115.9,77.2,116,77.3,116 M77.4,110.1h-2v7.2l0,0h2
				c0.8,0,1.4,0,1.8-0.1c0.4-0.1,0.7-0.2,0.9-0.3c0.3-0.2,0.5-0.4,0.7-0.7c0.2-0.3,0.2-0.6,0.2-1c0-0.5-0.1-1-0.4-1.3
				c-0.3-0.3-0.7-0.5-1.2-0.5c0.5-0.1,0.8-0.3,1-0.5c0.2-0.2,0.3-0.6,0.3-1c0-0.3-0.1-0.6-0.2-0.9c-0.1-0.2-0.3-0.4-0.6-0.6
				c-0.2-0.1-0.5-0.2-0.8-0.3C78.8,110.1,78.2,110.1,77.4,110.1L77.4,110.1z M77.3,113v-1.5h0.4c0.5,0,0.8,0.1,1,0.2
				c0.2,0.1,0.3,0.3,0.3,0.6c0,0.3-0.1,0.4-0.3,0.6c-0.2,0.1-0.5,0.2-1,0.2H77.3L77.3,113L77.3,113z M77.3,115.8v-1.6H78
				c0.5,0,0.8,0.1,1,0.2c0.2,0.1,0.3,0.3,0.3,0.6c0,0.3-0.1,0.5-0.3,0.6c-0.2,0.1-0.5,0.2-1,0.2H77.3L77.3,115.8z"/>
		</g>
		<g>
			
				<linearGradient id="SVGID_00000165211662591148624270000004796841523271486349_" gradientUnits="userSpaceOnUse" x1="82.2982" y1="113.7792" x2="88.7773" y2="113.7792">
				<stop  offset="3.847671e-03" style="stop-color:#000000"/>
				<stop  offset="1" style="stop-color:#FFFFFF;stop-opacity:0.2"/>
			</linearGradient>
			<path style="fill:url(#SVGID_00000165211662591148624270000004796841523271486349_);" d="M88.6,110.3v3.6c0,0.8,0,1.3-0.1,1.7
				c-0.1,0.3-0.2,0.6-0.4,0.9c-0.2,0.3-0.6,0.5-0.9,0.6c-0.4,0.1-0.9,0.2-1.5,0.2c-0.6,0-1.1-0.1-1.5-0.2c-0.4-0.1-0.7-0.3-0.9-0.6
				c-0.2-0.2-0.4-0.5-0.4-0.9c-0.1-0.4-0.1-0.9-0.1-1.7v-3.6h1.6v3.3c0,0.5,0,0.9,0,1.1c0,0.3,0.1,0.5,0.1,0.6
				c0.1,0.2,0.3,0.4,0.5,0.5c0.2,0.1,0.5,0.2,0.8,0.2c0.3,0,0.6-0.1,0.8-0.2c0.2-0.1,0.4-0.3,0.5-0.5c0.1-0.1,0.1-0.4,0.1-0.6
				c0-0.2,0-0.6,0-1.1v-3.3H88.6 M88.8,110.1h-2v3.5c0,0.5,0,0.9,0,1.1c0,0.2-0.1,0.4-0.1,0.6c-0.1,0.2-0.2,0.3-0.4,0.4
				c-0.2,0.1-0.4,0.2-0.7,0.2c-0.3,0-0.5,0-0.7-0.2c-0.2-0.1-0.3-0.2-0.4-0.4c-0.1-0.1-0.1-0.3-0.1-0.6c0-0.2,0-0.6,0-1.1v-3.5h-2h0
				v3.8c0,0.8,0.1,1.4,0.2,1.7c0.1,0.4,0.3,0.7,0.5,1c0.3,0.3,0.6,0.5,1,0.7c0.4,0.1,1,0.2,1.6,0.2c0.6,0,1.2-0.1,1.6-0.2
				c0.4-0.1,0.8-0.4,1-0.7c0.2-0.3,0.4-0.6,0.5-1c0.1-0.4,0.1-1,0.1-1.7V110.1L88.8,110.1z"/>
		</g>
		<g>
			
				<linearGradient id="SVGID_00000016781530866502692530000003510131015029218482_" gradientUnits="userSpaceOnUse" x1="90.2921" y1="113.6845" x2="94.7377" y2="113.6845">
				<stop  offset="3.847671e-03" style="stop-color:#000000"/>
				<stop  offset="1" style="stop-color:#FFFFFF;stop-opacity:0.2"/>
			</linearGradient>
			<path style="fill:url(#SVGID_00000016781530866502692530000003510131015029218482_);" d="M92.1,110.3v5.3c0,0.1,0.1,0.2,0.2,0.2
				h2.3v1.3h-4v-6.8H92.1 M92.3,110.1h-2v7.2h0h4.4v-1.7h-2.5V110.1L92.3,110.1z"/>
		</g>
	</g>
	<g>
		<g>
			
				<linearGradient id="SVGID_00000178165531914764511750000009858706778734456506_" gradientUnits="userSpaceOnUse" x1="43.6671" y1="103.2073" x2="51.6378" y2="103.2073">
				<stop  offset="3.847671e-03" style="stop-color:#000000"/>
				<stop  offset="1" style="stop-color:#FFFFFF;stop-opacity:0.2"/>
			</linearGradient>
			<path style="fill:url(#SVGID_00000178165531914764511750000009858706778734456506_);" d="M46.8,99.1L46.8,99.1L46.8,99.1
				 M46.8,99.1C46.8,99.1,46.8,99.1,46.8,99.1C46.8,99.1,46.8,99.1,46.8,99.1L46.8,99.1l1.7,0c0,0,0,0,0,0c0.2,0.5,2.5,7.3,2.9,8.2
				l-1.6,0c0-0.1-0.2-0.6-0.3-1c-0.1-0.2-0.1-0.4-0.1-0.4c0-0.1-0.1-0.3-0.3-0.3h-2.6c-0.1,0-0.3,0-0.4,0.2c0,0,0,0.1-0.2,0.8
				c-0.1,0.3-0.2,0.6-0.2,0.6c0,0.1,0,0.1,0,0.1l-1.7,0c0.2-0.5,0.8-2.3,2.6-7.3L46.8,99.1 M46.8,104.4L46.8,104.4l1.7,0
				c0,0,0.1,0,0.1,0c0,0,0.1,0,0.1-0.1c0.1-0.1,0.1-0.2,0-0.4c0,0-0.1-0.3-0.2-0.7c-0.2-0.7-0.5-1.8-0.5-1.9c0-0.1-0.1-0.4-0.3-0.4
				c-0.2,0-0.3,0.2-0.3,0.3c0,0.1-0.8,2.6-0.8,2.7c0,0.1,0,0.2,0,0.2C46.6,104.4,46.7,104.4,46.8,104.4 M48.6,98.9
				C48.6,98.9,48.6,98.9,48.6,98.9l-1.7,0c0,0,0,0-0.1,0c-0.1,0-0.2,0-0.2,0.1c0,0.1-2.9,8.3-3,8.4c0,0.1,0,0.1,0.1,0.1h1.8
				c0.1,0,0.2-0.1,0.2-0.2c0-0.1,0.4-1.4,0.4-1.4c0,0,0.1-0.1,0.2-0.1H49c0.1,0,0.1,0.1,0.1,0.2c0,0.1,0.4,1.3,0.5,1.4
				c0,0.1,0.1,0.1,0.2,0.1h1.8c0.1,0,0.1,0,0.1-0.2c0-0.1-2.8-8.2-2.9-8.4h0C48.7,98.9,48.6,98.9,48.6,98.9L48.6,98.9z M46.8,104.2
				C46.8,104.2,46.7,104.2,46.8,104.2c0-0.2,0.7-2.8,0.7-2.8c0-0.1,0-0.2,0.1-0.2c0,0,0,0,0,0c0.1,0,0.1,0.1,0.1,0.2
				c0,0.1,0.7,2.5,0.7,2.6c0,0.1,0,0.2,0,0.2l0,0L46.8,104.2C46.9,104.2,46.8,104.2,46.8,104.2L46.8,104.2z"/>
		</g>
		<g>
			
				<linearGradient id="SVGID_00000096758883618095572100000000771842536044316830_" gradientUnits="userSpaceOnUse" x1="52.3432" y1="103.1899" x2="59.5355" y2="103.1899">
				<stop  offset="3.847671e-03" style="stop-color:#000000"/>
				<stop  offset="1" style="stop-color:#FFFFFF;stop-opacity:0.2"/>
			</linearGradient>
			<path style="fill:url(#SVGID_00000096758883618095572100000000771842536044316830_);" d="M52.5,99L52.5,99L52.5,99 M53,99.1
				c0.3,0,0.7,0,1,0l0.2,0l0,0.1c0,3.1,0,3.6,0,3.7c0,0.1,0,0.2,0.1,0.2c0,0,0.1,0.1,0.2,0.1c0.1,0,0.2,0,0.2-0.1
				c0,0,0.5-0.7,2.5-3.5l0.3-0.4c0,0,0.1,0,0.2,0l0.2,0l1.1,0c0.1,0,0.2,0,0.3,0c-0.2,0.3-0.8,1.2-1.9,2.6c-0.4,0.6-0.8,1.1-0.8,1.1
				c-0.1,0.2-0.2,0.3,0,0.6c0.1,0.1,2.1,3.2,2.6,4h-1.8c0,0-0.1,0-0.1,0c0,0,0,0,0,0c0,0,0,0,0,0c0,0-0.5-0.8-1-1.5
				c-1.1-1.7-1.5-2.3-1.6-2.4c-0.1-0.1-0.2-0.1-0.2-0.1c-0.1,0-0.2,0.1-0.3,0.2c0,0.1,0,3.6,0,3.9l0,0l-1.1,0c-0.2,0-0.3,0-0.4,0
				c0-0.3,0-1,0-3c0-2.1,0-4.8,0-5.2c0,0,0,0,0,0C52.6,99.1,52.8,99.1,53,99.1 M53,98.9c-0.2,0-0.4,0-0.4,0c-0.1,0-0.2,0-0.2,0.1
				c0,0.1,0,8.4,0,8.4c0,0.1,0.1,0.1,0.1,0.1c0,0,0,0,0,0c0,0,0.2,0,0.5,0c0.5,0,1.2,0,1.2,0c0.1,0,0.1-0.1,0.1-0.2
				c0-0.1,0-3.8,0-3.9c0,0,0-0.1,0.1-0.1c0,0,0,0,0.1,0.1c0.1,0.1,2.5,3.8,2.6,3.9c0.1,0.1,0.1,0.1,0.3,0.1h2.1c0.1,0,0.1-0.1,0-0.2
				c0-0.1-2.6-4-2.7-4.1c-0.1-0.1-0.1-0.2,0-0.3c0.1-0.2,2.7-3.8,2.8-3.9c0.1-0.1,0.1-0.2,0-0.2l0,0c0,0-0.2,0-0.5,0
				c-0.5,0-1.3,0-1.3,0c-0.1,0-0.3,0-0.4,0.1c-0.1,0.1-2.7,3.8-2.8,3.9c0,0,0,0-0.1,0c0,0-0.1,0-0.1-0.1c0-0.1,0-3.8,0-3.8
				c0-0.1,0-0.2-0.2-0.2C54.1,98.9,53.4,98.9,53,98.9L53,98.9z"/>
		</g>
		<g>
			
				<linearGradient id="SVGID_00000146498970377533381130000015073050327668952725_" gradientUnits="userSpaceOnUse" x1="64.2934" y1="103.207" x2="70.698" y2="103.207">
				<stop  offset="3.847671e-03" style="stop-color:#000000"/>
				<stop  offset="1" style="stop-color:#FFFFFF;stop-opacity:0.2"/>
			</linearGradient>
			<path style="fill:url(#SVGID_00000146498970377533381130000015073050327668952725_);" d="M64.6,99.1L64.6,99.1l2.5,0
				c0.4,0,1.1,0.1,1.4,0.1c1.1,0.1,1.6,1,1.6,1l0,0c0.1,0.2,0.4,0.7,0.3,1.6c0,0,0,0,0,0.1c-0.1,1.3-1,1.8-1.3,1.9
				c-0.6,0.3-1.6,0.3-1.8,0.3h-0.9c-0.2,0-0.4,0-0.4,0.3l0,0.1c0,2.1,0,2.7,0,2.7l-0.1,0l-1.1,0c-0.2,0-0.4,0-0.4,0l0-8.2
				C64.5,99.1,64.5,99.1,64.6,99.1 M66.3,102.8h1.1l0.1,0l0.1,0c0.2,0,1,0,1.3-0.6c0,0,0,0,0,0c0.3-0.6,0-1.2-0.3-1.4
				c-0.3-0.3-0.5-0.3-0.9-0.3c-0.1,0-0.3,0-0.5,0l-0.7,0l-0.1,0c-0.2,0-0.3,0.1-0.3,0.3v1.8C66.1,102.7,66.2,102.8,66.3,102.8
				 M68.9,102.1L68.9,102.1L68.9,102.1 M64.6,98.9c-0.1,0-0.3,0-0.3,0.2v8.2c0,0.1,0,0.2,0.2,0.2c0,0,0.2,0,0.5,0c0.5,0,1.1,0,1.2,0
				c0.1,0,0.2-0.1,0.2-0.2c0-0.1,0-2.8,0-2.9c0-0.1,0-0.1,0.2-0.1h0.9c0.1,0,1.2-0.1,1.9-0.4c0.7-0.3,1.3-1,1.4-2.1l0,0
				c0.1-1.1-0.2-1.6-0.4-1.8c-0.1-0.2-0.7-1-1.8-1.1c-0.3,0-1-0.1-1.5-0.1L64.6,98.9C64.6,98.9,64.6,98.9,64.6,98.9L64.6,98.9z
				 M66.3,102.6C66.3,102.6,66.3,102.6,66.3,102.6l-0.1-1.9c0,0,0-0.1,0.1-0.1c0.1,0,0.4,0,0.8,0c0.2,0,0.4,0,0.5,0
				c0.4,0,0.6,0.1,0.8,0.3c0.2,0.2,0.4,0.6,0.2,1.2v0c-0.2,0.5-0.8,0.5-1.1,0.5c0,0-0.1,0-0.1,0H66.3L66.3,102.6z"/>
		</g>
		<g>
			
				<linearGradient id="SVGID_00000028307004362879840180000016330518709339533754_" gradientUnits="userSpaceOnUse" x1="69.6476" y1="103.2099" x2="77.63" y2="103.2099">
				<stop  offset="3.847671e-03" style="stop-color:#000000"/>
				<stop  offset="1" style="stop-color:#FFFFFF;stop-opacity:0.2"/>
			</linearGradient>
			<path style="fill:url(#SVGID_00000028307004362879840180000016330518709339533754_);" d="M74,99.1c0.2,0,0.4,0,0.5,0c0,0,0,0,0,0
				c0,0,0,0,0,0c0.2,0.5,2.5,7.2,2.9,8.2l-1.1,0c-0.2,0-0.5,0-0.5,0c0,0,0,0,0,0c0,0,0,0,0,0c0-0.1-0.1-0.2-0.1-0.4
				c-0.1-0.4-0.3-0.9-0.3-1c-0.1-0.3-0.3-0.3-0.4-0.3h-2.5c-0.3,0-0.4,0.2-0.4,0.3c0,0-0.1,0.3-0.2,0.6c-0.1,0.4-0.2,0.8-0.2,0.8
				c0,0,0,0,0,0l-0.2,0l-1.1,0c-0.1,0-0.3,0-0.4,0c0.2-0.4,0.7-2.1,1.4-3.8c0.7-2.1,1.5-4.3,1.5-4.4l0.1,0L74,99.1 M72.9,104.4
				L72.9,104.4l1.6,0c0.1,0,0.2-0.1,0.3-0.1c0.1-0.1,0.1-0.2,0-0.3c0-0.1-0.2-0.5-0.3-1c-0.2-0.7-0.5-1.6-0.5-1.7
				c-0.1-0.2-0.2-0.3-0.3-0.3c-0.1,0-0.2,0-0.3,0.2c0,0-0.1,0.3-0.2,0.6c-0.3,1.1-0.6,2.1-0.6,2.2c0,0.1,0,0.2,0,0.3
				C72.7,104.3,72.7,104.4,72.9,104.4 M74,98.9c-0.5,0-1.1,0-1.2,0c0,0,0,0,0,0c-0.1,0-0.1,0-0.2,0.1c0,0.1-2.9,8.2-2.9,8.3
				s0,0.2,0.1,0.2c0,0,0.2,0,0.5,0c0.5,0,1.2,0,1.3,0c0.1,0,0.2-0.1,0.2-0.2c0-0.1,0.4-1.3,0.4-1.4c0-0.1,0.1-0.1,0.2-0.1h2.5
				c0.1,0,0.2,0,0.2,0.1c0,0.1,0.4,1.4,0.5,1.5c0,0.1,0.1,0.1,0.2,0.1c0,0,0,0,0,0c0.1,0,0.3,0,0.5,0c0.5,0,1.2,0,1.2,0
				c0.1,0,0.1-0.1,0.1-0.2c0-0.1-2.8-8.2-2.9-8.3h0c0-0.1-0.1-0.1-0.2-0.1c0,0,0,0,0,0c0,0,0,0,0,0C74.4,98.9,74.2,98.9,74,98.9
				L74,98.9z M72.9,104.2c-0.1,0-0.1,0-0.1-0.1c0-0.1,0.8-2.7,0.8-2.8c0-0.1,0-0.1,0.1-0.1c0,0,0.1,0.1,0.1,0.1
				c0,0.1,0.8,2.6,0.8,2.7c0,0.1,0,0.2-0.1,0.2L72.9,104.2C72.9,104.2,72.9,104.2,72.9,104.2L72.9,104.2z"/>
		</g>
		<g>
			
				<linearGradient id="SVGID_00000008128139677803080500000002205594102930845599_" gradientUnits="userSpaceOnUse" x1="78.3355" y1="103.2098" x2="84.8945" y2="103.2098">
				<stop  offset="3.847671e-03" style="stop-color:#000000"/>
				<stop  offset="1" style="stop-color:#FFFFFF;stop-opacity:0.2"/>
			</linearGradient>
			<path style="fill:url(#SVGID_00000008128139677803080500000002205594102930845599_);" d="M80.9,99.1c1.3,0,2.2,0.1,2.6,0.4
				c0.7,0.4,1.2,1.4,1.1,2.4c-0.1,0.9-1,1.7-1.1,1.8c-0.2,0.1-0.3,0.3-0.2,0.5c0,0.1,0.2,0.4,0.4,0.9c0.3,0.7,0.8,1.8,1,2.2l-1.1,0
				c-0.3,0-0.5,0-0.5,0c-0.1-0.1-1.1-2.8-1.2-2.9c0-0.1-0.1-0.3-0.4-0.3c0,0,0,0,0,0h-1c-0.2,0-0.3,0.2-0.3,0.3l0,2.9h-1.6v-8.2h2.1
				l0.1,0L80.9,99.1 M81.7,102.8c0.2,0,0.8,0,1.1-0.4c0,0,0,0,0,0c0.3-0.4,0.4-1.2-0.1-1.6c-0.4-0.3-0.7-0.3-1.1-0.3l-0.1,0l-0.1,0
				h-1c-0.2,0-0.3,0.1-0.3,0.3v1.7c0,0.1,0,0.3,0.3,0.3L81.7,102.8 M80.9,98.9c-0.1,0-0.1,0-0.2,0h-2.2c-0.1,0-0.2,0-0.2,0.2v8.3
				c0,0.1,0.1,0.1,0.1,0.1h1.7c0.1,0,0.2,0,0.2-0.2v-2.9c0-0.1,0-0.1,0.1-0.1h1c0,0,0,0,0,0c0.1,0,0.1,0,0.2,0.1
				c0,0.1,1.2,2.9,1.2,3c0,0.1,0.1,0.1,0.2,0.1c0,0,0,0,0,0c0,0,0.2,0,0.5,0c0.5,0,1.2,0,1.2,0c0.1,0,0.1,0,0.1-0.2
				c0-0.1-1.3-3-1.4-3.2c-0.1-0.2,0-0.2,0.1-0.3c0.1-0.1,1.1-0.9,1.2-1.9c0.1-1.1-0.3-2.1-1.2-2.6C82.9,98.9,81.4,98.9,80.9,98.9
				L80.9,98.9z M80.4,102.6c-0.1,0-0.1,0-0.1-0.1v-1.7c0-0.1,0-0.1,0.1-0.1h1c0.1,0,0.2,0,0.2,0c0.4,0,0.7,0,1,0.3
				c0.4,0.3,0.3,1,0,1.3l0,0c-0.3,0.3-0.7,0.3-0.9,0.3c0,0,0,0,0,0H80.4L80.4,102.6z"/>
		</g>
		<g>
			
				<linearGradient id="SVGID_00000147920964704328746890000016585430690249801130_" gradientUnits="userSpaceOnUse" x1="85.3001" y1="103.2073" x2="91.6751" y2="103.2073">
				<stop  offset="3.847671e-03" style="stop-color:#000000"/>
				<stop  offset="1" style="stop-color:#FFFFFF;stop-opacity:0.2"/>
			</linearGradient>
			<path style="fill:url(#SVGID_00000147920964704328746890000016585430690249801130_);" d="M91.5,99.1l0,1.4h-1.9
				c-0.2,0-0.3,0.1-0.3,0.3l0,6.5l-0.1,0l-1,0c-0.1,0-0.2,0-0.3,0c-0.1,0-0.1,0-0.2,0l0-0.1c0-2.9,0-6.3,0-6.4
				c0-0.1-0.1-0.3-0.3-0.3l-1.9,0l0,0c0-0.3,0-1.1,0-1.4H91.5 M91.5,98.9L91.5,98.9l-6.1,0c-0.1,0-0.2,0-0.2,0.2c0,0.1,0,1.4,0,1.5
				c0,0.1,0.1,0.1,0.2,0.1h1.9c0.1,0,0.1,0,0.1,0.1c0,0.1,0,6.5,0,6.6c0,0.1,0.1,0.1,0.2,0.1c0,0,0,0,0,0c0,0,0.2,0,0.4,0
				c0.5,0,1.1,0,1.2,0c0.1,0,0.1,0,0.1-0.2v-6.6c0-0.1,0-0.1,0.1-0.1h1.9c0.1,0,0.2-0.1,0.2-0.2v-1.4C91.7,99,91.6,98.9,91.5,98.9
				L91.5,98.9z"/>
		</g>
		<g>
			
				<linearGradient id="SVGID_00000086677229446040509570000001660136937147573399_" gradientUnits="userSpaceOnUse" x1="92.3036" y1="99.7426" x2="94.1257" y2="99.7426">
				<stop  offset="3.847671e-03" style="stop-color:#000000"/>
				<stop  offset="1" style="stop-color:#FFFFFF;stop-opacity:0.2"/>
			</linearGradient>
			<path style="fill:url(#SVGID_00000086677229446040509570000001660136937147573399_);" d="M93.9,99.1l0,1.4h-1.4v-1.4H93.9
				 M94,98.9h-1.5c-0.1,0-0.2,0-0.2,0.1v1.5c0,0,0,0.1,0.1,0.1H94c0.1,0,0.1-0.1,0.1-0.2V99C94.1,98.9,94.1,98.9,94,98.9L94,98.9
				L94,98.9z"/>
		</g>
		<g>
			
				<linearGradient id="SVGID_00000160899646498196822430000011246935586477500039_" gradientUnits="userSpaceOnUse" x1="92.3034" y1="104.3969" x2="94.1257" y2="104.3969">
				<stop  offset="3.847671e-03" style="stop-color:#000000"/>
				<stop  offset="1" style="stop-color:#FFFFFF;stop-opacity:0.2"/>
			</linearGradient>
			<path style="fill:url(#SVGID_00000160899646498196822430000011246935586477500039_);" d="M92.9,101.5l1,0l0.1,0l0,5.9h-1.4l0-0.1
				c0-2.4,0-5.2,0-5.8C92.6,101.5,92.7,101.5,92.9,101.5 M92.9,101.3c-0.2,0-0.4,0-0.4,0c-0.1,0-0.2,0-0.2,0.1c0,0.1,0,5.9,0,6
				s0,0.1,0.1,0.1H94c0.1,0,0.1-0.1,0.1-0.2v-5.9c0-0.1,0-0.2-0.1-0.2h0C93.9,101.3,93.3,101.3,92.9,101.3L92.9,101.3z"/>
		</g>
	</g>
</g>
<g>
	<g>
		
			<linearGradient id="SVGID_00000148651041094204430420000018207661906648332967_" gradientUnits="userSpaceOnUse" x1="50.4992" y1="63.0581" x2="88.5775" y2="63.0581">
			<stop  offset="3.847671e-03" style="stop-color:#000000"/>
			<stop  offset="1" style="stop-color:#FFFFFF;stop-opacity:0.2"/>
		</linearGradient>
		<path style="fill:url(#SVGID_00000148651041094204430420000018207661906648332967_);" d="M69.3,38.5c0.1,0,0.3,0,0.4,0
			c2.4,0.1,2.8,0.2,4.6,0.6c1.7,0.4,4.2,1.4,6,2.6c3.4,2.5,4.7,4.6,5.5,6c1.7,2.8,2.5,6.5,2.6,8.8c0.1,3.3-0.3,4.7-1.3,7.2
			c-1.1,2.9-3.7,5.9-4.2,6.5c-0.2,0.2-0.4,0.4-0.6,0.7c-0.6,0.7-1.4,1.5-1.8,2.1c-2.2,2.8-2.3,5.3-2.3,8.3c0,0.2,0,0.7,0,1.2
			c0,0.6,0,1.2,0,1.4c0,0.1-0.1,0.1-0.1,0.1c0,0,0,0,0,0c0,0,0,0-2.1,0.4c-6.5,1.3-10.2,2.1-12.3,2.6c-1.9,0.4-2.6,0.5-2.7,0.6
			c0,0,0,0-0.1,0c0-0.2,0-1.9,0-2l0-0.1c0-0.2,0-0.2,0.1-0.2c0.1,0,2.3-0.5,4.5-0.9c3.5-0.7,5.6-1.2,5.7-1.2
			c0.3-0.1,0.3-0.2,0.3-0.3c0,0,0-0.2-0.3-0.2c0,0,0,0,0,0c0,0-0.5,0-2.6,0c-2.2,0-5.3,0-6.7,0l-0.9,0c0,0,0-0.2,0-0.2l0-0.1
			c0-4-0.1-5.4-1-7.2c-0.9-1.8-1.5-2.5-2.7-3.8l-0.1-0.1l-0.2-0.2c-1.2-1.3-2.5-2.8-4.1-5.6c-2.5-4.6-2.9-9.6-1-15
			c1.4-4.1,4.6-7.8,8.5-9.8C64.1,38.8,67.6,38.5,69.3,38.5 M69.5,80.8c2.5,0,6.8,0,6.9,0c0.1,0,0.2-0.1,0.3-0.1
			c0.1-0.1,0.1-0.3,0.1-0.3c0,0-0.1-2.2,0.4-3.8c0.5-1.6,1-2.8,3.2-5.4c0.3-0.4,0.6-0.7,0.9-1.1c1.8-2.1,3-3.6,4.3-6.2
			c1.3-2.7,1.8-5.5,1.4-8.7c-0.4-3.6-1.8-6.7-4.1-9.3c-2.4-2.8-5.1-4.5-8.6-5.4c-1.6-0.4-3.3-0.7-5-0.7c-1.7,0-3.3,0.2-4.7,0.7
			c-1.8,0.5-3.9,1.2-6.8,3.6c-2.1,1.8-3.7,4-4.6,6.4c-0.6,1.6-1.4,4.1-1.2,7.6c0.2,3,1.1,5.4,3,8.3c1.2,1.8,2,2.7,2.8,3.6l0.1,0.2
			c0.7,0.8,1.8,2.1,2.6,3.4c0.9,1.6,1.4,2.8,1.6,4.1c0.1,0.6,0.2,1.6,0.2,2.8c0,0.3,0.3,0.3,0.4,0.3C62.7,80.8,67.9,80.8,69.5,80.8
			 M69.3,38.3c-2.3,0-5.6,0.5-9,2.3c-3.6,1.9-7.1,5.5-8.6,9.9c-1.4,4.1-2.1,9.5,1,15.1c1.7,3,3.1,4.5,4.3,5.9
			c1.2,1.3,1.9,2.1,2.7,3.8c0.9,1.8,1,3.2,1,7.1c0,0.3,0,0.5,0.3,0.5c0.3,0,4.6,0,7.5,0c1.5,0,2.6,0,2.6,0c0,0,0,0,0,0
			c0.1,0,0.1,0.1-0.1,0.1c-0.2,0.1-9.9,2.1-10.1,2.1c-0.2,0.1-0.2,0.2-0.2,0.4c0,0.2,0,1.9,0,2.1c0,0.1,0.1,0.2,0.2,0.2
			c0,0,0.1,0,0.1,0c0.3,0,2.6-0.5,15-3.1c2-0.4,2-0.4,2-0.4s0.2-0.1,0.2-0.3c0-0.4,0-2.1,0-2.6c0.1-3.1,0.1-5.5,2.3-8.2
			c0.7-0.8,1.8-2.1,2.4-2.8c0.7-0.7,3.1-3.7,4.2-6.5c1-2.6,1.4-4,1.3-7.3c-0.1-2.5-1-6.2-2.6-8.9c-0.8-1.4-2.1-3.6-5.6-6
			c-1.8-1.3-4.3-2.3-6.1-2.7c-1.8-0.4-2.2-0.5-4.6-0.6C69.6,38.3,69.4,38.3,69.3,38.3L69.3,38.3z M69.5,80.6c-3.4,0-6.8,0-6.9,0
			c-0.1,0-0.2,0-0.2-0.1s0-1.3-0.2-2.8c-0.2-1.5-0.8-2.8-1.6-4.2c-0.8-1.4-2-2.7-2.7-3.6c-0.7-0.8-1.5-1.8-2.7-3.6
			c-1.9-2.9-2.7-5.2-2.9-8.2c-0.2-3.3,0.5-5.8,1.2-7.6c0.8-2.1,2.2-4.3,4.6-6.4c2.8-2.4,4.9-3,6.7-3.6c1.4-0.4,2.9-0.6,4.6-0.6
			c1.6,0,3.2,0.2,4.9,0.6c3.5,0.9,6.2,2.6,8.5,5.3c2.6,3,3.6,6.3,4,9.2c0.4,2.9,0.1,5.7-1.4,8.6v0c-1.4,2.9-2.9,4.5-5.1,7.2
			c-2.2,2.7-2.7,4-3.2,5.5c-0.5,1.5-0.4,3.8-0.4,3.9c0,0.1,0,0.2-0.2,0.3C76.3,80.6,72.9,80.6,69.5,80.6L69.5,80.6z"/>
	</g>
	<g>
		
			<linearGradient id="SVGID_00000181780315708814809530000016912017758905976490_" gradientUnits="userSpaceOnUse" x1="60.6711" y1="88.2081" x2="78.3005" y2="88.2081">
			<stop  offset="3.847671e-03" style="stop-color:#000000"/>
			<stop  offset="1" style="stop-color:#FFFFFF;stop-opacity:0.2"/>
		</linearGradient>
		<path style="fill:url(#SVGID_00000181780315708814809530000016912017758905976490_);" d="M78.1,85.3l0,2.2c0,0,0,0.1,0,0.1
			c0,0-0.9,0.2-2.3,0.5c-4.4,0.9-14.6,3-14.8,3c0,0,0,0-0.1,0c0,0,0,0,0,0c0-0.1,0-1.8,0-2.2c0-0.2,0-0.2,0.1-0.2l0.1,0c0,0,0,0,0,0
			C61.9,88.6,77.6,85.4,78.1,85.3 M61.2,88.6L61.2,88.6L61.2,88.6 M78.2,85.1c0,0-0.1,0-0.1,0c-0.3,0.1-16.9,3.5-17.1,3.5v0
			c-0.1,0-0.3,0-0.3,0.4c0,0.4,0,2,0,2.2c0,0.1,0,0.2,0.2,0.2c0,0,0.1,0,0.1,0c0.3-0.1,16.9-3.5,17.1-3.5c0.2,0,0.2-0.2,0.2-0.4
			v-2.2C78.3,85.1,78.3,85.1,78.2,85.1L78.2,85.1z"/>
	</g>
	<g>
		
			<linearGradient id="SVGID_00000060017707963458625030000008094478139225932442_" gradientUnits="userSpaceOnUse" x1="64.0675" y1="91.5048" x2="78.3009" y2="91.5048">
			<stop  offset="3.847671e-03" style="stop-color:#000000"/>
			<stop  offset="1" style="stop-color:#FFFFFF;stop-opacity:0.2"/>
		</linearGradient>
		<path style="fill:url(#SVGID_00000060017707963458625030000008094478139225932442_);" d="M78.1,88.9c0,0.2,0,0.7,0,1.8l0,0.3
			c0,0.2,0,0.2,0,0.2c-0.2,0.1-2.8,0.6-3,0.6c-0.3,0-0.4,0.1-0.5,0.3c0,0-0.2,0.3-0.4,0.7c-0.3,0.4-0.6,1.1-0.7,1.2
			c0,0.1-0.1,0.1-0.1,0.1c0,0-0.3,0-2,0c-1.7,0-4.1,0-5.1,0l-0.4,0c-0.1,0-0.2,0-0.3-0.1c0-0.1-0.2-0.3-0.4-0.7
			c-0.3-0.6-0.8-1.4-0.9-1.5c0,0,0,0,0,0c0,0,0,0,0,0c0.1,0,4.5-0.9,13-2.6L78.1,88.9 M78.2,88.7C78.1,88.7,78.1,88.7,78.2,88.7
			c-0.2,0-13.8,2.8-13.9,2.8l0,0c-0.1,0-0.3,0.1-0.2,0.3c0.1,0.2,1.2,2.1,1.3,2.2c0.1,0.1,0.2,0.2,0.5,0.2c0.1,0,3.3,0,5.5,0
			c1.1,0,1.9,0,2,0c0.2,0,0.2-0.1,0.3-0.2c0.1-0.1,1-1.8,1.1-1.9c0.1-0.1,0.2-0.2,0.4-0.2s2.8-0.6,3-0.6c0.2-0.1,0.2-0.2,0.2-0.4
			c0-0.2,0-2,0-2.1C78.3,88.8,78.3,88.7,78.2,88.7L78.2,88.7z"/>
	</g>
</g>
<g>
	
		<linearGradient id="SVGID_00000151524079434720741960000003601128129231212692_" gradientUnits="userSpaceOnUse" x1="61.7194" y1="67.8243" x2="77.3614" y2="67.8243">
		<stop  offset="3.847671e-03" style="stop-color:#000000"/>
		<stop  offset="1" style="stop-color:#FFFFFF;stop-opacity:0.2"/>
	</linearGradient>
	<path style="fill:url(#SVGID_00000151524079434720741960000003601128129231212692_);" d="M69.3,56.7C69.3,56.7,69.4,56.7,69.3,56.7
		l0.2,0l0.2,0c0.6,0,1.5,0.3,2.6,1c0,0,0.1,0,0.1,0c0,0,0,0,0,0c0.6-0.1,1.1-0.2,1.7-0.2c0.4,0,0.8,0,1.2,0.1
		c1.1,0.3,1.7,0.7,1.8,1.2c0,0-0.1,0.2-0.3,0.3c-0.4,0.3-1.1,1.9-1.2,2.2l-2.8,6l-1.4,3.5c0,0.1,0,0.1,0,0.2c0,0,0.3,0.5,0.3,1.2V79
		h-0.3v-7.2c0-0.3-0.3-0.6-0.6-0.6h-0.9l0-8.5l0.6-0.1c0.2,0,0.4-0.3,0.4-0.5c0-0.2-0.1-0.4-0.3-0.5c0.1,0,0.2-0.1,0.3-0.3l1.1-2.8
		c0-0.1,0-0.2-0.1-0.2c-1-0.7-1.9-0.9-2.6-0.9c-0.7,0-1.6,0.1-2.6,0.9c-0.1,0.1-0.1,0.2-0.1,0.2l1.1,2.8c0,0.1,0.2,0.2,0.3,0.3
		c-0.2,0.1-0.3,0.3-0.3,0.5c0,0.3,0.2,0.5,0.4,0.5l0.6,0.1v8.4h-0.9c-0.3,0-0.6,0.3-0.6,0.6V79h-0.3v-6.7c0-0.7,0.3-1.2,0.3-1.2
		c0-0.1,0-0.1,0-0.2l-1.4-3.5l-2.8-6c-0.1-0.3-0.8-1.9-1.2-2.2c-0.2-0.1-0.3-0.3-0.3-0.3c0.1-0.4,0.7-0.8,1.8-1.2
		c0.4-0.1,0.8-0.1,1.2-0.1c0.5,0,1.1,0.1,1.7,0.2c0,0,0,0,0,0c0,0,0.1,0,0.1,0C67.8,57,68.7,56.7,69.3,56.7 M70.6,70.8H71
		c0.1,0,0.1,0,0.2-0.1l5.2-11.5c0,0,0,0,0,0c0-0.2,0-0.3-0.1-0.4c-0.3-0.3-0.8-0.4-1.5-0.4c-0.6,0-1.3,0.1-2.1,0.2
		c-0.1,0-0.2,0.1-0.3,0.2l-1.3,3c0,0,0,0.1,0,0.1c0,0,0,0.1,0,0.1c0.1,0.1,0.1,0.3,0,0.5c-0.1,0.2-0.3,0.3-0.6,0.4
		c-0.2,0-0.3,0.2-0.3,0.3v7.6C70.4,70.7,70.4,70.8,70.6,70.8 M68.1,70.8h0.4c0.1,0,0.2-0.1,0.2-0.2v-7.6c0-0.2-0.1-0.3-0.3-0.3
		c-0.2-0.1-0.4-0.1-0.5-0.3c-0.1-0.2-0.2-0.4-0.1-0.6c0-0.1,0-0.1,0-0.2l-1.3-3c-0.1-0.1-0.2-0.2-0.3-0.2c-0.8-0.1-1.5-0.2-2.1-0.2
		c-0.7,0-1.2,0.1-1.5,0.4c-0.1,0.1-0.2,0.3-0.1,0.5l5.2,11.5C68,70.8,68,70.8,68.1,70.8 M69.3,61.6l0.2,0l0.2,0c0.2,0,0.4,0,0.6,0
		h-1.6C68.9,61.6,69.1,61.6,69.3,61.6 M69.3,56.5c-0.7,0-1.7,0.4-2.7,1.1c-0.5-0.1-1.1-0.2-1.7-0.2c-0.4,0-0.8,0-1.2,0.1
		c-1.1,0.3-1.9,0.8-2,1.4c0,0,0,0.2,0.4,0.5c0.3,0.2,1.1,2.1,1.1,2.1l2.8,6l1.4,3.5c0,0-0.3,0.5-0.3,1.3v6.9h0.7v-7.4
		c0-0.2,0.2-0.4,0.4-0.4h1.1v-8.6c0-0.1-0.1-0.2-0.2-0.2l-0.6-0.1c-0.2,0-0.3-0.2-0.3-0.3c0-0.2,0.1-0.3,0.3-0.3h2.1
		c0.2,0,0.3,0.1,0.3,0.3c0,0.2-0.1,0.3-0.3,0.3l-0.6,0.1c-0.1,0-0.2,0.1-0.2,0.2v8.6h1.1c0.2,0,0.4,0.2,0.4,0.4v7.4H72v-6.9
		c0-0.8-0.3-1.3-0.3-1.3l1.4-3.5l2.8-6c0,0,0.8-1.9,1.1-2.1c0.3-0.2,0.4-0.5,0.4-0.5c-0.1-0.6-0.9-1-2-1.4h0
		c-0.4-0.1-0.8-0.1-1.2-0.1c-0.6,0-1.2,0.1-1.7,0.2c-1.1-0.7-2-1.1-2.7-1.1c0,0,0,0,0,0c-0.1,0-0.1,0-0.2,0S69.4,56.5,69.3,56.5
		C69.4,56.5,69.3,56.5,69.3,56.5L69.3,56.5z M68.4,61.5c-0.1,0-0.2-0.1-0.2-0.1l-1.1-2.8c0.9-0.7,1.7-0.8,2.5-0.8
		c0.8,0,1.6,0.2,2.5,0.8l-1.1,2.8c0,0.1-0.1,0.1-0.2,0.1c0,0,0,0-0.1,0c-0.2-0.1-0.5-0.1-0.9-0.1c-0.1,0-0.1,0-0.2,0
		c-0.1,0-0.1,0-0.2,0C69,61.4,68.7,61.4,68.4,61.5C68.5,61.5,68.4,61.5,68.4,61.5L68.4,61.5z M70.6,70.6v-7.6c0-0.1,0.1-0.1,0.1-0.2
		c0.3-0.1,0.5-0.2,0.7-0.4c0.1-0.2,0.1-0.5,0-0.7v0l1.3-3c0-0.1,0.1-0.1,0.1-0.1c0.7-0.1,1.4-0.2,2-0.2c0.6,0,1,0.1,1.3,0.4
		c0.1,0.1,0.1,0.2,0,0.2l0,0L71,70.6H70.6L70.6,70.6z M68.1,70.6l-5.2-11.5c0-0.1,0-0.2,0-0.2c0.3-0.3,0.8-0.4,1.3-0.4
		c0.6,0,1.3,0.1,2,0.2c0.1,0,0.1,0.1,0.1,0.1l1.3,3c-0.2,0.2-0.1,0.6,0.1,0.8c0.2,0.2,0.4,0.3,0.6,0.3h0c0.1,0,0.1,0.1,0.1,0.2v7.6
		H68.1L68.1,70.6z"/>
</g>
</svg>
