<svg width="136" height="66" viewBox="0 0 136 66" fill="none" xmlns="http://www.w3.org/2000/svg">
<g id="Group 87">
<path id="Vector" fill-rule="evenodd" clip-rule="evenodd" d="M42.2296 44.7362L41.3578 45.3283L40.5209 44.7362L40.8348 45.6767L39.9978 46.2688H41.044L41.3578 47.2093L41.7066 46.2688H42.7527L41.9158 45.6767L42.2645 44.7362H42.2296ZM48.0532 18.8563L47.1814 18.2642L46.3445 18.8563L46.6583 17.9158L45.7865 17.3237H46.8327L47.1465 16.3832L47.4953 17.3237H48.5414L47.7045 17.9158L48.0532 18.8563ZM38.8471 42.298L37.8358 42.507L37.2778 41.6362L37.2081 42.6463L36.1968 42.8553L37.1732 43.2733L37.1035 44.2834L37.7661 43.5519L38.7425 43.9699L38.1845 43.0991L38.8471 42.3677V42.298ZM52.2029 18.9608L51.645 18.09L50.6337 18.299L51.2963 17.5327L50.7383 16.6619L51.7147 17.0799L52.3773 16.3136V17.3237L53.284 17.7417L52.2727 17.9507V18.9608H52.2029ZM36.6153 38.7103L35.604 38.5013L35.4296 37.4912L34.9763 38.3968L33.965 38.1879L34.6973 38.9193L34.244 39.8249L35.1507 39.407L35.883 40.1384L35.7086 39.1283L36.6153 38.7103ZM55.9342 20.0057L55.7598 18.9956L54.7486 18.8215L55.6552 18.3686L55.4809 17.3585L56.2132 18.09L57.1198 17.6372L56.7014 18.5428L57.4337 19.2743L56.4224 19.1001L56.0039 20.0057H55.9342ZM35.325 34.6002L34.4532 34.0429L34.6625 33.0328L33.8953 33.6946L33.0235 33.1373L33.4071 34.1126L32.6399 34.7744H33.6512L34.0348 35.68L34.244 34.6699H35.2553L35.325 34.6002ZM59.1075 21.5383L59.3168 20.5282L58.445 19.9709L59.4562 19.9012L59.6655 18.8911L60.0491 19.8664L61.0603 19.7967L60.328 20.4585L60.7116 21.4338L59.8398 20.8765L59.1075 21.5383ZM35.604 30.3507L35.0112 29.4799L35.604 28.644L34.6625 28.9575L34.0697 28.0867V29.1316L33.1281 29.4451L34.0697 29.7934V30.8384L34.6625 30.0024L35.604 30.3507ZM57.7824 46.1295L58.3752 45.2587L57.7824 44.4227L58.7239 44.7362L59.3168 43.8654V44.9104L60.2583 45.2238L59.3168 45.5722V46.6171L58.7239 45.7812L57.7824 46.1295ZM36.8943 26.1013L36.685 25.0912L37.5568 24.5338L36.5804 24.4642L36.3712 23.4541L35.9527 24.4294L34.9763 24.3597L35.7086 25.0563L35.2902 26.0316L36.162 25.4743L36.8943 26.1709V26.1013ZM53.5629 47.2789L54.4347 46.7216L54.2255 45.7115L54.9927 46.3733L55.8645 45.816L55.446 46.7913L56.2132 47.4531L55.2019 47.3834L54.7834 48.3587L54.5742 47.3486L53.5629 47.2789ZM39.2655 22.8271L39.4748 21.817L40.486 21.6428L39.6143 21.19L39.8235 20.1799L39.0912 20.9114L38.2194 20.4585L38.6378 21.3642L37.9055 22.0956L38.9168 21.9215L39.3353 22.8271H39.2655ZM49.0296 47.6272L50.0409 47.4531L50.2152 46.443L50.6686 47.3486L51.6799 47.1744L50.9476 47.9059L51.4009 48.8115L50.4942 48.3587L49.7619 49.0902L49.9363 48.08L49.0296 47.6272ZM42.6481 20.4237L43.206 19.5529L44.2173 19.7967L43.5896 19.0304L44.1476 18.1597L43.1712 18.5428L42.5435 17.7765V18.7866L41.6368 19.1698L42.6481 19.4136V20.4237ZM44.5312 47.0699L45.5424 47.2789L46.1004 46.4081L46.1701 47.4182L47.1814 47.6272L46.205 48.0104L46.2747 49.0205L45.6122 48.2542L44.6358 48.6373L45.1937 47.7666L44.5312 47.0003V47.0699ZM60.2234 48.6722L60.7116 48.9508L60.5024 49.334L59.8398 48.9508C59.4562 49.1947 59.0727 49.4385 58.6891 49.6823L59.8398 50.4486L59.5957 50.7969L58.2706 49.9261C57.887 50.1351 57.4686 50.3441 57.085 50.5531L58.8634 51.8767L58.6193 52.225L56.6316 50.7621C56.2481 50.9362 55.8296 51.1104 55.4111 51.2497L57.8173 53.2351L57.5383 53.5834L54.9229 51.4239C54.5393 51.5632 54.1209 51.7025 53.7024 51.807L56.6665 54.5239L56.3875 54.8374L53.2142 51.9115C52.8306 52.016 52.4122 52.1205 51.9937 52.1902L55.4809 55.7778L55.167 56.0913L51.4706 52.2947C51.087 52.3643 50.6686 52.434 50.285 52.4688L54.2255 56.9621L53.9116 57.2408L49.7619 52.5385C49.3783 52.5733 48.9947 52.6082 48.6111 52.6082L52.9352 58.0767L52.5865 58.3554L48.0532 52.643C48.0532 52.643 47.7742 52.643 47.5999 52.643C47.3906 52.643 47.1465 52.643 46.9373 52.643L51.5404 59.1565L51.1917 59.4003L46.3794 52.6082C46.0306 52.6082 45.6819 52.5733 45.3332 52.5385L50.1455 60.1318L49.7619 60.3756L44.7753 52.5037C44.4265 52.4688 44.1127 52.3992 43.7989 52.3643L48.6809 61.0722L48.2973 61.2812L43.2409 52.2598C42.9271 52.1902 42.6132 52.1205 42.2994 52.0508L47.1465 61.8734L46.7629 62.0824L41.7414 51.9115C41.4625 51.8419 41.1835 51.7374 40.8696 51.6677L45.5773 62.6397L45.1937 62.8138L40.3466 51.4935C40.0676 51.389 39.8235 51.3194 39.5794 51.2149L44.043 63.3015L43.6245 63.4408L39.0214 50.9711C38.7773 50.8666 38.5332 50.7621 38.324 50.6576L42.404 63.8588L41.9855 63.9981L37.8009 50.4138C37.5917 50.3093 37.3825 50.2048 37.1732 50.0654L40.765 64.3464L40.3466 64.4509L36.6502 49.7868C36.4758 49.6823 36.2666 49.5778 36.0922 49.4385L39.0912 64.7296L38.6727 64.7992L35.5691 49.0902C35.5691 49.0902 35.2553 48.8812 35.0809 48.7418L37.3825 65.0082L36.964 65.0779L34.5927 48.3935C34.5927 48.3935 34.3138 48.1845 34.1743 48.08L35.7086 65.252H35.2902L33.7209 47.6969C33.5814 47.5924 33.4768 47.4879 33.3722 47.3834L34.0348 65.3914H33.6163L32.9538 47.0003C32.8491 46.8958 32.7445 46.7913 32.6399 46.7216L32.3261 65.461H31.8727L32.1866 46.3036C32.1168 46.1991 32.0122 46.1295 31.9425 46.025L30.5825 65.3914H30.164L31.5589 45.5722C31.4891 45.5025 31.4194 45.398 31.3497 45.3283L28.9086 65.252L28.4902 65.1824L31.0009 44.8407C31.0009 44.8407 30.8963 44.7014 30.8266 44.6317L27.2348 64.9734L26.8163 64.9037L30.4779 44.1441C30.4779 44.1441 30.3732 44.0047 30.3384 43.9699L25.5261 64.6599L25.1076 64.5554L29.9897 43.4823C29.9897 43.4823 29.9199 43.3778 29.885 43.3429L23.8522 64.2419L23.4338 64.1374L29.5712 42.8553C29.5712 42.8553 29.5363 42.7856 29.5015 42.716L22.2133 63.7543L21.7948 63.615L29.1876 42.2283L29.1179 42.1238L20.5743 63.1621L20.1558 62.988L28.8389 41.6362V41.5665L18.9702 62.5003L18.5866 62.3262L28.5599 41.0789L17.4707 61.7341L17.0871 61.5251L28.3507 40.5216L16.0061 60.8981L15.6225 60.6543L28.1415 39.9643L14.5415 59.9576L14.1928 59.7138L27.9671 39.4766L13.1815 58.9475L12.8328 58.6689L27.8276 39.0238V38.9542L11.8215 57.8677L11.4728 57.5891L27.6533 38.5362L10.5313 56.7183L10.2174 56.4048L27.5486 38.0834L9.31074 55.4992L8.9969 55.1857L27.444 37.6654L8.15998 54.2104L7.881 53.8621L27.3394 37.2474L6.86972 52.7475L6.59075 52.3992L27.0604 36.7249L5.85845 51.3542L5.61434 51.0059L26.9907 36.3766L4.91691 49.9261L4.67281 49.543L26.921 35.9935V35.9238L4.01025 48.4284L3.80102 48.0452L26.8512 35.6451V35.5755L3.24307 46.8958L3.06871 46.5126L26.8512 35.2968V35.2272L2.54563 45.3283L2.37128 44.9104L26.7815 34.9485L1.91794 43.7261L1.77846 43.3081L26.7466 34.635L1.36 42.089L1.25538 41.671L26.7117 34.3215V34.2519L0.906664 40.4171L0.802049 39.9991L26.6769 34.0081L0.557947 38.7103L0.488204 38.2924L26.6769 33.6597L0.278974 37.0036L0.20923 36.5856L26.642 33.3463L0.104615 35.2968V34.844L26.6769 32.9979L0 33.5901V33.1373L26.642 32.7193V32.6496L0 31.8485V31.3957L26.642 32.4058C26.642 32.4058 26.642 32.371 26.642 32.3361L0.104615 30.1417V29.6889L26.6769 32.0923V32.0227L0.278974 28.4002L0.348717 27.9822L26.7117 31.8137C26.7117 31.8137 26.7117 31.7788 26.7117 31.744L0.557947 26.6934L0.627691 26.2754L26.7117 31.4653V31.3957L0.906664 25.0215L1.01128 24.6035L26.7466 31.1519V31.0822L1.36 23.3496L1.49948 22.9316L26.7815 30.8384C26.7815 30.8384 26.7815 30.8035 26.7815 30.7687L1.88307 21.7125L2.02256 21.2945L26.7815 30.4901V30.4204L2.51076 20.1102L2.68512 19.6922L26.8512 30.1417V30.0721L3.2082 18.5428L3.41743 18.1597L26.921 29.8631C26.921 29.8631 26.921 29.7934 26.921 29.7586L4.01025 17.0102L4.21948 16.6271L26.9558 29.4799V29.4103L4.88204 15.5125L5.12614 15.1293L27.0604 29.0968L5.82357 14.0495L6.06768 13.7012L27.0953 28.7485L6.83485 12.6911L7.11383 12.3428L27.1999 28.3653L7.95075 11.3327L8.22972 11.0192L27.3045 27.9822V27.9125L9.10151 10.0787L9.41536 9.76523L27.444 27.5642V27.4945L10.322 8.85961L10.6359 8.54612L27.5486 27.0766L11.6123 7.71016L11.961 7.43151L27.723 26.6586V26.5889L12.9723 6.63038L13.321 6.38656L27.8974 26.1709L14.3671 5.62026L14.7159 5.37644L28.0717 25.6833L15.7969 4.71464L16.1805 4.50565L28.2809 25.1957L17.2964 3.87868L17.68 3.66969L28.5251 24.6383L18.8656 3.11238L19.2492 2.93823L28.804 24.1159V24.0462L20.4348 2.41575L20.8533 2.24159L29.1527 23.5237C29.1527 23.5237 29.1876 23.4541 29.1876 23.4192L22.0389 1.82361L22.4574 1.68429L29.4666 22.9664C29.4666 22.9664 29.5015 22.8968 29.5363 22.8619L23.6779 1.30114L24.0963 1.19664L29.8502 22.3395C29.8502 22.3395 29.9199 22.235 29.9548 22.2001L25.3517 0.883159L25.7702 0.778664L30.3035 21.6777C30.3035 21.6777 30.3732 21.5732 30.443 21.5035L27.0604 0.534843L27.4789 0.465179L30.7917 21.0507C30.7917 21.0507 30.8963 20.9114 30.9661 20.8417L28.7343 0.291021H29.1527L31.3148 20.3541C31.3845 20.2844 31.4543 20.2147 31.524 20.1102L30.4779 0.151695H30.8963L31.9773 19.6922C32.0471 19.5878 32.1517 19.5181 32.2215 19.4484V0.0820312H32.605V18.9956C32.605 18.9956 32.8491 18.8215 32.9538 18.717L33.8953 0.0820312H34.3486L33.442 18.2642C33.5466 18.1597 33.6861 18.0552 33.7907 17.9507L35.604 0.221358H36.0225L34.2091 17.6024C34.3486 17.4979 34.4881 17.3934 34.6276 17.2889L37.3127 0.430348L37.7312 0.500011L35.1507 16.9405C35.1507 16.9405 35.4645 16.7316 35.6389 16.6271L39.0214 0.743833L39.4399 0.848328L36.162 16.2787C36.3363 16.1743 36.5455 16.0698 36.7199 15.9304L40.6953 1.12698L41.1137 1.23148L37.243 15.6518C37.4522 15.5473 37.6614 15.4428 37.8707 15.3383L42.3342 1.61462L42.7527 1.75395L38.4286 15.0596C38.6727 14.9551 38.8819 14.8506 39.126 14.7462L43.9732 2.17193L44.3917 2.34609L39.684 14.5372C39.9281 14.4327 40.2071 14.3282 40.4512 14.2585L45.5424 2.83373L45.926 3.00789L40.9742 14.0844C41.2532 13.9799 41.5322 13.9102 41.8112 13.8405L47.0768 3.60003L47.4604 3.80902L42.3691 13.736C42.683 13.6664 42.9968 13.5967 43.2758 13.527L48.5414 4.43599L48.925 4.64498L43.8337 13.4226C44.1476 13.3529 44.4963 13.3181 44.8101 13.2832L50.006 5.34161L50.3547 5.58543L45.3681 13.2484C45.7168 13.2484 46.0655 13.1787 46.4142 13.1787L51.4358 6.3169L51.7845 6.56072L46.9722 13.1439C47.1465 13.1439 47.3209 13.1439 47.4953 13.1439C47.6696 13.1439 47.8788 13.1439 48.0532 13.1439L52.7609 7.36185L53.1096 7.6405L48.6111 13.1787C48.9947 13.1787 49.3783 13.2136 49.7619 13.2484L54.086 8.47646L54.3999 8.75511L50.285 13.2832C50.6686 13.3181 51.087 13.3877 51.4706 13.4574L55.3414 9.6259L55.6552 9.93939L51.9937 13.5619C52.4122 13.6315 52.7958 13.736 53.2142 13.8405L56.527 10.8798L56.806 11.1933L53.7024 13.9799C54.1209 14.0844 54.5045 14.2237 54.9229 14.363L57.6429 12.1686L57.9219 12.5169L55.4111 14.5372C55.8296 14.7113 56.2132 14.8507 56.6316 15.0596L58.7239 13.5619L58.968 13.9102L57.085 15.2686C57.5034 15.4776 57.887 15.6866 58.2706 15.8956L59.7004 14.99L59.9445 15.3731L58.6891 16.1743C59.0727 16.4181 59.4562 16.6619 59.8398 16.9057L60.607 16.4877L60.8162 16.8709L60.2583 17.1844C60.2583 17.1844 60.0491 17.045 59.9445 16.9754C60.0491 17.045 60.1537 17.1147 60.2583 17.2192C57.2245 15.3035 53.5629 14.1888 49.6573 14.1888C38.9168 14.1888 30.1989 22.5833 30.1989 32.9283C30.1989 43.2733 38.9168 51.6677 49.6573 51.6677C53.4932 51.6677 57.085 50.5879 60.1188 48.7418C60.1188 48.7418 60.0142 48.8463 59.9445 48.8812C60.0142 48.8463 60.0839 48.8115 60.1188 48.7767M47.3906 27.8777L47.4604 31.7788L43.9383 33.1721L47.4953 34.1822L47.565 38.0485L49.727 34.7744L53.284 35.7845L51.0522 32.7541L53.2142 29.4799L49.6922 30.8732L47.4604 27.8429L47.3906 27.8777Z" fill="#CA9E67"/>
<path id="Vector_2" fill-rule="evenodd" clip-rule="evenodd" d="M90.9794 25.4738V22.6872H93.0717C94.1527 22.6872 94.8153 23.1401 94.8153 24.0457C94.8153 24.9165 94.1876 25.4389 93.1066 25.4389H90.9794V25.4738ZM87.7712 31.4997H90.9794V27.9817H92.3743L94.7107 31.4997H98.442L95.6871 27.4592C97.1168 26.8322 98.0932 25.6828 98.0932 23.9064C98.0932 22.7221 97.7445 21.8513 97.082 21.1895C96.3148 20.3884 95.0594 19.9355 93.3158 19.9355H87.841V31.4997H87.7712ZM99.0348 31.4997H102.243V28.5041L103.429 27.2154L106.358 31.4997H110.229L105.695 24.9165L110.089 19.9355H106.288L102.278 24.6378V19.9355H99.0697V31.4997H99.0348ZM113.786 22.2344V19.9355H110.542V22.2344H113.786ZM110.542 31.4997H113.786V24.603C113.228 22.2344 110.542 22.1996 110.542 22.1996V31.4648V31.4997ZM118.598 31.4997H121.841V27.1109L126.27 19.9355H122.678L120.272 24.1502L117.9 19.9355H114.239L118.668 27.1805V31.4997H118.598ZM126.583 31.4997H135.999V28.7828H129.757V26.9367H135.336V24.394H129.757V22.6524H135.894V19.9355H126.549V31.4997H126.583ZM86.5507 22.2344V19.9355H83.2728V22.2344H86.5507ZM79.0184 22.2344V19.9355H75.7405V22.2344H79.0184ZM79.0184 25.4041V24.6378C78.4605 22.2693 75.7405 22.2344 75.7405 22.2344V26.3794C75.7405 30.0367 77.7979 31.7086 81.1107 31.7086C84.4235 31.7086 86.5507 30.0716 86.5507 26.3794V24.6378C85.9928 22.2693 83.2728 22.2344 83.2728 22.2344V26.4491C83.2728 28.0513 82.4359 28.8176 81.1456 28.8176C79.8553 28.8176 79.0184 28.0165 79.0184 26.3446V25.3693V25.4041ZM69.3938 46.2334H72.6369V41.8447L77.0656 34.6693H73.4738L71.0677 38.884L68.6964 34.6693H65.0349L69.4636 41.9143V46.2334H69.3938ZM103.533 46.2334H106.776V41.8447L111.205 34.6693H107.613L105.207 38.884L102.836 34.6693H89.1661V37.3862H94.7804L88.9569 43.8997V46.2334H99.2091V43.5166H93.3856L99.2091 37.0031V34.739L103.568 41.9143V46.2334H103.533ZM111.589 46.2334H114.832V34.6693H111.589V46.2334ZM116.296 46.2334H125.119V43.4121H119.504V34.6345H116.296V46.1986V46.2334ZM125.921 46.2334H129.164V34.6693H125.921V46.2334ZM88.0502 36.9682V34.6693H84.7723V36.9682H88.0502ZM80.5179 36.9682V34.6693H77.24V36.9682H80.5179ZM80.5179 40.1379V39.3716C79.96 37.0031 77.24 36.9682 77.24 36.9682V41.1132C77.24 44.7705 79.2974 46.4424 82.6102 46.4424C85.923 46.4424 88.0502 44.8053 88.0502 41.1132V39.3716C87.4923 37.0031 84.7723 36.9682 84.7723 36.9682V41.1829C84.7723 42.7851 83.9353 43.5514 82.6451 43.5514C81.3548 43.5514 80.5179 42.7503 80.5179 41.1132V40.1379ZM68.4872 31.5345H71.6954V22.7569H75.1825V19.9355H65V22.7569H68.4872V31.5345Z" fill="#CA9E67"/>
</g>
</svg>
