<svg width="18" height="18" viewBox="0 0 18 18" fill="none" xmlns="http://www.w3.org/2000/svg">
<g id="alarm">
<path id="Subtract" fill-rule="evenodd" clip-rule="evenodd" d="M3.06148 14.4141L1.01452 16.9391C0.797144 17.2072 0.838297 17.6008 1.10643 17.8182C1.37457 18.0355 1.76815 17.9944 1.98552 17.7262L3.91524 15.3459C3.60536 15.0599 3.31963 14.7482 3.06148 14.4141ZM14.0847 15.3459L16.0145 17.7263C16.2319 17.9944 16.6255 18.0355 16.8936 17.8181C17.1618 17.6008 17.2029 17.2072 16.9855 16.9391L14.9385 14.4141C14.6803 14.7482 14.3946 15.06 14.0847 15.3459Z" fill="#ADB5BD"/>
<path id="Ellipse 483" opacity="0.4" d="M16.5 9.83203C16.5 13.9742 13.1421 17.332 9 17.332C4.85786 17.332 1.5 13.9742 1.5 9.83203C1.5 5.6899 4.85786 2.33203 9 2.33203C13.1421 2.33203 16.5 5.6899 16.5 9.83203Z" fill="#ADB5BD"/>
<path id="Ellipse 482 (Stroke)" fill-rule="evenodd" clip-rule="evenodd" d="M5.57116 0.415762C5.70946 0.732024 5.56519 1.10052 5.24893 1.23882C3.59031 1.96412 2.1812 3.15619 1.18849 4.64923C0.997378 4.93667 0.609431 5.01476 0.321989 4.82364C0.0345482 4.63252 -0.0435386 4.24458 0.147578 3.95713C1.27175 2.26636 2.86748 0.915913 4.74811 0.0935314C5.06437 -0.044767 5.43286 0.0995006 5.57116 0.415762ZM12.4316 0.415762C12.5699 0.0995006 12.9384 -0.044767 13.2546 0.0935314C15.1353 0.915913 16.731 2.26636 17.8552 3.95713C18.0463 4.24458 17.9682 4.63252 17.6808 4.82364C17.3933 5.01476 17.0054 4.93667 16.8142 4.64923C15.8215 3.15619 14.4124 1.96412 12.7538 1.23882C12.4375 1.10052 12.2933 0.732024 12.4316 0.415762Z" fill="#ADB5BD"/>
<path id="Vector 1109 (Stroke)" fill-rule="evenodd" clip-rule="evenodd" d="M9 5.04102C9.34518 5.04102 9.625 5.32084 9.625 5.66602V9.49819L11.8467 10.9793C12.1339 11.1708 12.2115 11.5588 12.02 11.846C11.8286 12.1332 11.4405 12.2109 11.1533 12.0194L8.65331 10.3527C8.47944 10.2368 8.375 10.0417 8.375 9.83268V5.66602C8.375 5.32084 8.65482 5.04102 9 5.04102Z" fill="#ADB5BD"/>
</g>
</svg>
