<svg width="38" height="37" viewBox="0 0 38 37" fill="none" xmlns="http://www.w3.org/2000/svg">
<path d="M37.9905 2.44375C37.6696 2.5764 37.3329 2.49502 37.0038 2.5056C36.8091 2.51211 36.7205 2.56582 36.7406 2.76275C36.7515 2.87017 36.7423 2.97922 36.7423 3.08745C36.7423 11.4636 36.7431 19.8397 36.7414 28.2159C36.7414 30.0786 35.6236 31.519 33.8507 31.9552C33.5265 32.0349 33.1965 32.0723 32.8615 32.0715C30.3468 32.0707 27.832 32.065 25.3181 32.078C24.9931 32.0797 24.8845 31.9999 24.9003 31.6744C24.9279 31.121 24.9271 30.5644 24.9003 30.0111C24.8845 29.688 24.9922 29.6017 25.3181 29.6034C27.7217 29.6156 30.1245 29.6107 32.5282 29.6091C32.7086 29.6091 32.8908 29.6091 33.0679 29.5838C33.6828 29.4959 34.1164 29.0297 34.1548 28.4275C34.1607 28.3331 34.1573 28.2379 34.1573 28.1435C34.1573 19.7535 34.1548 11.3643 34.1648 2.97433C34.1648 2.61872 34.093 2.50072 33.697 2.50072C23.8886 2.51293 14.081 2.51211 4.27265 2.50072C3.88415 2.50072 3.7981 2.60732 3.80061 2.97026C3.81648 5.5548 3.80144 8.13934 3.81815 10.7239C3.82066 11.0722 3.71623 11.156 3.37703 11.1389C2.80891 11.1112 2.23745 11.1112 1.66933 11.1389C1.34433 11.1544 1.28167 11.0445 1.28251 10.7499C1.2942 8.16538 1.28084 5.58084 1.29838 2.99631C1.30089 2.61221 1.21316 2.482 0.800444 2.49909C0.0117621 2.53246 6.54818e-05 2.50804 0.013433 1.74635C0.0234586 1.16695 -0.0467207 0.585101 0.0602192 0.00732394C12.5789 0.00732394 25.0967 0.00895148 37.6153 0C37.9278 0 38.0113 0.0667293 37.9988 0.373521C37.9721 1.06279 37.9905 1.75368 37.9905 2.44375Z" fill="white"/>
<path d="M7.56857 36.9989C5.55425 36.9989 3.53994 37.0005 1.52646 36.9989C0.498004 36.9981 0.0109266 36.5359 0.0125975 35.539C0.0151039 33.4419 -0.0366951 31.3424 0.0552064 29.2494C0.167159 26.7129 2.3352 24.7492 4.95105 24.6898C5.70046 24.6727 6.45322 24.6499 7.20096 24.6898C9.0816 24.7907 10.8979 24.4929 12.7075 24.016C15.0493 23.3984 17.412 22.858 19.7672 22.2876C20.5091 22.1077 20.9962 22.312 21.3855 22.9467C22.5234 24.8005 22.028 27.0278 20.1942 28.2395C18.7697 29.1802 17.3377 30.1112 15.8982 31.0299C15.4094 31.3416 15.1797 31.7493 15.1855 32.3149C15.1972 33.3972 15.1922 34.4795 15.1872 35.5618C15.183 36.531 14.6976 36.9973 13.6942 36.9989C11.6523 37.0014 9.61045 36.9989 7.56857 36.9989ZM7.60031 34.5234C9.12755 34.5234 10.6556 34.5039 12.1829 34.5356C12.629 34.5454 12.7142 34.4022 12.695 34.0132C12.6641 33.4061 12.6791 32.7958 12.6891 32.1879C12.7117 30.8476 13.2848 29.7946 14.4353 29.0467C15.9124 28.0865 17.3861 27.1197 18.8666 26.1644C19.1857 25.9585 19.4046 25.6981 19.4782 25.3343C19.5542 24.9575 19.4999 24.9103 19.1156 25.0031C17.138 25.4824 15.1513 25.9267 13.1879 26.4549C11.2989 26.9635 9.39657 27.2451 7.43406 27.1482C6.68631 27.1116 5.93439 27.1385 5.18498 27.1433C3.63686 27.1531 2.55743 28.1882 2.54824 29.6872C2.53822 31.1748 2.55493 32.6631 2.53822 34.1507C2.53487 34.4591 2.62761 34.5332 2.93423 34.5299C4.48903 34.5145 6.04467 34.5226 7.60031 34.5226V34.5234Z" fill="white"/>
<path d="M13.3308 17.9119C13.3383 20.9457 10.7868 23.4472 7.67467 23.4578C4.53582 23.4692 1.97093 20.9823 1.96676 17.9241C1.96258 14.8546 4.48903 12.3783 7.64292 12.3612C10.7709 12.3449 13.3241 14.8351 13.3316 17.9111L13.3308 17.9119ZM7.69556 14.8302C5.99371 14.7887 4.53081 16.142 4.48319 17.8004C4.43389 19.5191 5.7957 20.9269 7.56021 20.9807C9.29882 21.0335 10.7676 19.6941 10.8119 18.0145C10.8578 16.273 9.48847 14.8733 7.69556 14.8302Z" fill="white"/>
<path d="M24.0691 17.2918C21.6796 17.2918 19.2902 17.2853 16.9007 17.2991C16.559 17.3016 16.4379 17.221 16.4579 16.876C16.488 16.3495 16.4872 15.8197 16.4579 15.2932C16.4379 14.9327 16.534 14.8058 16.9308 14.8139C18.1949 14.8399 19.4589 14.8237 20.723 14.8237C24.2102 14.8237 27.6967 14.8285 31.1839 14.8163C31.5423 14.8147 31.6743 14.8928 31.6501 15.2623C31.615 15.788 31.6192 16.3186 31.6493 16.8443C31.6685 17.1925 31.5766 17.304 31.1964 17.3008C28.8212 17.2821 26.4451 17.291 24.0699 17.291L24.0691 17.2918Z" fill="white"/>
<path d="M21.5267 11.1316C19.9569 11.1316 18.3879 11.1267 16.818 11.1365C16.559 11.1381 16.4496 11.0844 16.4588 10.8061C16.4797 10.1982 16.473 9.58867 16.4613 8.97997C16.4571 8.75781 16.5206 8.67317 16.7637 8.67399C19.9301 8.6805 23.0974 8.6805 26.2638 8.67399C26.4927 8.67399 26.5813 8.73095 26.5755 8.96776C26.5604 9.58948 26.5562 10.2128 26.5771 10.8346C26.5863 11.1072 26.4685 11.1381 26.2354 11.1365C24.6656 11.1283 23.0966 11.1324 21.5267 11.1324V11.1316Z" fill="white"/>
</svg>
