<svg width="60" height="68" viewBox="0 0 60 68" fill="none" xmlns="http://www.w3.org/2000/svg">
<g id="calendar delete">
<path id="Rectangle 116" opacity="0.4" d="M0.75 20.375C0.75 13.1953 6.5703 7.375 13.75 7.375H46.25C53.4297 7.375 59.25 13.1953 59.25 20.375V25.25V54.5C59.25 61.6797 53.4297 67.5 46.25 67.5H13.75C6.5703 67.5 0.75 61.6797 0.75 54.5V25.25V20.375Z" fill="#6C757D"/>
<path id="Vector" d="M46.25 7.375H13.75C6.5703 7.375 0.75 13.1953 0.75 20.375V25.25H59.25V20.375C59.25 13.1953 53.4297 7.375 46.25 7.375Z" fill="#6C757D"/>
<path id="Vector 422 (Stroke)" opacity="0.4" fill-rule="evenodd" clip-rule="evenodd" d="M17 0.0625C18.3462 0.0625 19.4375 1.15381 19.4375 2.5V12.25C19.4375 13.5962 18.3462 14.6875 17 14.6875C15.6538 14.6875 14.5625 13.5962 14.5625 12.25V2.5C14.5625 1.15381 15.6538 0.0625 17 0.0625ZM43 0.0625C44.3462 0.0625 45.4375 1.15381 45.4375 2.5V12.25C45.4375 13.5962 44.3462 14.6875 43 14.6875C41.6538 14.6875 40.5625 13.5962 40.5625 12.25V2.5C40.5625 1.15381 41.6538 0.0625 43 0.0625Z" fill="#6C757D"/>
<path id="Vector (Stroke)" fill-rule="evenodd" clip-rule="evenodd" d="M21.382 36.1319C22.3339 35.18 23.8773 35.18 24.8292 36.1319L29.9998 41.3026L35.1705 36.1319C36.1224 35.18 37.6657 35.18 38.6176 36.1319C39.5695 37.0838 39.5695 38.6271 38.6176 39.579L33.447 44.7497L38.6177 49.9205C39.5696 50.8724 39.5696 52.4157 38.6177 53.3676C37.6658 54.3195 36.1225 54.3195 35.1706 53.3676L29.9998 48.1968L24.829 53.3676C23.8771 54.3195 22.3338 54.3195 21.3819 53.3676C20.43 52.4157 20.43 50.8724 21.3819 49.9205L26.5527 44.7497L21.382 39.579C20.4301 38.6271 20.4301 37.0838 21.382 36.1319Z" fill="#6C757D"/>
</g>
</svg>
