<svg width="21" height="20" viewBox="0 0 21 20" fill="none" xmlns="http://www.w3.org/2000/svg">
<g id="Social">
<path id="Vector" d="M13.1968 0C13.7499 0 14.3031 0.0285633 14.8503 0.0514139C15.2093 0.0628392 15.5682 0.114253 15.9036 0.148529L15.8801 3.37047H15.6153C15.2505 3.37047 14.8856 3.37047 14.5208 3.37047C14.2501 3.37047 13.9735 3.37047 13.7029 3.38189C12.8261 3.41045 12.1788 3.73036 12.1317 4.79863C12.1023 5.56412 12.0846 7.26078 12.0846 7.35219C12.1317 7.35219 12.9967 7.35219 13.8735 7.35219C14.309 7.35219 14.7385 7.35219 15.0327 7.35219H15.7448C15.5682 8.58612 15.4035 9.77435 15.2269 10.9683H12.0846L12.014 20H8.15378L8.2244 10.9512H5.07031L5.09974 7.35219H8.27147V7.08369C8.27736 6.35818 8.27147 5.63268 8.30089 4.90717C8.31266 4.45016 8.3362 3.98172 8.41858 3.53042C8.63043 2.42788 9.16003 1.50243 10.1074 0.845473C10.9371 0.268495 11.8845 0.0228506 12.8849 0C12.9849 0 13.0909 0 13.1909 0H13.1968Z" fill="#ADB5BD"/>
</g>
</svg>
