<svg width="21" height="20" viewBox="0 0 21 20" fill="none" xmlns="http://www.w3.org/2000/svg">
<g id="Social" clip-path="url(#clip0_5757_2049)">
<g id="Vector">
<path d="M3.10162 0C4.4387 0 5.50694 1.0805 5.49279 2.40818C5.48572 3.73587 4.40333 4.81638 3.05918 4.81638C1.71503 4.81638 0.66093 3.73587 0.668004 2.40818C0.675079 1.0805 1.77162 0 3.10162 0Z" fill="white"/>
<path d="M5.132 6.63136L5.03295 20H0.866089L0.972206 6.63136H5.132Z" fill="white"/>
<path d="M15.7225 6.30649C19.9389 6.30649 20.6888 9.0678 20.6675 12.6695L20.6109 20H16.4582L16.5077 13.5099C16.5219 11.9562 16.5007 9.95762 14.3713 9.95762C12.2418 9.95762 11.8669 11.6455 11.8527 13.3898L11.8032 20H7.63636L7.7354 6.63842H11.7254L11.7113 8.46751H11.7749C12.3409 7.42231 13.6992 6.31356 15.7225 6.31356V6.30649Z" fill="white"/>
</g>
</g>
<defs>
<clipPath id="clip0_5757_2049">
<rect width="20" height="20" fill="white" transform="translate(0.667969)"/>
</clipPath>
</defs>
</svg>
