<svg width="20" height="20" viewBox="0 0 20 20" fill="none" xmlns="http://www.w3.org/2000/svg">
<g id="pinterest">
<path id="combo shape" fill-rule="evenodd" clip-rule="evenodd" d="M20 10C20 15.5228 15.5228 20 10 20C9.16888 20 8.36144 19.8986 7.58937 19.7075L7.59397 19.6908L8.67149 15.5956C9.09841 15.6966 9.54331 15.75 10 15.75C13.1756 15.75 15.75 13.1756 15.75 10C15.75 6.82436 13.1756 4.25 10 4.25C6.82436 4.25 4.25 6.82436 4.25 10C4.25 11.0461 4.53003 12.029 5.01971 12.8755C5.22711 13.2341 5.68591 13.3566 6.04446 13.1492C6.403 12.9418 6.52552 12.483 6.31812 12.1245C5.95695 11.5001 5.75 10.7754 5.75 10C5.75 7.65279 7.65279 5.75 10 5.75C12.3472 5.75 14.25 7.65279 14.25 10C14.25 12.3472 12.3472 14.25 10 14.25C9.67407 14.25 9.35731 14.2134 9.05334 14.1444L10.2251 9.69084C10.3305 9.29026 10.0912 8.88008 9.69065 8.77469C9.29007 8.66929 8.8799 8.90858 8.7745 9.30916L6.1623 19.2371C2.54403 17.7321 0 14.1632 0 10C0 4.47715 4.47715 0 10 0C15.5228 0 20 4.47715 20 10Z" fill="#FFF"/>
</g>
</svg>
