<svg width="20" height="21" viewBox="0 0 20 21" fill="none" xmlns="http://www.w3.org/2000/svg">
<g id="share">
<path id="Vector (Stroke)" opacity="0.4" fill-rule="evenodd" clip-rule="evenodd" d="M16.0414 4.23116C16.2267 4.60164 16.0765 5.05215 15.706 5.23739L5.17885 10.501L15.706 15.7646C16.0765 15.9498 16.2267 16.4003 16.0414 16.7708C15.8562 17.1413 15.4057 17.2915 15.0352 17.1062L4.29757 11.7374C3.92708 11.5521 3.77691 11.1016 3.96216 10.7312C4.00736 10.6408 4.06835 10.5635 4.14012 10.501C4.06835 10.4385 4.00736 10.3612 3.96216 10.2708C3.77691 9.90032 3.92708 9.44981 4.29757 9.26457L15.0352 3.89575C15.4057 3.71051 15.8562 3.86068 16.0414 4.23116Z" fill="#ADB5BD"/>
<g id="Vector">
<path d="M20 4C20 5.933 18.433 7.5 16.5 7.5C15.1298 7.5 13.9434 6.7126 13.3688 5.56559C13.1328 5.09451 13 4.56276 13 4C13 2.067 14.567 0.5 16.5 0.5C18.433 0.5 20 2.067 20 4Z" fill="#ADB5BD"/>
<path d="M20 17C20 18.933 18.433 20.5 16.5 20.5C14.567 20.5 13 18.933 13 17C13 16.4372 13.1328 15.9055 13.3688 15.4344C13.9434 14.2874 15.1298 13.5 16.5 13.5C18.433 13.5 20 15.067 20 17Z" fill="#ADB5BD"/>
<path d="M7 10.5C7 11.0628 6.86718 11.5945 6.63118 12.0656C6.05656 13.2126 4.87023 14 3.5 14C1.567 14 0 12.433 0 10.5C0 8.567 1.567 7 3.5 7C4.87023 7 6.05656 7.7874 6.63118 8.93441C6.86718 9.40549 7 9.93724 7 10.5Z" fill="#ADB5BD"/>
</g>
</g>
</svg>
