<svg width="21" height="20" viewBox="0 0 21 20" fill="none" xmlns="http://www.w3.org/2000/svg">
<g id="Social">
<path id="Vector" d="M15.0768 9.26961C14.9906 9.22832 14.9031 9.18858 14.8145 9.15053C14.6601 6.30606 13.1058 4.6776 10.496 4.66094C10.4842 4.66086 10.4724 4.66086 10.4606 4.66086C8.89962 4.66086 7.60136 5.32718 6.80229 6.53966L8.2376 7.52425C8.83454 6.61857 9.77137 6.4255 10.4613 6.4255C10.4693 6.4255 10.4773 6.4255 10.4852 6.42557C11.3445 6.43105 11.9929 6.6809 12.4126 7.16813C12.718 7.52284 12.9223 8.01302 13.0234 8.63165C12.2616 8.50216 11.4376 8.46234 10.5568 8.51284C8.07549 8.65577 6.48032 10.1029 6.58746 12.1137C6.64182 13.1337 7.14997 14.0112 8.01823 14.5845C8.75233 15.0691 9.69781 15.306 10.6804 15.2524C11.9781 15.1812 12.9961 14.6861 13.7064 13.7808C14.2457 13.0933 14.5869 12.2024 14.7375 11.0798C15.3559 11.453 15.8143 11.9442 16.0674 12.5346C16.4978 13.5382 16.5229 15.1875 15.1772 16.5321C13.9981 17.71 12.5808 18.2196 10.4389 18.2353C8.06294 18.2177 6.26602 17.4557 5.09772 15.9705C4.0037 14.5798 3.4383 12.571 3.41721 10C3.4383 7.42894 4.0037 5.42017 5.09772 4.02945C6.26602 2.54426 8.06291 1.78229 10.4389 1.76464C12.8321 1.78243 14.6603 2.54806 15.8733 4.04042C16.4681 4.77225 16.9166 5.69258 17.2122 6.76566L18.8942 6.3169C18.5358 4.99606 17.972 3.85789 17.2047 2.91396C15.6496 1.0007 13.3752 0.0203279 10.4447 0H10.433C7.5085 0.0202573 5.25959 1.00435 3.74878 2.92493C2.40436 4.634 1.71087 7.01205 1.68757 9.99297L1.6875 10L1.68757 10.007C1.71087 12.9879 2.40436 15.366 3.74878 17.0751C5.25959 18.9956 7.5085 19.9798 10.433 20H10.4447C13.0448 19.982 14.8775 19.3013 16.3873 17.7928C18.3626 15.8194 18.3031 13.3457 17.6521 11.8272C17.185 10.7382 16.2945 9.85377 15.0768 9.26961ZM10.5876 13.4903C9.50005 13.5516 8.37025 13.0634 8.31454 12.0179C8.27325 11.2427 8.86623 10.3777 10.6543 10.2747C10.8591 10.2629 11.06 10.2571 11.2574 10.2571C11.9069 10.2571 12.5145 10.3202 13.0669 10.4409C12.8608 13.0141 11.6523 13.4319 10.5876 13.4903Z" fill="#ADB5BD"/>
</g>
</svg>
