<svg xmlns="http://www.w3.org/2000/svg" width="25" height="24" viewBox="0 0 25 24" fill="none">
  <g clip-path="url(#clip0_5766_17367)">
    <path fill-rule="evenodd" clip-rule="evenodd" d="M22.9367 4.81978C23.3079 5.19337 23.5745 5.6579 23.7098 6.16689C24.21 8.04553 24.21 11.9632 24.21 11.9632C24.21 11.9632 24.21 15.8809 23.7098 17.7596C23.5745 18.2685 23.3079 18.7331 22.9367 19.1067C22.5655 19.4803 22.1027 19.7498 21.5946 19.8883C19.7241 20.3913 12.2476 20.3913 12.2476 20.3913C12.2476 20.3913 4.77106 20.3913 2.90058 19.8883C2.39247 19.7498 1.92965 19.4803 1.55844 19.1067C1.18724 18.7331 0.920665 18.2685 0.785403 17.7596C0.285156 15.8809 0.285156 11.9632 0.285156 11.9632C0.285156 11.9632 0.285156 8.04553 0.785403 6.16689C0.920665 5.6579 1.18724 5.19337 1.55844 4.81978C1.92965 4.44618 2.39247 4.17664 2.90058 4.03812C4.77106 3.53516 12.2476 3.53516 12.2476 3.53516C12.2476 3.53516 19.7241 3.53516 21.5946 4.03812C22.1027 4.17664 22.5655 4.44618 22.9367 4.81978ZM16.0538 11.9633L9.80073 8.4058V15.5207L16.0538 11.9633Z" fill="#ADB5BD"/>
  </g>
  <defs>
    <clipPath id="clip0_5766_17367">
      <rect width="23.9248" height="23.9248" fill="white" transform="translate(0.261719)"/>
    </clipPath>
  </defs>
</svg>