<svg xmlns="http://www.w3.org/2000/svg" width="155" height="94" viewBox="0 0 155 94" fill="none">
  <path d="M125.942 37.57C126.542 37.3825 127.854 36.8951 127.742 37.9824C126.017 39.4448 123.805 40.0072 121.743 40.6821C120.618 40.9446 119.343 41.507 118.218 41.0195C117.731 40.6071 118.443 40.2322 118.743 40.0822C121.03 38.9198 123.543 38.3949 125.942 37.57Z" fill="#1F2548"/>
  <path d="M51.4417 55.2677C53.0164 55.7551 54.2163 56.9549 55.491 58.0048C56.5409 59.0172 57.7782 59.992 58.4156 61.3793C57.9656 61.2669 57.5532 61.1169 57.1783 60.8544C55.716 59.842 54.3662 58.6797 53.0914 57.4424C52.454 56.8049 51.7417 56.1675 51.4792 55.2302" fill="#1F2548"/>
  <path d="M98.909 0H101.684C104.083 0.29996 106.783 1.04986 108.17 3.26207C109.895 6.07419 109.67 9.59872 109.032 12.7108C107.72 18.7475 105.171 24.3718 102.433 29.846C98.4216 37.945 93.8474 45.7064 89.3856 53.5804C88.7857 54.7052 88.1858 55.8301 87.6983 56.9924C92.0102 54.4803 95.7596 50.9182 100.484 49.231C102.471 48.4811 104.796 48.2561 106.745 49.3059C108.732 50.3183 110.007 52.2681 111.582 53.8053C113.532 52.343 115.481 50.8057 117.469 49.4184C118.293 48.8935 119.156 48.2561 120.131 48.2561C120.543 48.7435 120.243 49.4559 120.056 49.9809C119.606 51.1057 119.118 52.1931 118.931 53.3929C120.918 52.643 122.568 51.2557 124.33 50.1308C124.78 49.8309 125.267 49.7184 125.792 49.6059C125.942 50.4683 125.717 51.5182 126.242 52.268C127.517 52.8305 128.867 52.0056 130.179 52.0431C130.816 51.9306 130.929 52.6055 130.891 53.0929C130.891 53.9928 130.666 54.8927 130.779 55.7926C130.779 56.205 131.304 56.355 131.641 56.3175C133.478 56.2425 135.203 55.5301 136.853 54.7427C139.815 53.2804 143.114 52.2681 146.414 52.343C148.551 52.343 150.763 53.5429 151.626 55.6051C152.638 57.9298 152.788 60.517 153.05 63.0291C153.688 71.728 153.763 80.4643 154.625 89.1631C154.775 90.4005 154.962 91.6378 155 92.8752V94C153.913 92.9876 153.763 91.4128 153.425 90.063C152.525 83.6139 152.863 77.0898 152.525 70.6031C152.338 66.6286 152.075 62.5792 151.251 58.6797C150.876 57.1049 150.426 55.3051 148.926 54.4803C146.976 53.3554 144.614 53.7304 142.552 54.2553C139.103 55.0802 135.916 56.9174 132.391 57.5548C131.454 57.6673 130.329 57.8173 129.579 57.1049C128.717 56.205 129.729 54.7052 128.979 53.7679C127.929 53.7304 126.805 54.1428 125.792 53.6929C125.08 53.4679 124.892 52.6055 124.33 52.268C122.755 52.793 121.593 54.2553 119.868 54.5552C119.043 54.7802 117.769 54.7427 117.544 53.6929C117.544 52.8305 117.843 52.0056 117.918 51.1432C116.081 51.7431 114.582 53.0929 113.157 54.3678C111.619 55.6801 112.069 57.8923 112.032 59.6921C111.32 59.4296 110.945 58.7172 110.42 58.2298C108.32 58.0798 106.97 60.5919 104.796 60.142C104.121 59.917 104.196 59.0172 104.533 58.5672C105.396 57.2924 106.82 56.43 108.32 56.205C108.92 56.055 109.782 55.9801 109.97 55.2302C109.895 54.0303 109.032 53.0929 108.32 52.2306C107.045 50.8432 105.395 49.3809 103.371 49.6809C100.896 49.9809 98.7216 51.2932 96.5844 52.493C93.4724 54.2928 90.8853 56.9174 87.5484 58.3422C86.986 58.5297 86.2361 58.9422 85.7112 58.4172C85.7862 57.7048 86.2361 57.1049 86.5735 56.4675C92.4226 46.0814 98.7216 35.9202 103.596 24.9717C105.47 20.6972 107.233 16.3478 108.095 11.7359C108.545 9.14878 108.77 6.29916 107.458 3.93698C106.37 2.02473 104.158 1.16235 102.096 1.01237C98.2342 0.712405 94.4473 1.87475 90.8478 3.22457C82.5992 6.48664 75.0254 11.3235 67.7516 16.4228C51.2167 28.1963 36.2567 42.1069 22.009 56.6175C16.7973 61.8668 11.6231 67.1911 6.56144 72.5529C4.83672 74.4276 3.0745 76.2649 1.49976 78.2896C2.09966 78.702 2.81205 79.002 3.52443 79.077C6.86139 79.6019 10.2733 79.4519 13.6103 79.8269C10.1609 79.7894 6.67392 79.9769 3.22448 79.9394C2.09966 79.9394 0.899855 79.9394 0 79.1895V78.5146C0.937349 76.9773 2.17465 75.6649 3.37446 74.3526C5.47412 72.0654 7.61127 69.8157 9.74843 67.6035C20.1343 56.9549 30.745 46.5688 41.7308 36.5951C47.5423 31.3458 53.5039 26.2465 59.6529 21.4097C66.9267 15.7104 74.463 10.2736 82.5617 5.88672C87.6984 3.14958 93.0975 0.787395 98.8716 0" fill="#1F2548"/>
</svg>