<svg width="39" height="42" viewBox="0 0 39 42" fill="none" xmlns="http://www.w3.org/2000/svg">
<g id="Vector">
<path d="M19.7887 0.505862C21.2008 0.533775 22.8066 1.12154 24.095 2.39196C28.7957 7.02866 33.4739 11.6877 38.157 16.3427C38.7385 16.9209 38.7377 17.7567 38.1843 18.3014C37.6148 18.862 36.785 18.8238 36.1536 18.1977C31.5806 13.6591 27.0109 9.11733 22.4371 4.57952C21.0747 3.22775 19.2216 2.89439 17.5403 3.68791C17.0512 3.91839 16.6399 4.25095 16.2599 4.62897C11.7649 9.0942 7.26737 13.5578 2.77149 18.0231C2.56264 18.2312 2.34897 18.4226 2.05177 18.5072C1.45494 18.677 0.844457 18.4641 0.508692 17.9545C0.176943 17.4521 0.217106 16.7893 0.61151 16.3268C0.671755 16.2558 0.740836 16.1928 0.806704 16.1266C5.36042 11.6047 9.91253 7.08289 14.467 2.56422C15.8382 1.20368 17.5243 0.504267 19.7887 0.505862Z" fill="white"/>
<path d="M19.4023 13.9638C23.2074 13.9566 26.3369 17.0844 26.3409 20.8989C26.3449 24.6623 23.1913 27.7997 19.4039 27.7997C15.5619 27.7997 12.4131 24.7046 12.4075 20.922C12.401 17.0716 15.5185 13.9709 19.4023 13.9638ZM23.3496 20.9324C23.3946 18.7783 21.6458 16.9943 19.4272 16.9321C17.2761 16.8715 15.4302 18.6555 15.3972 20.8271C15.3643 23.0003 17.1459 24.7987 19.3638 24.8322C21.5093 24.8641 23.3038 23.108 23.3496 20.9332V20.9324Z" fill="white"/>
<path d="M7.05612 24.679C7.05612 26.0579 7.0521 27.4376 7.05692 28.8165C7.06656 31.3725 8.81447 33.1055 11.393 33.1111C13.9706 33.1167 16.5483 33.1111 19.126 33.1127C20.2281 33.1127 20.7341 33.6215 20.7341 34.7236C20.7341 36.3681 20.7357 38.0125 20.7341 39.657C20.7333 40.5103 20.1743 41.1093 19.3798 41.1156C18.5669 41.1228 18.007 40.5239 18.0054 39.6418C18.0038 38.5142 17.991 37.3873 18.0135 36.2604C18.0199 35.9175 17.9396 35.8122 17.5773 35.8154C15.4671 35.8338 13.3569 35.8322 11.2468 35.8226C8.09875 35.8082 5.45521 33.8376 4.59169 30.8805C4.4198 30.2903 4.32822 29.6874 4.32662 29.0765C4.31858 26.1058 4.31939 23.1351 4.32421 20.1644C4.32581 19.4315 4.79974 18.8884 5.5026 18.7743C6.12915 18.6722 6.76051 19.0582 6.98462 19.6731C7.05531 19.8661 7.05371 20.0631 7.05371 20.2617C7.05451 21.7339 7.05371 23.2061 7.05371 24.6783L7.05612 24.679Z" fill="white"/>
<path d="M31.6947 24.6232C31.6947 23.0713 31.6859 21.5193 31.6987 19.9682C31.7043 19.3206 32.1405 18.8006 32.7333 18.6659C33.3398 18.5271 33.972 18.8126 34.2587 19.3573C34.372 19.5726 34.4234 19.8063 34.4234 20.0471C34.4234 23.084 34.474 26.1225 34.4073 29.1578C34.3238 32.9436 31.3156 35.8019 27.4984 35.825C26.6036 35.8306 25.7088 35.829 24.8139 35.8282C23.9657 35.8282 23.356 35.2588 23.3536 34.4684C23.3504 33.6781 23.9576 33.1095 24.8059 33.1103C25.6477 33.1103 26.4887 33.1151 27.3306 33.1127C29.9388 33.1063 31.6827 31.3829 31.6915 28.8014C31.6963 27.4089 31.6915 26.0165 31.6915 24.624H31.6939L31.6947 24.6232Z" fill="white"/>
</g>
</svg>
