<svg width="41" height="42" viewBox="0 0 41 42" fill="none" xmlns="http://www.w3.org/2000/svg">
<path id="Vector" d="M38.8855 41.1157H1.80911C1.8021 40.3603 1.817 39.6049 1.77757 38.8513C1.75653 38.4434 1.89763 38.3659 2.27008 38.3676C5.50474 38.3828 8.74028 38.3721 11.9749 38.3828C12.2861 38.3837 12.3991 38.3249 12.3965 37.9748C12.3816 35.1011 12.3798 32.2275 12.3974 29.3538C12.4 28.977 12.2668 28.9289 11.9495 28.9316C10.3318 28.9458 8.71487 28.9351 7.0971 28.9396C6.64314 28.9405 6.19444 28.8986 5.75188 28.8015C2.57593 28.1085 0.461266 25.4308 0.448121 22.0628C0.436728 19.0118 0.441986 15.96 0.448121 12.9091C0.449874 12.3025 0.47003 11.695 0.569935 11.0937C1.3683 6.28078 4.00704 2.97152 8.51067 1.31021C11.3764 0.252857 14.3876 0.380238 17.3243 0.881749C22.4212 1.75293 26.4087 6.27098 26.8968 11.4607C26.9301 11.8134 27.1074 11.9402 27.4288 11.841C32.4687 10.2875 37.9425 13.122 39.6795 18.1709C40.0388 19.2149 40.172 20.2955 40.285 21.3831V27.7825C40.2596 27.9259 40.2237 28.0684 40.2105 28.2127C39.959 31.0205 38.0065 33.3668 35.3283 34.1044C34.1978 34.4161 33.0471 34.3342 31.9008 34.3368C31.6187 34.3368 31.5284 34.4126 31.5336 34.7074C31.5503 35.7719 31.5608 36.8382 31.5293 37.9018C31.5179 38.3008 31.6327 38.3881 32.0104 38.3854C34.1785 38.3667 36.3466 38.3765 38.5148 38.3748C38.726 38.3748 38.9196 38.348 38.9109 38.6758C38.889 39.4882 38.8916 40.3015 38.8846 41.1148L38.8855 41.1157ZM12.2685 21.5764C12.3045 21.5532 12.3413 21.5292 12.3772 21.506C12.3807 21.4357 12.3877 21.3653 12.3877 21.2949C12.3877 19.9472 12.4026 18.5985 12.3789 17.2516C12.3719 16.8695 12.4894 16.7742 12.8452 16.7929C13.4122 16.8223 13.9827 16.8241 14.5497 16.7929C14.9283 16.7715 15.0413 16.8784 15.0387 17.2793C15.0203 20.1084 15.0361 22.9375 15.0203 25.7666C15.0186 26.147 15.0983 26.2735 15.4971 26.2673C17.0412 26.2414 18.5862 26.261 20.1313 26.2557C22.614 26.2477 24.3124 24.5445 24.3238 22.0227C24.3378 18.9718 24.3457 15.9199 24.322 12.869C24.2905 8.74201 21.9112 5.23233 18.2182 3.89616C15.7749 3.01161 13.2176 3.09534 10.7419 3.50956C6.18919 4.27206 3.12454 8.1532 3.10613 12.8485C3.09387 15.8994 3.1 18.9513 3.10526 22.0022C3.10964 24.5124 4.75808 26.2138 7.22768 26.2548C8.78673 26.2806 10.3458 26.2842 11.9048 26.3002C12.485 26.3064 12.5183 26.261 12.4604 25.6731C12.4394 25.4655 12.3018 25.3649 12.1826 25.2429C10.7112 23.7428 9.24156 22.2418 7.75875 20.7533C7.54404 20.5377 7.47744 20.4148 7.74035 20.1752C8.2057 19.7503 8.64213 19.2906 9.06804 18.823C9.27224 18.5985 9.39755 18.5834 9.61402 18.8141C10.4886 19.7449 11.3816 20.6571 12.2685 21.5764ZM31.5398 27.5402C31.5398 28.7837 31.5477 30.0281 31.5336 31.2717C31.5301 31.5576 31.6064 31.6609 31.8973 31.6502C32.4941 31.6289 33.0918 31.6609 33.6886 31.6378C36.0215 31.5478 37.6551 29.8241 37.6472 27.4475C37.6402 25.4192 37.6367 23.39 37.5779 21.3626C37.4176 15.8326 31.9552 12.7986 27.3639 14.761C27.0896 14.8786 26.9783 15.0211 26.9809 15.3418C26.9976 17.6071 27.0142 19.8732 26.9827 22.1376C26.9441 24.8767 25.7198 26.9122 23.337 28.2047C23.096 28.3356 23.0294 28.4417 23.1144 28.7107C23.571 30.1653 24.5122 31.1104 25.9582 31.5131C26.7846 31.7438 27.64 31.5995 28.4804 31.6538C28.8835 31.6796 28.9589 31.5291 28.9563 31.1523C28.9405 28.7392 28.9528 26.3252 28.9422 23.912C28.9414 23.6145 29.0062 23.4916 29.3252 23.504C29.9509 23.5281 30.5784 23.5245 31.2041 23.5049C31.4749 23.4969 31.5485 23.5815 31.5459 23.8541C31.5319 25.0825 31.5398 26.3109 31.5398 27.5402ZM21.962 38.3765C24.1468 38.3765 26.3315 38.3765 28.5163 38.3765C28.7275 38.3765 28.9475 38.4389 28.9414 38.0657C28.9238 36.9263 28.937 35.7861 28.9492 34.646C28.9519 34.4126 28.8721 34.3368 28.646 34.3413C28.1071 34.3538 27.5681 34.3493 27.0291 34.344C23.8725 34.3146 21.3529 32.3468 20.5186 29.2496C20.452 29.002 20.3469 28.9316 20.0997 28.9334C18.5415 28.9458 16.9825 28.9503 15.4243 28.9307C15.0817 28.9262 15.0203 29.0438 15.0212 29.3609C15.0326 32.2186 15.0352 35.0753 15.0186 37.9329C15.0159 38.3249 15.1518 38.3872 15.4944 38.3846C17.6503 38.3703 19.8053 38.3774 21.9611 38.3774L21.962 38.3765Z" fill="white"/>
</svg>
