<svg width="41" height="41" viewBox="0 0 41 41" fill="none" xmlns="http://www.w3.org/2000/svg">
<g id="Vector">
<path d="M40.0016 2.90305C39.6652 3.04589 39.3122 2.95826 38.967 2.96965C38.7629 2.97666 38.67 3.0345 38.6911 3.24657C38.7025 3.36224 38.6928 3.47967 38.6928 3.59622C38.6928 12.6161 38.6937 21.636 38.6919 30.6559C38.6919 32.6618 37.5199 34.2128 35.661 34.6825C35.3211 34.7684 34.9751 34.8087 34.6238 34.8079C31.987 34.807 29.3503 34.8008 26.7144 34.8149C26.3736 34.8166 26.2597 34.7307 26.2764 34.3802C26.3053 33.7843 26.3044 33.1849 26.2764 32.589C26.2597 32.2411 26.3727 32.1482 26.7144 32.15C29.2346 32.1631 31.754 32.1579 34.2743 32.1561C34.4635 32.1561 34.6545 32.1561 34.8402 32.129C35.4849 32.0343 35.9396 31.5322 35.9798 30.8837C35.986 30.7821 35.9825 30.6795 35.9825 30.5779C35.9825 21.5431 35.9798 12.5092 35.9904 3.47441C35.9904 3.09146 35.915 2.96439 35.4998 2.96439C25.2155 2.97754 14.9322 2.97666 4.64791 2.96439C4.24057 2.96439 4.15034 3.07919 4.15297 3.47003C4.16961 6.2532 4.15384 9.03637 4.17136 11.8195C4.17399 12.1946 4.06449 12.2849 3.70883 12.2665C3.11315 12.2367 2.51397 12.2367 1.91829 12.2665C1.57752 12.2831 1.51182 12.1648 1.5127 11.8476C1.52496 9.06441 1.51095 6.28124 1.52934 3.49807C1.53197 3.08445 1.43999 2.94424 1.00725 2.96264C0.180301 2.99857 0.168037 2.97228 0.182053 2.15205C0.192565 1.52812 0.118981 0.901553 0.23111 0.279371C13.3571 0.279371 26.4822 0.281124 39.6082 0.271484C39.9359 0.271484 40.0235 0.343342 40.0103 0.673712C39.9823 1.41595 40.0016 2.15994 40.0016 2.90305Z" fill="white"/>
<path d="M8.10373 40.1139C5.99169 40.1139 3.87965 40.1157 1.76849 40.1139C0.690134 40.1131 0.179425 39.6153 0.181177 38.5418C0.183805 36.2836 0.129493 34.0227 0.225853 31.7688C0.343238 29.0373 2.61646 26.9228 5.35922 26.8588C6.14499 26.8404 6.93427 26.8159 7.71829 26.8588C9.69017 26.9675 11.5946 26.6468 13.492 26.1332C15.9474 25.4681 18.4248 24.8862 20.8942 24.2719C21.6721 24.0783 22.1828 24.2982 22.591 24.9818C23.7842 26.978 23.2647 29.3765 21.3419 30.6813C19.8483 31.6943 18.3468 32.6968 16.8375 33.6862C16.325 34.0218 16.0841 34.4608 16.0902 35.0699C16.1025 36.2354 16.0972 37.4009 16.092 38.5664C16.0876 39.61 15.5787 40.1122 14.5266 40.1139C12.3856 40.1166 10.2447 40.1139 8.10373 40.1139ZM8.13702 37.4482C9.73835 37.4482 11.3406 37.4272 12.9419 37.4613C13.4097 37.4718 13.499 37.3176 13.4789 36.8987C13.4465 36.245 13.4622 35.5878 13.4727 34.9332C13.4964 33.4899 14.0973 32.3559 15.3036 31.5506C16.8524 30.5166 18.3976 29.4755 19.9499 28.4467C20.2845 28.225 20.514 27.9446 20.5911 27.5529C20.6708 27.1471 20.6139 27.0963 20.2109 27.1962C18.1375 27.7123 16.0543 28.1908 13.9957 28.7595C12.0151 29.3072 10.0204 29.6104 7.9627 29.5062C7.17868 29.4667 6.39027 29.4956 5.6045 29.5009C3.98127 29.5114 2.84948 30.6261 2.83984 32.2403C2.82933 33.8422 2.84685 35.4449 2.82933 37.0468C2.82583 37.379 2.92306 37.4587 3.24455 37.4552C4.87479 37.4385 6.50591 37.4473 8.13702 37.4473V37.4482Z" fill="white"/>
<path d="M14.1455 19.56C14.1534 22.8269 11.4781 25.5207 8.21498 25.5321C4.92385 25.5444 2.23452 22.8663 2.23014 19.5732C2.22576 16.2677 4.87479 13.6011 8.1817 13.5827C11.4614 13.5652 14.1385 16.2467 14.1464 19.5591L14.1455 19.56ZM8.23689 16.2414C6.45247 16.1967 4.91859 17.654 4.86866 19.44C4.81698 21.2907 6.24486 22.8068 8.09497 22.8646C9.91793 22.9215 11.4579 21.4791 11.5044 19.6704C11.5526 17.7951 10.1168 16.2879 8.23689 16.2414Z" fill="white"/>
<path d="M25.4048 18.8923C22.8994 18.8923 20.394 18.8853 17.8887 18.9001C17.5304 18.9028 17.4034 18.816 17.4244 18.4445C17.4559 17.8775 17.455 17.307 17.4244 16.74C17.4034 16.3518 17.5041 16.2151 17.9202 16.2239C19.2456 16.2519 20.571 16.2344 21.8964 16.2344C25.5528 16.2344 29.2084 16.2397 32.8648 16.2265C33.2406 16.2248 33.379 16.3089 33.3536 16.7067C33.3168 17.2728 33.3212 17.8442 33.3527 18.4103C33.3729 18.7854 33.2765 18.9054 32.8779 18.9019C30.3875 18.8817 27.8961 18.8914 25.4056 18.8914L25.4048 18.8923Z" fill="white"/>
<path d="M22.7391 12.2586C21.0931 12.2586 19.448 12.2533 17.8019 12.2638C17.5304 12.2656 17.4156 12.2077 17.4253 11.908C17.4472 11.2534 17.4402 10.5971 17.4279 9.9416C17.4235 9.70237 17.4901 9.61123 17.745 9.61211C21.065 9.61912 24.386 9.61912 27.706 9.61211C27.946 9.61211 28.0389 9.67345 28.0328 9.92846C28.017 10.598 28.0126 11.2692 28.0345 11.9387C28.0442 12.2323 27.9206 12.2656 27.6762 12.2638C26.0302 12.2551 24.3851 12.2594 22.7391 12.2594V12.2586Z" fill="white"/>
</g>
</svg>
