<svg width="40" height="31" viewBox="0 0 40 31" fill="none" xmlns="http://www.w3.org/2000/svg">
<g id="Vector">
<path d="M26.5015 0.869141C27.4904 1.24061 27.6666 1.49432 27.6658 2.54112C27.6658 8.5828 27.6688 14.6245 27.6568 20.6661C27.6568 20.9976 27.7565 21.1496 28.0722 21.2746C28.7462 21.5428 29.328 21.9608 29.8505 22.4544C31.0688 23.6045 32.7902 23.6037 33.9905 22.4334C34.9831 21.4658 36.1745 20.9431 37.5734 20.8406C38.3209 20.7861 38.9439 21.2622 39.0144 21.9572C39.0856 22.6551 38.5826 23.2817 37.8314 23.3231C36.9422 23.3718 36.2539 23.7404 35.6302 24.3307C33.4987 26.348 30.1976 26.2891 28.0362 24.218C27.0615 23.2832 25.7623 23.0658 24.6092 23.6459C24.3198 23.792 24.0709 23.9905 23.8392 24.2137C21.6425 26.3291 18.334 26.3327 16.1343 24.226C14.8673 23.0127 13.1729 23.0135 11.9163 24.2282C9.76237 26.3102 6.45084 26.332 4.26539 24.2631C3.68885 23.7171 3.03959 23.3857 2.22388 23.3311C1.42693 23.2781 0.857134 22.6391 0.942603 21.9608C1.03632 21.2143 1.66159 20.7592 2.49004 20.8341C3.84329 20.9555 5.00312 21.4701 5.96502 22.4094C7.18482 23.6001 8.90394 23.6067 10.1297 22.437C10.6778 21.9143 11.3008 21.4941 12.0138 21.2201C12.2845 21.1161 12.3467 20.9766 12.3467 20.7127C12.3392 14.6586 12.3407 8.60533 12.3407 2.5513C12.3407 1.47905 12.4936 1.25152 13.4818 0.869141H13.7809C14.6543 1.12793 14.9745 1.71095 14.907 2.57238C14.862 3.14885 14.916 3.73187 14.8912 4.31052C14.8778 4.62674 14.9512 4.74305 15.3103 4.73578C16.4807 4.71107 17.6525 4.72633 18.8236 4.72633C20.7923 4.72633 22.7604 4.71979 24.7291 4.7336C25.032 4.73578 25.1055 4.64564 25.0958 4.36795C25.0755 3.76458 25.0898 3.16048 25.0898 2.55712C25.0898 1.48414 25.2697 1.22753 26.2773 0.869868H26.5015V0.869141ZM19.9939 10.9417C21.5766 10.9417 23.1592 10.9374 24.7419 10.9468C24.9878 10.9483 25.092 10.9054 25.0875 10.635C25.071 9.59689 25.074 8.55735 25.086 7.51927C25.089 7.29246 25.0163 7.23649 24.7906 7.23649C21.5878 7.24303 18.3857 7.24303 15.1829 7.23649C14.9452 7.23649 14.892 7.31136 14.8942 7.52654C14.9047 8.55299 14.9085 9.57944 14.892 10.6059C14.8875 10.8785 14.967 10.9505 15.2459 10.9483C16.8285 10.9352 18.4112 10.9417 19.9939 10.9417ZM20.0299 13.4134C18.4232 13.4134 16.8158 13.4177 15.2091 13.4083C14.9707 13.4068 14.8897 13.4635 14.8927 13.7063C14.9062 14.7444 14.9055 15.7832 14.8927 16.8213C14.8897 17.0554 14.9557 17.1266 15.2031 17.1259C18.3925 17.1179 21.581 17.1186 24.7704 17.1259C25.0103 17.1259 25.089 17.0677 25.086 16.8264C25.0725 15.8007 25.0703 14.7742 25.0868 13.7478C25.0913 13.4788 25.0208 13.4039 24.7381 13.4061C23.169 13.4199 21.599 13.4126 20.0291 13.4126L20.0299 13.4134ZM20.0299 19.6099C20.0299 19.6041 20.0299 19.599 20.0299 19.5932C18.6721 19.5932 17.3144 19.5874 15.9566 19.5975C15.6132 19.6004 15.1454 19.4405 14.9602 19.6717C14.7885 19.8861 14.9175 20.3194 14.8957 20.6552C14.8823 20.8639 14.9565 20.9351 15.1739 20.9831C16.2168 21.2128 17.1172 21.7042 17.8797 22.4341C19.1294 23.6306 20.8133 23.6336 22.0669 22.437C22.6891 21.8431 23.4081 21.4069 24.2276 21.1161C24.5042 21.018 24.9121 21.0769 25.038 20.8421C25.1662 20.6029 25.0538 20.2511 25.0875 19.9523C25.1228 19.6382 24.9706 19.6033 24.7014 19.6048C23.1442 19.6143 21.587 19.6092 20.0299 19.6092V19.6099Z" fill="white"/>
<path d="M39.1471 11.4572C39.0961 11.6294 39.0451 11.8017 38.9942 11.9747C38.5346 13.5188 37.0471 14.6296 35.3872 14.6412C33.6291 14.6536 31.871 14.647 30.1129 14.6448C29.3542 14.6441 28.7986 14.112 28.8009 13.4003C28.8031 12.6908 29.3572 12.1674 30.1219 12.1659C31.7556 12.1637 33.3885 12.1681 35.0221 12.1688C36.1212 12.1688 36.5988 11.7087 36.5995 10.651C36.5995 9.96182 36.6048 9.2734 36.598 8.58425C36.5905 7.73663 36.0717 7.24231 35.1946 7.24158C33.5114 7.24012 31.8283 7.24376 30.1452 7.24012C29.5244 7.23867 29.0318 6.90064 28.8564 6.37433C28.6914 5.87855 28.8654 5.33697 29.2912 5.00766C29.5146 4.83465 29.774 4.73869 30.0507 4.74087C31.9205 4.75469 33.7926 4.66164 35.6594 4.78086C37.3635 4.8899 38.7115 6.08936 39.0691 7.70901C39.0849 7.77879 39.0766 7.85585 39.1471 7.90383V11.4572Z" fill="white"/>
<path d="M31.865 30.7504C30.3731 30.7097 29.0851 30.1906 28.0287 29.1504C27.4604 28.5906 26.7781 28.2846 25.9639 28.2773C25.1198 28.27 24.4195 28.5863 23.8295 29.1642C22.7806 30.1914 21.5023 30.7264 20.0141 30.7359C18.5394 30.746 17.2656 30.2313 16.2055 29.2354C14.8178 27.932 13.2306 27.9291 11.8541 29.2311C9.73164 31.2382 6.44709 31.2542 4.31037 29.2442C3.6926 28.6633 3.0081 28.3064 2.13467 28.265C1.43667 28.2315 0.92236 27.6238 0.961346 26.9564C1.00183 26.2666 1.58512 25.7613 2.31535 25.7897C3.77956 25.8464 5.00761 26.4054 6.03324 27.4144C6.90742 28.2744 8.15646 28.4896 9.26756 27.9996C9.61318 27.847 9.90407 27.626 10.1717 27.3679C12.3812 25.2372 15.686 25.2423 17.9006 27.3773C19.1189 28.5521 20.8531 28.5543 22.0684 27.3832C24.2868 25.2452 27.5781 25.2328 29.801 27.3534C31.0666 28.5601 32.7655 28.5586 34.0242 27.3468C35.0206 26.3872 36.2134 25.8595 37.6214 25.7926C38.3787 25.757 38.9754 26.2448 39.0219 26.9477C39.0676 27.6456 38.5263 28.2388 37.7849 28.273C36.9849 28.3093 36.3207 28.6124 35.7621 29.1598C34.693 30.2074 33.3915 30.7242 31.8665 30.7518L31.865 30.7504Z" fill="white"/>
<path d="M7.14582 14.6441C6.33536 14.6441 5.52491 14.647 4.71446 14.6434C2.51476 14.6332 0.843622 13.0077 0.837624 10.8741C0.835375 10.0883 0.835375 9.30321 0.837624 8.51738C0.842872 6.40923 2.45103 4.77941 4.62824 4.73506C6.38559 4.69944 8.14445 4.71834 9.90256 4.72707C10.6448 4.7307 11.2228 5.31226 11.2056 5.9985C11.1876 6.69492 10.614 7.22632 9.85682 7.2285C8.24866 7.23286 6.63975 7.22704 5.03159 7.22632C3.81104 7.22632 3.38444 7.63559 3.38444 8.80743C3.38444 9.46023 3.38219 10.1123 3.38444 10.7651C3.38894 11.6563 3.901 12.163 4.81792 12.1659C6.50105 12.1703 8.18494 12.1616 9.86807 12.1645C10.5368 12.1659 11.0781 12.6079 11.1576 13.1997C11.2476 13.8648 10.8637 14.4435 10.2084 14.6063C10.0548 14.6441 9.88756 14.6412 9.72712 14.6419C8.86644 14.6448 8.0065 14.6434 7.14582 14.6434V14.6441Z" fill="white"/>
</g>
</svg>
