<svg width="41" height="42" viewBox="0 0 41 42" fill="none" xmlns="http://www.w3.org/2000/svg">
<g id="Vector">
<path d="M40.6358 18.985C40.5352 19.4872 40.4565 19.9942 40.331 20.4901C39.2519 24.7457 35.4932 27.6464 31.1832 27.5685C30.3404 27.5534 29.4976 27.5669 28.6548 27.5685C27.8214 27.5701 27.2366 27.0217 27.2319 26.2318C27.2273 25.4252 27.8198 24.8745 28.672 24.861C29.8765 24.8411 31.0866 24.9643 32.2849 24.7894C35.5392 24.315 37.9452 21.5439 37.9678 18.172C38.0006 13.2949 37.9756 8.41787 37.9818 3.54081C37.9818 3.29207 37.9265 3.19988 37.6614 3.19988C31.6705 3.20704 25.6796 3.20783 19.6887 3.19909C19.4034 3.19909 19.3831 3.32068 19.3839 3.55035C19.3901 5.71828 19.3901 7.88542 19.3878 10.0534C19.3878 10.7718 18.9387 11.3408 18.3025 11.4488C17.632 11.5625 17.0153 11.1898 16.7962 10.5453C16.7393 10.3784 16.7354 10.2091 16.7354 10.0375C16.7354 7.85681 16.7362 5.67537 16.7377 3.49472C16.7377 1.89658 17.3685 1.02798 18.8685 0.555131C18.8904 0.547978 18.9075 0.522548 18.9262 0.505859C25.4364 0.505859 31.9473 0.505859 38.4574 0.505859C39.0897 0.717249 39.6698 1.00493 40.0908 1.5644C40.3551 1.91645 40.4705 2.33128 40.6366 2.72704V18.985H40.6358Z" fill="white"/>
<path d="M12.7389 14.0531C15.7725 14.0531 18.8062 14.0523 21.839 14.0531C23.6112 14.0539 24.6918 15.1569 24.6926 16.9672C24.6941 21.83 24.7019 26.6927 24.6903 31.5555C24.6793 36.1759 21.7073 39.9236 17.2913 40.9138C16.6699 41.0529 16.0384 41.1149 15.4006 41.1141C13.6378 41.1117 11.8742 41.1205 10.1114 41.1117C5.46234 41.0895 1.60771 37.7112 0.893545 33.032C0.817138 32.5242 0.792969 32.0093 0.792969 31.4919C0.796867 26.6427 0.794528 21.7934 0.795308 16.9434C0.795308 15.1704 1.89307 14.0539 3.63872 14.0531C6.67237 14.0515 9.70601 14.0531 12.7389 14.0531ZM12.7373 16.7542C9.78164 16.7542 6.82596 16.759 3.87028 16.7471C3.54516 16.7455 3.43367 16.8043 3.43445 17.1723C3.44848 21.9555 3.43991 26.7388 3.44536 31.5221C3.45004 35.4209 6.37532 38.397 10.1956 38.4018C11.8937 38.4042 13.5918 38.4042 15.2907 38.4018C19.0915 38.397 22.0285 35.4225 22.0347 31.5547C22.0425 26.7579 22.0332 21.9611 22.0441 17.1651C22.0441 16.8425 21.9747 16.7447 21.6441 16.7463C18.6752 16.7598 15.707 16.7542 12.7381 16.7542H12.7373Z" fill="white"/>
<path d="M28.9916 15.3707C30.6499 15.3492 32.0572 15.9333 33.1667 17.2025C33.654 17.7595 33.5986 18.5987 33.0692 19.0922C32.5414 19.585 31.7532 19.5826 31.2456 19.0501C30.547 18.3174 29.7136 18.0138 28.7203 18.0925C27.904 18.1569 27.2701 17.5982 27.2343 16.8218C27.1961 16.004 27.7551 15.4215 28.6033 15.3929C28.7328 15.3882 28.8622 15.3786 28.9908 15.3715L28.9916 15.3707Z" fill="white"/>
<path d="M31.3353 10.0168C31.3353 9.59482 31.3251 9.17283 31.3376 8.75085C31.3602 7.98873 31.9208 7.41337 32.6365 7.40304C33.3749 7.39271 33.969 7.9633 33.9861 8.73893C34.0048 9.59561 34.0064 10.4531 33.9845 11.3098C33.9635 12.1092 33.3936 12.6838 32.6685 12.6878C31.9294 12.6918 31.3641 12.1021 31.3392 11.282C31.3259 10.8608 31.3368 10.438 31.3368 10.016L31.3353 10.0168Z" fill="white"/>
<path d="M26.0125 10.0621C26.0125 10.4976 26.0227 10.9331 26.0102 11.3678C25.9892 12.0981 25.4255 12.6671 24.7199 12.687C24.0447 12.7061 23.4116 12.1688 23.3812 11.4631C23.3407 10.5151 23.3422 9.56382 23.3765 8.61495C23.4015 7.90926 24.0611 7.36966 24.762 7.40463C25.4504 7.4388 25.9977 8.00701 26.0118 8.71747C26.0211 9.16568 26.0133 9.61468 26.0133 10.0629C26.0133 10.0629 26.0125 10.0629 26.0118 10.0629L26.0125 10.0621Z" fill="white"/>
<path d="M12.7591 34.3679C11.224 34.4673 9.86428 34.0302 8.70493 32.9891C8.52093 32.8238 8.34785 32.6418 8.19192 32.4479C7.71944 31.8591 7.78338 31.0429 8.32836 30.5605C8.87256 30.0781 9.73876 30.0789 10.1761 30.6734C11.1071 31.9377 13.86 31.9457 14.8689 31.0882C15.0077 30.9706 15.1433 30.8466 15.265 30.7107C15.7819 30.1362 16.5873 30.0615 17.1486 30.5446C17.7185 31.0342 17.7872 31.8908 17.2695 32.4924C16.139 33.8037 14.7028 34.4164 12.993 34.3679C12.9151 34.3655 12.8379 34.3679 12.7599 34.3679H12.7591Z" fill="white"/>
<path d="M10.074 23.4639C10.074 23.9391 10.0857 24.4143 10.0709 24.8896C10.0483 25.6278 9.52435 26.1809 8.83747 26.2151C8.11785 26.2509 7.49022 25.7621 7.45124 25.0151C7.39667 23.9757 7.39667 22.9298 7.44267 21.8896C7.47463 21.1608 8.14436 20.6276 8.8289 20.6769C9.54384 20.7285 10.0654 21.292 10.0787 22.0382C10.0873 22.5134 10.0802 22.9886 10.0802 23.4639C10.0779 23.4639 10.0763 23.4639 10.074 23.4639Z" fill="white"/>
<path d="M15.4061 23.5489C15.4061 23.1269 15.3991 22.7049 15.4076 22.2837C15.4225 21.5264 15.9838 20.9566 16.7097 20.9502C17.4371 20.9439 18.0343 21.5018 18.0515 22.2512C18.0725 23.1341 18.0756 24.0186 18.0483 24.9007C18.0242 25.6851 17.4254 26.2366 16.6832 26.2175C15.962 26.1992 15.4264 25.6326 15.4084 24.8538C15.3983 24.4191 15.4069 23.9836 15.4061 23.5489Z" fill="white"/>
</g>
</svg>
