<svg width="41" height="42" viewBox="0 0 41 42" fill="none" xmlns="http://www.w3.org/2000/svg">
<path id="Vector" d="M40.7387 13.5679C40.6539 14.311 40.5807 15.055 40.4824 15.7954C40.093 18.7188 39.1302 21.4487 37.9065 24.103C36.1086 28.0037 33.3613 31.1051 30.2763 33.9327C27.4843 36.492 24.4654 38.7397 21.3144 40.803C20.7633 41.1635 20.2086 41.2456 19.6451 40.8722C15.1703 37.9091 10.9359 34.638 7.30519 30.5962C6.07174 29.2225 4.95172 27.7557 4.01837 26.1442C3.95317 26.0317 3.80669 25.9164 3.88083 25.7837C3.95317 25.6546 4.12376 25.7265 4.2497 25.7256C5.05175 25.7201 5.85381 25.7256 6.65587 25.7201C6.85772 25.7182 7.01491 25.745 7.14978 25.9395C9.33534 29.0833 12.0809 31.6509 14.998 34.0397C16.6494 35.3922 18.3687 36.6488 20.1265 37.851C20.3274 37.9883 20.4721 38.0427 20.7106 37.8786C24.4458 35.299 27.9988 32.4926 31.1319 29.1451C34.6787 25.3559 36.8696 20.8513 37.7744 15.6893C38.1933 13.2997 38.1718 10.8971 37.3412 8.5747C35.7862 4.22958 31.023 2.17365 26.7894 4.00186C24.5217 4.98097 22.822 6.59252 21.7199 8.86327C21.4457 9.4275 21.0598 9.79627 20.4141 9.79719C19.7674 9.79719 19.3851 9.42381 19.1065 8.86419C17.7096 6.05503 15.5231 4.26185 12.5453 3.53997C9.15045 2.7176 4.45423 4.40291 3.21453 9.52799C2.5652 12.2145 2.78939 14.8762 3.43871 17.5203C3.62717 18.2892 3.89422 19.0378 4.11126 19.8003C4.18718 20.0658 4.3283 20.1469 4.59178 20.1442C5.82434 20.1312 7.05689 20.1266 8.28945 20.146C8.5967 20.1506 8.73067 20.0381 8.83874 19.7542C9.53987 17.9038 10.2562 16.059 10.9698 14.2133C11.2628 13.4564 11.6504 13.1641 12.3229 13.1863C12.9705 13.2075 13.4019 13.5624 13.6359 14.288C14.5514 17.1303 15.4633 19.9745 16.377 22.8187C16.4002 22.8897 16.4243 22.9607 16.4511 23.039C16.6503 22.9994 16.6423 22.8159 16.695 22.6906C17.4908 20.7969 18.2875 18.9041 19.0672 17.0031C19.3226 16.3808 19.7192 15.9705 20.3944 15.9705C21.0768 15.9705 21.5198 16.3568 21.7904 16.9911C22.1852 17.9149 22.6112 18.8239 22.9926 19.7533C23.1194 20.0612 23.2882 20.1506 23.5964 20.1451C24.6503 20.1276 25.7051 20.1488 26.7591 20.1322C27.0717 20.1276 27.211 20.1912 27.1949 20.5581C27.1645 21.2468 27.1788 21.9373 27.1896 22.6269C27.1931 22.8584 27.1333 22.9505 26.8912 22.9496C25.3318 22.9404 23.7723 22.9524 22.2129 22.9404C21.677 22.9358 21.2885 22.6454 21.0437 22.1577C20.8463 21.7649 20.6606 21.3666 20.4685 20.9702C20.289 21.0237 20.289 21.185 20.2417 21.3012C19.4057 23.3599 18.5751 25.4204 17.7417 27.481C17.4282 28.2554 17.0085 28.579 16.3591 28.5513C15.7089 28.5237 15.2909 28.1632 15.039 27.3906C14.137 24.6239 13.2393 21.8562 12.339 19.0895C12.3069 18.9908 12.3104 18.8728 12.1658 18.7797C12.0112 19.1687 11.8567 19.5504 11.7076 19.933C11.4414 20.6134 11.1743 21.2938 10.9144 21.977C10.6626 22.6362 10.208 22.9598 9.51218 22.957C7.25517 22.9487 4.99727 22.9524 2.74026 22.957C2.52948 22.957 2.39461 22.922 2.29636 22.6887C0.936086 19.4684 0.0875865 16.1254 0.130458 12.5944C0.164398 9.81932 0.736912 7.17519 2.36603 4.89338C4.04874 2.53505 6.35041 1.201 9.12545 0.684716C9.50325 0.614649 9.89713 0.668121 10.2598 0.505859H11.4182C11.6665 0.643229 11.9425 0.579615 12.2042 0.619258C15.4981 1.12633 18.1758 2.71852 20.189 5.46775C20.3846 5.73419 20.4712 5.70838 20.6525 5.45946C22.3745 3.09375 24.6324 1.56701 27.4173 0.855276C28.0497 0.693936 28.7035 0.677341 29.3313 0.505859C29.7476 0.505859 30.1629 0.505859 30.5791 0.505859C31.0453 0.579615 31.516 0.631244 31.9769 0.729891C36.4552 1.68502 39.5178 4.90352 40.3886 9.51969C40.5557 10.4048 40.5887 11.3036 40.7379 12.1878V13.5679H40.7387Z" fill="white"/>
</svg>
