<svg width="42" height="42" viewBox="0 0 42 42" fill="none" xmlns="http://www.w3.org/2000/svg">
<g id="Vector">
<path d="M40.1724 41.1139H4.8104C4.75463 41.0943 4.70066 41.0657 4.6431 41.0577C2.11011 40.7031 0.718579 39.0672 0.8616 36.5301C0.990228 34.2485 1.17283 31.9696 1.33833 29.6898C1.65316 25.3373 1.97338 20.9857 2.29 16.6332C2.58684 12.5477 2.86928 8.46048 3.18141 4.3759C3.35321 2.1184 5.0011 0.574402 7.27593 0.527966C8.74121 0.497604 10.2074 0.49939 11.6727 0.527966C13.7541 0.569044 15.3687 1.8889 15.7006 3.89636C15.8787 4.976 15.8895 6.08332 15.9696 7.17814C16.2304 10.7751 16.4895 14.373 16.7459 17.9709C16.7809 18.4576 16.7728 18.4594 17.1992 18.1933C20.6515 16.0367 24.1065 13.8828 27.5533 11.7173C28.093 11.3788 28.6273 11.1832 29.2282 11.5208C29.8084 11.8458 29.9433 12.3816 29.9379 13.0005C29.9244 14.4998 29.9334 16.0001 29.9334 17.4994V18.1683C30.1529 18.0227 30.3013 17.929 30.4434 17.8289C32.1021 16.6618 33.7599 15.4946 35.4177 14.3266C36.6977 13.4256 37.9776 12.5236 39.2585 11.6235C39.7254 11.2949 40.2255 11.2341 40.7364 11.5011C41.232 11.7592 41.4587 12.1897 41.4596 12.7415C41.4596 12.8603 41.4614 12.9791 41.4614 13.0978C41.4614 21.8278 41.4614 30.5587 41.4614 39.2886C41.4614 40.4513 41.2518 40.7478 40.1724 41.1157V41.1139ZM27.2394 15.2276C27.1207 15.2759 27.064 15.2901 27.0172 15.3196C23.7611 17.3405 20.5067 19.364 17.2451 21.3777C17.0364 21.5063 17.0184 21.6528 17.0364 21.8573C17.0931 22.4931 17.1416 23.1298 17.1875 23.7665C17.4511 27.3939 17.7263 31.0203 17.9665 34.6486C18.0474 35.8693 18.3092 37.099 17.9026 38.3581H18.472C25.0231 38.3581 31.5741 38.3581 38.1243 38.3581C38.508 38.3581 38.7008 38.1679 38.7026 37.7875C38.7188 30.4676 38.735 23.1468 38.7485 15.8268C38.7485 15.6857 38.7908 15.5357 38.6873 15.3669C38.574 15.4411 38.4634 15.508 38.3581 15.583C35.4671 17.6164 32.5744 19.6462 29.6897 21.6885C29.1598 22.0635 28.6273 22.3127 27.9896 21.9921C27.3546 21.6724 27.225 21.1125 27.2322 20.4562C27.2511 18.7344 27.2385 17.0127 27.2385 15.2276H27.2394ZM9.37086 38.3581C9.37086 38.3626 9.37086 38.3679 9.37086 38.3724C10.8361 38.3724 12.3023 38.3742 13.7676 38.3724C14.8137 38.3706 15.4506 37.7803 15.3858 36.8382C15.178 33.8324 14.9559 30.8274 14.7391 27.8216C14.4809 24.2389 14.221 20.6562 13.9637 17.0735C13.8351 15.2821 13.7074 13.4908 13.5859 11.6985C13.5697 11.4574 13.5122 11.3297 13.2216 11.3306C10.7237 11.3413 8.2267 11.3404 5.72879 11.3306C5.45264 11.3297 5.37439 11.4288 5.3564 11.6878C5.1792 14.3087 4.9921 16.9297 4.80501 19.5506C4.61611 22.2011 4.42542 24.8506 4.23382 27.501C4.00985 30.5953 3.77778 33.6886 3.5637 36.7838C3.49533 37.7723 4.06562 38.3536 5.06316 38.3572C6.49876 38.3617 7.93436 38.3581 9.37086 38.3581ZM9.47071 8.62926C10.6068 8.62926 11.7437 8.61497 12.8798 8.6373C13.2486 8.64444 13.3736 8.55782 13.3386 8.17204C13.227 6.96024 13.1578 5.74576 13.0588 4.53307C12.9913 3.7124 12.4561 3.22572 11.6007 3.21857C10.1651 3.20697 8.73042 3.20697 7.29482 3.21857C6.41781 3.22483 5.8835 3.70526 5.82234 4.56611C5.73419 5.79488 5.68921 7.02633 5.60826 8.25509C5.58847 8.54978 5.67842 8.63908 5.97345 8.63551C7.13921 8.62212 8.30586 8.63015 9.47161 8.63015L9.47071 8.62926Z" fill="#06337A"/>
<path d="M23.7737 28.9075C22.9812 28.9075 22.1887 28.8959 21.3963 28.9137C21.121 28.92 21.0347 28.8432 21.0428 28.5655C21.0626 27.8832 21.0581 27.2001 21.0446 26.5169C21.0401 26.283 21.1192 26.2115 21.3522 26.2124C22.9668 26.2205 24.5823 26.2205 26.1969 26.2124C26.4488 26.2106 26.5351 26.2856 26.5297 26.541C26.5144 27.2233 26.5135 27.9073 26.5297 28.5896C26.536 28.8486 26.4443 28.9164 26.196 28.9129C25.3892 28.8995 24.5814 28.9084 23.7737 28.9084V28.9075Z" fill="#06337A"/>
<path d="M31.9654 28.9075C31.1576 28.9075 30.3499 28.8986 29.543 28.9129C29.2921 28.9173 29.2057 28.8459 29.212 28.5896C29.2282 27.9073 29.2273 27.2233 29.212 26.541C29.2066 26.2883 29.2876 26.2115 29.5421 26.2124C31.1576 26.2222 32.7722 26.2205 34.3877 26.2133C34.6171 26.2124 34.7026 26.2812 34.6981 26.5169C34.6855 27.2144 34.6846 27.9127 34.6981 28.6101C34.7026 28.8477 34.6189 28.9146 34.3886 28.9111C33.5809 28.9004 32.7731 28.9066 31.9663 28.9066L31.9654 28.9075Z" fill="#06337A"/>
</g>
</svg>
