<svg width="38" height="42" viewBox="0 0 38 42" fill="none" xmlns="http://www.w3.org/2000/svg">
<g id="Vector">
<path d="M9.0378 0.505859C15.8508 0.505859 22.6638 0.505859 29.4777 0.505859C29.6069 0.533567 29.7343 0.572895 29.8653 0.587196C32.886 0.908073 35.4017 3.42504 35.7028 6.45952C35.8756 8.20334 36.0119 9.95163 36.1634 11.6981C36.5758 16.4639 36.9812 21.2297 37.4052 25.9937C37.4747 26.774 37.4738 27.5632 37.6537 28.3319V29.4912C37.6297 29.5752 37.5914 29.6574 37.5825 29.7432C37.2395 33.0316 34.3826 35.7416 30.7908 35.7183C30.4835 35.7166 30.4122 35.7916 30.4942 36.0973C30.7766 37.1583 31.0331 38.2255 31.3022 39.29C31.4117 39.7262 31.4055 40.149 31.1382 40.5288C30.8077 40.9981 30.3472 41.1938 29.7842 41.0875C29.2007 40.9775 28.8497 40.6003 28.7072 40.0328C28.3829 38.7376 28.0533 37.4434 27.7558 36.142C27.6765 35.7961 27.5331 35.7049 27.1901 35.7058C21.9031 35.7175 16.6169 35.7183 11.3299 35.704C10.9602 35.7032 10.8203 35.8131 10.7393 36.1661C10.4515 37.4237 10.1291 38.6742 9.82618 39.9282C9.67741 40.544 9.34781 40.9865 8.69572 41.091C7.66237 41.2573 6.93278 40.3939 7.19469 39.3159C7.43877 38.3068 7.70424 37.3031 7.95812 36.2957C8.05255 35.9209 7.90794 35.7306 7.52429 35.7246C3.71958 35.6638 0.615955 32.371 0.89211 28.6126C1.14867 25.1312 1.48005 21.6561 1.78026 18.1782C2.0965 14.5083 2.43502 10.8392 2.72632 7.16742C2.94813 4.36979 4.20776 2.3042 6.77333 1.09667C7.49222 0.758807 8.26813 0.647975 9.0378 0.506753V0.505859ZM19.2475 33.036C23.0683 33.036 26.8881 33.036 30.7089 33.036C32.1128 33.036 33.2727 32.5221 34.1394 31.3923C34.9492 30.3367 34.9937 29.131 34.8779 27.8707C34.5465 24.2767 34.2428 20.68 33.9292 17.0842C33.6325 13.6806 33.3519 10.2761 33.0366 6.87425C32.8495 4.8596 31.1712 3.28114 29.1677 3.27577C22.5632 3.25611 15.9595 3.25611 9.35493 3.27577C7.33811 3.28203 5.66603 4.85245 5.47896 6.86084C5.22062 9.62628 4.99168 12.3944 4.74938 15.1616C4.37612 19.4081 4.00108 23.6546 3.6305 27.9011C3.57349 28.5509 3.50222 29.2025 3.65723 29.8523C4.11244 31.765 5.73552 33.0307 7.78797 33.0342C11.6087 33.0423 15.4286 33.036 19.2493 33.0369L19.2475 33.036Z" fill="white"/>
<path d="M19.2618 19.4913C16.7595 19.4913 14.2571 19.502 11.7548 19.4877C9.6489 19.4761 8.03384 18.1416 7.65257 16.1252C7.49756 15.3029 7.6882 14.4984 7.81292 13.6931C8.03473 12.2559 8.26991 10.8204 8.5033 9.38406C8.82133 7.42573 10.4346 5.97776 12.414 5.96703C16.9741 5.9429 21.5352 5.94826 26.0962 5.96524C27.7816 5.9715 29.7503 7.10038 30.0978 9.81577C30.3026 11.4202 30.5788 13.0156 30.8434 14.6111C31.2843 17.2746 29.4769 19.4635 26.7696 19.4868C24.2673 19.5082 21.765 19.4913 19.2627 19.4913H19.2618ZM19.252 16.7768C20.4947 16.7768 21.7383 16.7768 22.981 16.7768C24.254 16.7768 25.5261 16.7866 26.799 16.7723C27.7255 16.7616 28.3259 16.0832 28.1905 15.2144C27.9233 13.5001 27.6516 11.7857 27.3692 10.0732C27.1928 9.0033 26.7785 8.66186 25.6909 8.66097C23.5449 8.65918 21.3998 8.66097 19.2538 8.66097C17.0784 8.66097 14.903 8.6574 12.7276 8.66276C11.7557 8.66544 11.3049 9.03816 11.149 9.9847C10.8765 11.6382 10.6181 13.2945 10.3598 14.9507C10.1691 16.1716 10.6903 16.7759 11.9276 16.7768C14.3694 16.7785 16.8111 16.7768 19.2529 16.7768H19.252Z" fill="white"/>
<path d="M30.0283 26.2762C30.0176 28.5205 28.2119 30.3126 25.9724 30.3046C23.7533 30.2956 21.9253 28.4481 21.9449 26.2341C21.9645 24.013 23.8121 22.178 26.0151 22.1941C28.2395 22.2102 30.039 24.0407 30.0283 26.277V26.2762ZM24.6522 26.2511C24.6495 27.0028 25.2579 27.6169 26.0009 27.6133C26.7367 27.6097 27.3522 26.9796 27.3442 26.2395C27.3362 25.5093 26.7429 24.9158 26.0124 24.9059C25.2615 24.8961 24.6548 25.4959 24.6522 26.2502V26.2511Z" fill="white"/>
<path d="M8.48727 26.2395C8.49529 24.0068 10.3233 22.1816 12.5378 22.1932C14.748 22.2049 16.5822 24.0604 16.5697 26.2708C16.5563 28.5026 14.7355 30.3108 12.5067 30.3046C10.2752 30.2983 8.47925 28.4821 8.48727 26.2395ZM13.8634 26.2672C13.8687 25.5119 13.2701 24.9059 12.5182 24.9068C11.7887 24.9077 11.1865 25.4976 11.1713 26.2252C11.1562 26.9662 11.7637 27.6017 12.4987 27.6142C13.2425 27.6267 13.8572 27.0198 13.8625 26.2672H13.8634Z" fill="white"/>
</g>
</svg>
